<svg version="1.1" id="Layer_1" xmlns="http://www.w3.org/2000/svg" xmlns:xlink="http://www.w3.org/1999/xlink" x="0px" y="0px"
	 width="100%" viewBox="0 0 294 384" enable-background="new 0 0 294 384" xml:space="preserve">
<path fill="none" opacity="1.000000" stroke="#000000" stroke-linecap="round" stroke-linejoin="round" stroke-width="6.000000"
	d="
M171.000000,151.500000 
	C179.948608,147.757553 187.922363,153.954590 196.499985,154.002228 
	C199.673843,154.019852 202.727448,154.900665 206.010468,154.624252 
	C211.574341,154.155792 213.761765,157.143570 215.550461,164.988495 
	C217.919250,175.377716 218.199829,185.999985 219.631348,196.482056 
	C220.890640,205.703232 221.275391,214.890503 219.848969,223.976288 
	C218.713364,231.209854 219.709427,239.040955 215.000000,245.500000 
"/>
<path fill="none" opacity="1.000000" stroke="#000000" stroke-linecap="round" stroke-linejoin="round" stroke-width="5.000000"
	d="
M86.000000,207.500000 
	C81.644676,212.732712 83.872292,218.827347 84.181458,224.490097 
	C84.382034,228.164032 84.678520,231.809357 84.517754,235.500778 
	C84.064499,245.908463 86.899071,255.792847 90.102684,265.466003 
	C94.178642,277.773071 99.160774,289.777466 103.418083,302.028473 
	C105.041389,306.699768 108.498283,310.166107 110.422874,314.533997 
	C111.180321,316.252991 112.328209,315.746704 113.491920,316.032867 
	C118.623878,317.294891 124.254837,316.010498 129.023422,319.215149 
	C130.758072,320.380920 132.658508,318.903900 134.500000,319.000000 
"/>
<path fill="none" opacity="1.000000" stroke="#000000" stroke-linecap="round" stroke-linejoin="round" stroke-width="5.000000"
	d="
M211.500000,155.500000 
	C213.217865,149.153503 210.874802,143.131516 209.982300,137.002579 
	C208.718750,128.325745 206.812912,119.708199 206.117172,110.990646 
	C204.959686,96.487152 200.528366,83.116920 194.748566,69.891373 
	C192.940094,65.753166 193.238556,60.576302 191.610153,55.961136 
	C188.888168,48.246571 185.190628,40.950333 182.814743,33.055756 
	C180.337311,24.823765 167.674728,22.015203 160.999191,27.499018 
	C157.973282,29.984741 158.077728,33.642334 157.549744,37.007805 
	C157.269028,38.797096 157.500000,40.666668 157.500000,42.500000 
"/>
<path fill="none" opacity="1.000000" stroke="#000000" stroke-linecap="round" stroke-linejoin="round" stroke-width="6.000000"
	d="
M190.500000,262.500000 
	C194.455383,261.800629 196.870544,259.090057 199.001205,256.000824 
	C201.643127,252.170303 204.777725,248.805496 208.743301,245.944916 
	C210.266006,246.254700 212.011566,246.609818 213.961243,247.006454 
	C217.365341,257.389465 219.665375,267.906097 217.528702,279.005524 
	C215.935898,287.279694 212.862030,294.990082 206.365036,300.335999 
	C201.826645,304.070312 198.148636,308.481232 194.000000,312.500000 
"/>
<path fill="none" opacity="1.000000" stroke="#000000" stroke-linecap="round" stroke-linejoin="round" stroke-width="5.000000"
	d="
M195.500000,197.500000 
	C194.054840,198.855270 193.426117,200.446060 193.455078,202.500626 
	C193.519073,207.041718 190.274994,210.058258 187.964340,213.475891 
	C187.730164,213.822281 187.007721,213.948669 186.498840,213.982773 
	C178.418411,214.524155 171.615921,207.152954 172.464508,198.996307 
	C172.848526,195.305222 172.726257,191.554871 171.471802,188.009979 
	C169.736053,183.105042 169.703918,178.048798 170.061707,173.004379 
	C170.311096,169.487885 167.790710,166.539825 168.460876,162.992615 
	C168.704102,161.705231 168.144180,160.210541 168.555344,159.019104 
	C172.432465,147.784302 164.997284,139.547852 160.789230,130.599121 
	C159.819595,128.537094 158.500015,126.058609 156.098618,124.360542 
	C152.159119,121.574875 148.306793,123.226578 144.507904,123.583977 
	C134.053741,124.567543 130.307327,128.540237 128.358505,138.472244 
	C127.702728,141.814392 128.117340,144.773209 128.345901,148.010880 
	C129.142868,159.301010 132.129471,170.003067 136.044937,180.483215 
	C139.130875,188.743073 142.619171,196.852600 146.077545,205.396454 
	C148.327301,203.458282 148.580627,200.812134 149.517639,198.507172 
	C152.225586,191.845856 160.355774,189.749344 164.977707,194.521591 
	C165.964081,195.540039 166.666672,196.833328 167.500000,198.000000 
"/>
<path fill="none" opacity="1.000000" stroke="#000000" stroke-linecap="round" stroke-linejoin="round" stroke-width="6.000000"
	d="
M151.500000,246.500000 
	C144.273041,251.953339 141.309189,261.993500 144.572433,270.472137 
	C144.847031,271.185638 145.099014,271.857178 144.970337,272.494019 
	C142.651382,283.970734 149.436371,292.648285 154.028778,301.985840 
	C154.653137,303.255280 156.042252,304.219360 156.436707,305.519196 
	C158.423370,312.066162 164.510345,313.183502 169.555161,314.235413 
	C175.958511,315.570648 182.463150,316.248199 188.500000,319.000000 
"/>
<path fill="none" opacity="1.000000" stroke="#000000" stroke-linecap="round" stroke-linejoin="round" stroke-width="6.000000"
	d="
M193.250000,313.500000 
	C187.109680,318.219482 188.842499,325.248352 188.029877,331.503876 
	C187.534653,335.316193 187.892914,339.326202 186.857086,342.959259 
	C185.587830,347.410980 182.353455,350.835052 178.496658,353.495148 
	C172.628708,357.542511 165.896255,358.153168 159.064270,359.362976 
	C153.793381,360.296326 148.701004,358.411041 143.412796,360.249084 
	C139.578629,361.581696 134.934525,360.137207 131.031387,358.428314 
	C126.397972,356.399689 121.778709,354.166992 117.578705,351.381348 
	C114.831657,349.559357 112.199257,347.928101 109.022545,346.928375 
	C104.681984,345.562317 103.786392,343.168945 103.916336,338.497681 
	C104.070831,332.943848 105.115677,327.508636 105.456619,321.997314 
	C105.546204,320.549255 105.963753,319.436859 107.000000,318.500000 
"/>
<path fill="none" opacity="1.000000" stroke="#000000" stroke-linecap="round" stroke-linejoin="round" stroke-width="4.000000"
	d="
M100.500008,167.500015 
	C98.833336,168.166672 97.161270,169.416321 95.500923,169.400955 
	C87.537842,169.327194 85.202774,174.379333 83.951416,180.990799 
	C82.360535,189.396133 83.897194,197.450912 86.004349,205.498856 
	C86.137550,206.007629 86.183464,206.775177 86.522026,206.959579 
	C94.115448,211.095383 95.802216,219.255157 99.449547,226.027176 
	C102.393524,231.493256 112.821602,235.244659 118.497108,232.494034 
	C120.461395,231.542053 122.547569,230.765228 124.000000,229.000000 
"/>
<path fill="none" opacity="1.000000" stroke="#000000" stroke-linecap="round" stroke-linejoin="round" stroke-width="3.000000"
	d="
M126.500000,316.000000 
	C128.772720,313.411591 132.154160,313.555328 135.022766,313.169098 
	C138.532532,312.696594 142.138565,312.969940 145.763245,310.957764 
	C146.608078,316.439178 146.918411,321.447937 147.045166,326.498871 
	C147.138885,330.233704 146.713440,333.847504 148.714157,337.650391 
	C150.051544,340.192444 148.979630,344.220551 148.417465,347.485779 
	C147.775604,351.213837 148.084412,354.833344 148.500000,358.500000 
"/>
<path fill="none" opacity="1.000000" stroke="#000000" stroke-linecap="round" stroke-linejoin="round" stroke-width="4.000000"
	d="
M159.000000,311.500000 
	C157.345490,313.769104 157.152939,316.116516 157.332458,319.010406 
	C157.723846,325.319672 157.531876,331.655762 156.651001,338.020905 
	C155.705414,344.853668 156.887955,351.758911 158.500000,358.500000 
"/>
<path fill="none" opacity="1.000000" stroke="#000000" stroke-linecap="round" stroke-linejoin="round" stroke-width="5.000000"
	d="
M126.500000,143.000000 
	C122.220337,141.437851 117.801079,141.664642 113.514061,142.566818 
	C107.124504,143.911423 102.799263,147.586029 101.996201,154.499557 
	C101.686134,157.168930 101.174759,159.825577 101.044037,162.502151 
	C100.909897,165.248749 101.660645,167.471054 103.218666,170.162842 
	C107.694885,177.896347 111.042755,186.244446 113.801407,194.903976 
	C115.728165,200.952148 115.680443,207.890015 120.451012,213.045334 
	C123.782990,216.646042 122.388077,223.031967 126.608032,225.837509 
	C130.623886,228.507324 134.957153,230.794266 138.996567,233.505112 
	C139.687561,233.968887 140.333328,234.500000 141.000000,235.000000 
"/>
<path fill="none" opacity="1.000000" stroke="#000000" stroke-linecap="round" stroke-linejoin="round" stroke-width="4.000000"
	d="
M178.000000,212.500000 
	C178.052856,215.320114 178.065659,217.947601 179.856216,220.597168 
	C181.415512,222.904480 181.047592,225.791412 178.537415,228.041748 
	C176.174408,230.160141 173.579285,231.908005 171.832184,234.902069 
	C169.955719,238.117813 166.445572,238.363571 162.992035,236.514877 
	C155.107559,232.294205 154.384079,228.129288 159.957993,220.967316 
	C163.964417,215.819427 168.974197,212.267838 175.000000,210.000000 
"/>
<path fill="none" opacity="1.000000" stroke="#000000" stroke-linecap="round" stroke-linejoin="round" stroke-width="5.000000"
	d="
M158.000000,43.500000 
	C159.575455,53.676838 162.859329,63.607349 164.435867,73.589104 
	C166.035080,83.714554 168.472916,93.754128 169.884720,103.946709 
	C170.756348,110.239517 171.757797,116.681366 172.909134,123.016510 
	C174.019501,129.126175 175.468689,135.212021 175.549866,141.499359 
	C175.584351,144.169891 176.166656,146.833328 176.499985,149.500000 
"/>
<path fill="none" opacity="1.000000" stroke="#000000" stroke-linecap="round" stroke-linejoin="round" stroke-width="5.000000"
	d="
M187.000000,214.500000 
	C189.563568,220.045639 193.946228,223.846390 199.003647,226.994125 
	C199.476212,227.288223 200.354355,227.407425 200.447433,227.763733 
	C202.139877,234.242416 208.469711,238.480469 209.000000,245.500000 
"/>
<path fill="none" opacity="1.000000" stroke="#000000" stroke-linecap="round" stroke-linejoin="round" stroke-width="4.000000"
	d="
M147.000000,205.500000 
	C154.779907,216.795380 147.389435,225.477356 141.990219,234.494141 
	C141.564423,235.205231 140.466644,235.946503 140.580444,236.482941 
	C142.157349,243.915375 135.653656,247.585541 132.916855,252.957642 
	C130.351990,257.992310 127.361427,262.785980 126.500000,268.500000 
"/>
<path fill="none" opacity="1.000000" stroke="#000000" stroke-linecap="round" stroke-linejoin="round" stroke-width="4.000000"
	d="
M112.000000,316.500000 
	C112.166664,324.000000 111.656128,331.607178 112.818291,338.949615 
	C113.314461,342.084412 112.639832,344.666656 112.500000,347.500000 
"/>
<path fill="none" opacity="1.000000" stroke="#000000" stroke-linecap="round" stroke-linejoin="round" stroke-width="6.000000"
	d="
M204.000000,105.000000 
	C197.044693,104.517273 190.602417,106.920532 183.986633,108.441879 
	C180.394913,109.267830 176.666672,109.499992 173.000000,109.999992 
"/>
<path fill="none" opacity="1.000000" stroke="#000000" stroke-linecap="round" stroke-linejoin="round" stroke-width="5.000000"
	d="
M147.000000,237.000000 
	C148.677994,238.891342 150.349838,240.662094 150.571426,243.494415 
	C150.821106,246.685928 154.335449,247.416519 155.925674,249.555267 
	C161.509613,257.065369 169.487625,261.494598 177.046295,266.429077 
	C180.135223,268.445618 183.323349,265.738403 186.500000,265.500000 
"/>
<path fill="none" opacity="1.000000" stroke="#000000" stroke-linecap="round" stroke-linejoin="round" stroke-width="4.000000"
	d="
M193.500000,69.000000 
	C184.166672,70.666664 174.833328,72.333336 165.500000,74.000000 
"/>
<path fill="none" opacity="1.000000" stroke="#000000" stroke-linecap="round" stroke-linejoin="round" stroke-width="3.000000"
	d="
M136.500000,239.000000 
	C129.166672,246.833344 121.833336,254.666672 114.500008,262.500000 
"/>
<path fill="none" opacity="1.000000" stroke="#000000" stroke-linecap="round" stroke-linejoin="round" stroke-width="3.000000"
	d="
M171.500000,202.500000 
	C165.666672,205.833328 159.817871,209.140182 154.015182,212.526016 
	C153.046326,213.091370 152.162781,213.655029 151.000000,213.500000 
"/>
<path fill="none" opacity="1.000000" stroke="#000000" stroke-linecap="round" stroke-linejoin="round" stroke-width="4.000000"
	d="
M107.500000,219.500000 
	C107.428642,224.918442 111.946938,227.902206 117.404259,225.299271 
	C119.399689,224.347534 121.809288,224.118576 123.500000,222.500000 
"/>
<path fill="none" opacity="1.000000" stroke="#000000" stroke-linecap="round" stroke-linejoin="round" stroke-width="3.000000"
	d="
M151.500000,318.500000 
	C151.377777,324.531494 152.021469,330.626801 150.000000,336.500000 
"/>
<path fill="none" opacity="1.000000" stroke="#000000" stroke-linecap="round" stroke-linejoin="round" stroke-width="3.000000"
	d="
M131.500000,209.500000 
	C131.833328,209.500000 132.166672,209.500000 132.500000,209.500000 
	C131.071823,215.422653 133.394196,221.657852 131.000000,227.500000 
"/>
<path fill="none" opacity="1.000000" stroke="#000000" stroke-linecap="round" stroke-linejoin="round" stroke-width="6.000000"
	d="
M179.000000,268.000000 
	C176.452240,272.411804 178.504349,276.993988 178.500000,281.500000 
"/>
<path fill="none" opacity="1.000000" stroke="#000000" stroke-linecap="round" stroke-linejoin="round" stroke-width="3.000000"
	d="
M99.500000,227.500000 
	C95.211479,229.451645 90.394386,229.024750 86.000000,230.500000 
"/>
<path fill="none" opacity="1.000000" stroke="#000000" stroke-linecap="round" stroke-linejoin="round" stroke-width="3.000000"
	d="
M207.500000,213.500000 
	C205.950684,218.142014 204.652527,222.909592 201.000000,226.500000 
"/>
<path fill="none" opacity="1.000000" stroke="#000000" stroke-linecap="round" stroke-linejoin="round" stroke-width="5.000000"
	d="
M181.000000,270.500000 
	C184.278061,273.310699 187.363770,276.390717 191.500000,278.000000 
"/>
<path fill="none" opacity="1.000000" stroke="#000000" stroke-linecap="round" stroke-linejoin="round" stroke-width="3.000000"
	d="
M176.500000,162.500000 
	C175.795074,166.063477 175.125107,169.649582 171.000000,171.000000 
"/>
<path fill="none" opacity="1.000000" stroke="#000000" stroke-linecap="round" stroke-linejoin="round" stroke-width="2.000000"
	d="
M155.500000,168.500000 
	C153.043411,167.970551 151.012405,170.420181 148.500000,169.500000 
"/>
</svg>