<svg version="1.1" id="Layer_1" xmlns="http://www.w3.org/2000/svg" xmlns:xlink="http://www.w3.org/1999/xlink" x="0px" y="0px"
	 width="100%" viewBox="0 0 294 384" enable-background="new 0 0 294 384" xml:space="preserve">
<path fill="none" opacity="1.000000" stroke="#000000" stroke-linecap="round" stroke-linejoin="round" stroke-width="6.000000"
	d="
M203.500000,194.000000 
	C204.575333,197.605499 205.935028,201.417068 209.069885,203.388885 
	C217.895767,208.940353 219.918228,218.119019 222.412598,227.024475 
	C223.466171,230.785980 223.589066,234.404449 221.724380,238.599731 
	C216.752502,249.785812 212.222946,261.195221 207.673264,272.569305 
	C204.992294,279.271667 200.384827,283.501709 194.431763,286.357788 
	C190.365234,288.308716 187.114548,290.960358 184.000000,294.000000 
"/>
<path fill="none" opacity="1.000000" stroke="#000000" stroke-linecap="round" stroke-linejoin="round" stroke-width="6.000000"
	d="
M90.500000,171.500000 
	C91.840553,174.000000 90.751068,176.623093 90.356453,178.975922 
	C89.346954,184.994980 89.639771,191.073257 87.277206,197.108521 
	C84.402351,204.452438 82.513184,212.578720 86.500610,220.499695 
	C87.394264,222.274918 85.971344,223.800217 85.979340,225.500092 
	C86.040138,238.428604 86.795158,250.997360 91.163574,263.616455 
	C95.935036,277.399811 102.263939,289.773315 111.990875,300.508270 
	C112.736435,301.331085 113.387199,301.759979 113.178001,303.521149 
	C111.734627,315.672638 110.935219,327.899292 109.000000,340.000000 
"/>
<path fill="none" opacity="1.000000" stroke="#000000" stroke-linecap="round" stroke-linejoin="round" stroke-width="6.000000"
	d="
M183.500000,243.500000 
	C183.333344,241.666672 182.935165,239.819672 183.042313,238.002502 
	C183.399841,231.939148 182.736404,230.640671 176.987991,229.043213 
	C171.945999,227.642075 166.691559,227.710419 161.498886,227.532394 
	C160.051682,227.482788 158.747574,227.784546 157.953796,229.478348 
	C155.582382,234.538605 153.147903,239.580917 150.466721,244.481796 
	C145.999374,252.647659 148.253342,260.632385 151.145859,268.446014 
	C151.947342,270.611084 152.308197,273.019379 153.544205,274.972015 
	C155.536713,278.119751 157.366684,281.086761 161.429993,282.678680 
	C168.839371,285.581512 174.685471,291.434601 181.948425,294.859375 
	C184.088318,295.868347 183.735703,298.736877 184.048676,300.993256 
	C185.412216,310.823456 182.823288,320.364807 181.825745,329.981934 
	C180.905121,338.857574 169.632339,344.223022 159.500000,341.500000 
"/>
<path fill="none" opacity="1.000000" stroke="#000000" stroke-linecap="round" stroke-linejoin="round" stroke-width="4.000000"
	d="
M207.500000,126.500000 
	C207.601715,129.799423 209.284882,132.668961 210.615082,135.444855 
	C216.465469,147.653732 215.428802,160.623398 215.500000,173.500000 
	C211.548477,178.971970 214.603653,187.388306 207.118942,191.706192 
	C203.236252,193.946091 198.813950,193.561218 196.719101,192.170074 
	C190.746368,188.203674 184.643204,189.559692 178.499878,189.518906 
	C168.119125,189.449997 168.118790,189.500000 171.500000,180.000000 
	C174.205276,172.399124 179.864334,170.662277 186.468063,175.543213 
	C187.759781,176.497955 188.884338,177.618378 190.500000,178.000000 
"/>
<path fill="none" opacity="1.000000" stroke="#000000" stroke-linecap="round" stroke-linejoin="round" stroke-width="4.000000"
	d="
M188.500000,147.500000 
	C188.703094,141.026642 184.653732,135.892899 182.966599,130.009583 
	C181.418945,124.612709 176.750397,121.038734 174.412430,116.040962 
	C173.794418,114.719887 172.372101,113.757118 170.511246,113.435005 
	C159.537766,111.535408 149.891586,113.318367 142.452164,122.461075 
	C140.819931,124.467018 139.611572,126.534439 139.000000,129.000000 
"/>
<path fill="none" opacity="1.000000" stroke="#000000" stroke-linecap="round" stroke-linejoin="round" stroke-width="3.000000"
	d="
M95.000000,158.000000 
	C97.430130,152.432693 102.990227,150.426605 107.653389,147.769165 
	C109.360542,146.796310 113.339355,147.447266 115.462830,149.537766 
	C124.442062,158.377518 134.052429,166.643799 139.655472,178.426071 
	C141.041412,181.340439 141.434006,184.025330 141.500000,187.000000 
"/>
<path fill="none" opacity="1.000000" stroke="#000000" stroke-linecap="round" stroke-linejoin="round" stroke-width="5.000000"
	d="
M166.000000,203.500000 
	C164.742310,210.634430 161.346664,214.030045 154.500000,214.999985 
	C148.735931,215.816559 147.719299,215.288040 144.552734,208.973557 
	C143.775345,207.423325 143.218216,205.786179 142.000000,204.500000 
"/>
<path fill="none" opacity="1.000000" stroke="#000000" stroke-linecap="round" stroke-linejoin="round" stroke-width="4.000000"
	d="
M153.000000,194.500000 
	C150.631271,191.182281 151.337326,187.110031 150.740677,183.460648 
	C150.118423,179.654541 153.065506,177.087494 156.990280,175.965988 
	C164.532822,173.810745 164.170456,173.618561 162.105347,165.971542 
	C158.914078,154.154449 152.650284,144.379105 143.960876,136.040756 
	C141.063828,133.260742 138.834106,129.979980 135.700790,127.268021 
	C129.492645,121.894676 123.921700,122.981468 117.469215,125.932701 
	C111.102570,128.844666 105.836540,140.028763 108.000000,147.000000 
"/>
<path fill="none" opacity="1.000000" stroke="#000000" stroke-linecap="round" stroke-linejoin="round" stroke-width="2.000000"
	d="
M161.500000,299.500000 
	C161.500000,307.333344 161.428772,315.167633 161.537354,322.999481 
	C161.577164,325.870941 161.064804,328.410492 159.000000,330.500000 
"/>
<path fill="none" opacity="1.000000" stroke="#000000" stroke-linecap="round" stroke-linejoin="round" stroke-width="6.000000"
	d="
M107.500000,339.750000 
	C118.171043,345.267700 129.400177,349.041443 141.497620,348.849762 
	C146.012329,348.778198 150.566666,347.222504 154.970917,345.902924 
	C157.066086,345.275177 159.196625,343.492432 158.916855,341.009369 
	C158.128601,334.013336 156.852432,327.095703 152.000000,321.500000 
"/>
<path fill="none" opacity="1.000000" stroke="#000000" stroke-linecap="round" stroke-linejoin="round" stroke-width="8.000000"
	d="
M146.500000,301.500000 
	C148.737457,305.591675 146.298111,310.367035 148.454422,314.523651 
	C149.390747,316.328552 149.829544,318.391541 150.517944,320.406494 
	C144.615677,328.538483 148.556534,337.690552 148.500000,346.500000 
"/>
<path fill="none" opacity="1.000000" stroke="#000000" stroke-linecap="round" stroke-linejoin="round" stroke-width="3.000000"
	d="
M205.500000,125.500000 
	C204.780106,122.293198 201.896790,121.422836 199.484375,121.127747 
	C193.251053,120.365311 186.851929,119.422028 181.000000,123.000000 
"/>
<path fill="none" opacity="1.000000" stroke="#000000" stroke-linecap="round" stroke-linejoin="round" stroke-width="5.000000"
	d="
M105.250000,186.000000 
	C105.666664,186.000000 106.251274,185.818619 106.475616,186.026337 
	C113.410934,192.447632 120.782288,198.195755 128.904724,203.156006 
	C134.577850,206.620514 134.808121,207.246414 140.500000,202.500000 
"/>
<path fill="none" opacity="1.000000" stroke="#000000" stroke-linecap="round" stroke-linejoin="round" stroke-width="5.000000"
	d="
M192.000000,166.500000 
	C191.411880,173.994125 193.104752,181.640320 190.500000,189.000000 
"/>
<path fill="none" opacity="1.000000" stroke="#000000" stroke-linecap="round" stroke-linejoin="round" stroke-width="11.000000"
	d="
M152.750000,294.000000 
	C151.826126,298.485565 148.386642,300.275970 144.482666,300.889740 
	C141.629440,301.338379 138.803497,301.811615 135.968262,302.324493 
	C131.420013,303.147247 126.785393,304.731232 121.949295,302.615936 
	C119.575188,301.577454 116.666664,301.441742 114.000000,302.500000 
"/>
<path fill="none" opacity="1.000000" stroke="#000000" stroke-linecap="round" stroke-linejoin="round" stroke-width="6.000000"
	d="
M132.000000,226.500000 
	C134.608002,221.240097 137.238647,219.878983 141.994125,221.517059 
	C145.981644,222.890610 149.706985,224.956482 153.988007,225.582062 
	C155.589828,225.816147 157.047729,226.991928 158.000000,228.500000 
"/>
<path fill="none" opacity="1.000000" stroke="#000000" stroke-linecap="round" stroke-linejoin="round" stroke-width="6.000000"
	d="
M141.500000,202.000000 
	C143.657990,200.324402 145.815979,198.648804 147.973969,196.973206 
	C147.698898,196.624969 147.423813,196.276733 147.148743,195.928497 
	C146.599167,194.785660 145.616928,193.656158 145.581253,192.497498 
	C145.475052,189.046616 143.186462,187.026123 140.525787,187.275345 
	C138.644547,187.451569 135.153793,187.554504 134.602692,190.519089 
	C134.105972,193.190903 133.202362,196.249863 135.990723,198.511429 
	C136.719009,199.102127 137.333344,199.833328 138.000000,200.500000 
"/>
<path fill="none" opacity="1.000000" stroke="#000000" stroke-linecap="round" stroke-linejoin="round" stroke-width="3.000000"
	d="
M105.000000,216.000000 
	C99.342239,218.391983 93.583374,220.462250 87.500000,221.500000 
"/>
<path fill="none" opacity="1.000000" stroke="#000000" stroke-linecap="round" stroke-linejoin="round" stroke-width="4.000000"
	d="
M155.000000,300.500000 
	C157.300949,306.321625 157.908981,312.043671 154.000000,317.500000 
"/>
<path fill="none" opacity="1.000000" stroke="#000000" stroke-linecap="round" stroke-linejoin="round" stroke-width="3.000000"
	d="
M190.500000,149.500000 
	C191.420975,154.139725 190.840698,158.833069 191.000000,163.500000 
"/>
<path fill="none" opacity="1.000000" stroke="#000000" stroke-linecap="round" stroke-linejoin="round" stroke-width="5.000000"
	d="
M136.500000,206.500000 
	C138.315063,210.818192 138.153702,215.502396 139.000000,220.000000 
"/>
<path fill="none" opacity="1.000000" stroke="#000000" stroke-linecap="round" stroke-linejoin="round" stroke-width="4.000000"
	d="
M103.000000,188.000000 
	C99.290321,190.226883 95.120712,190.246078 91.000000,190.500000 
"/>
<path fill="none" opacity="1.000000" stroke="#000000" stroke-linecap="round" stroke-linejoin="round" stroke-width="3.000000"
	d="
M157.500000,156.500000 
	C153.500000,157.666672 149.500000,158.833328 145.500000,160.000000 
"/>
<path fill="none" opacity="1.000000" stroke="#000000" stroke-linecap="round" stroke-linejoin="round" stroke-width="4.000000"
	d="
M184.000000,235.500000 
	C187.833328,237.333328 191.666672,239.166672 195.500000,241.000000 
"/>
<path fill="none" opacity="1.000000" stroke="#000000" stroke-linecap="round" stroke-linejoin="round" stroke-width="3.000000"
	d="
M194.500000,228.500000 
	C190.670395,229.514267 186.446640,229.017700 183.000000,231.500000 
"/>
<path fill="none" opacity="1.000000" stroke="#000000" stroke-linecap="round" stroke-linejoin="round" stroke-width="5.000000"
	d="
M212.500000,179.000000 
	C210.111633,177.799377 209.857910,174.296005 206.508911,173.920532 
	C202.745300,173.498535 199.213852,172.654099 196.907181,176.950165 
	C196.368271,177.953873 194.666656,178.333328 193.500000,178.999985 
"/>
<path fill="none" opacity="1.000000" stroke="#000000" stroke-linecap="round" stroke-linejoin="round" stroke-width="3.000000"
	d="
M130.500000,205.500000 
	C127.205101,207.855682 123.531998,209.171326 119.500000,209.500000 
"/>
<path fill="none" opacity="1.000000" stroke="#000000" stroke-linecap="round" stroke-linejoin="round" stroke-width="3.000000"
	d="
M179.500000,152.500000 
	C176.166672,153.500000 172.833328,154.500000 169.500000,155.500000 
"/>
<path fill="none" opacity="1.000000" stroke="#000000" stroke-linecap="round" stroke-linejoin="round" stroke-width="4.000000"
	d="
M190.000000,190.000000 
	C189.856003,193.183014 191.205215,196.287445 190.500000,199.500000 
"/>
<path fill="none" opacity="1.000000" stroke="#000000" stroke-linecap="round" stroke-linejoin="round" stroke-width="4.000000"
	d="
M97.500000,174.500000 
	C97.379501,178.797836 100.676857,181.116913 103.000000,184.000000 
"/>
<path fill="none" opacity="1.000000" stroke="#000000" stroke-linecap="round" stroke-linejoin="round" stroke-width="5.000000"
	d="
M162.500000,175.000000 
	C165.912491,177.672821 164.880341,182.673798 168.000000,185.500000 
"/>
<path fill="none" opacity="1.000000" stroke="#000000" stroke-linecap="round" stroke-linejoin="round" stroke-width="3.000000"
	d="
M162.000000,197.500000 
	C163.000000,199.333344 164.000000,201.166672 165.000000,203.000000 
"/>
</svg>