<svg version="1.1" id="Layer_1" xmlns="http://www.w3.org/2000/svg" xmlns:xlink="http://www.w3.org/1999/xlink" x="0px" y="0px"
	 width="100%" viewBox="0 0 336 384" enable-background="new 0 0 336 384" xml:space="preserve">
<path fill="none" opacity="1.000000" stroke="#000000" stroke-linecap="round" stroke-linejoin="round" stroke-width="5.000000"
	d="
M199.500000,133.500000 
	C202.012665,127.422806 207.069595,126.075302 212.999283,125.962486 
	C221.272919,125.805061 229.149490,126.439964 233.981903,134.510834 
	C236.563492,138.822510 238.875687,143.167679 236.551468,148.522339 
	C234.915726,152.290817 235.405365,155.805908 238.976562,158.530716 
	C240.428146,159.638275 241.771790,161.039703 241.983871,163.001740 
	C243.160324,173.885117 247.917191,183.841980 250.052734,194.489426 
	C252.075500,204.574600 251.192352,213.874512 245.054703,222.538742 
	C239.229034,230.762558 235.803482,240.303238 232.157822,249.562134 
	C226.854660,263.030670 219.064758,274.317017 207.507660,283.010193 
	C206.948135,283.431061 206.500000,284.000000 206.000000,284.500000 
"/>
<path fill="none" opacity="1.000000" stroke="#000000" stroke-linecap="round" stroke-linejoin="round" stroke-width="6.000000"
	d="
M166.000000,135.500000 
	C159.910034,130.356918 152.752869,130.362411 145.511368,131.568222 
	C141.496933,132.236694 139.611420,135.353485 137.891541,138.948105 
	C134.817123,145.373795 136.353806,152.537430 133.598648,159.278854 
	C123.152954,159.497162 115.470917,166.677444 107.093559,172.143402 
	C103.455833,174.516876 104.917412,179.287872 105.098763,182.995163 
	C105.329727,187.716537 105.253571,192.655258 107.578903,196.957352 
	C108.790733,199.199387 107.445946,200.998703 107.455528,203.000214 
	C107.514984,215.416550 109.104652,227.693344 110.335266,240.016449 
	C110.732445,243.993774 111.464317,247.950516 111.593895,251.996994 
	C111.927437,262.413055 115.021545,272.093475 120.484619,281.009430 
	C122.535881,284.357147 123.958961,287.556702 123.732513,292.011810 
	C123.183708,302.808807 123.405029,313.696533 124.157776,324.488983 
	C124.622528,331.152313 125.333908,331.580017 131.454987,333.172943 
	C140.409042,335.503082 149.467621,337.772858 157.964066,341.580200 
	C160.038757,342.509888 161.666672,341.068420 163.500000,341.500000 
"/>
<path fill="none" opacity="1.000000" stroke="#000000" stroke-linecap="round" stroke-linejoin="round" stroke-width="4.000000"
	d="
M97.500000,144.000000 
	C101.000000,141.500000 104.366928,138.777740 108.045189,136.575485 
	C110.645065,135.018875 113.651962,134.129120 116.504745,133.012115 
	C118.713295,132.147324 119.351677,130.594879 118.476334,128.509933 
	C117.409195,125.968147 116.801010,122.733765 114.880753,121.144043 
	C109.178795,116.423546 109.523567,109.520081 107.550499,103.483490 
	C105.748871,97.971382 104.631691,92.264488 102.064537,86.968712 
	C100.044121,82.800797 96.423180,81.114632 92.503036,81.180550 
	C88.228584,81.252411 84.346542,86.467079 83.443062,90.988625 
	C82.467232,95.872231 83.575226,100.666664 83.500000,105.500000 
"/>
<path fill="none" opacity="1.000000" stroke="#000000" stroke-linecap="round" stroke-linejoin="round" stroke-width="6.000000"
	d="
M192.500000,133.000000 
	C191.268768,128.690689 187.974472,127.786713 184.004715,127.445251 
	C176.861862,126.830856 171.372742,129.609192 167.041092,135.032822 
	C166.569824,135.622879 166.447479,136.689972 166.533203,137.496475 
	C167.649841,148.001785 168.721344,158.514008 170.032867,168.995895 
	C171.239243,178.637360 172.570160,188.215881 171.657272,198.014648 
	C171.394424,200.836151 172.965088,203.829453 174.467896,206.517944 
	C176.323822,209.838150 176.231323,212.876938 172.501968,215.003448 
	C168.636734,217.207428 166.921875,220.657944 166.459274,224.995651 
	C166.106247,228.305847 164.191162,231.085556 162.736313,233.993149 
	C158.935791,241.588760 159.626465,248.946701 164.057510,255.963684 
	C165.418655,258.119202 166.238510,260.512573 167.914597,262.569580 
	C171.747070,267.273132 170.576477,273.852203 173.402740,279.052856 
	C173.638367,279.486420 172.500000,280.666656 172.000000,281.500000 
"/>
<path fill="none" opacity="1.000000" stroke="#000000" stroke-linecap="round" stroke-linejoin="round" stroke-width="4.000000"
	d="
M172.000000,284.500000 
	C173.832947,286.111237 174.057587,288.250427 174.003860,290.500092 
	C173.745255,301.333221 173.605225,312.171234 173.134506,322.994965 
	C173.065323,324.585785 172.906143,326.514740 173.613510,327.410339 
	C176.851578,331.510315 175.498703,336.586761 177.185272,340.826782 
	C171.330948,346.299744 165.318497,346.445343 163.735687,340.932343 
	C163.049057,338.540741 161.927963,334.916718 164.987579,332.484375 
	C166.957489,330.918335 166.744293,328.686066 166.500000,326.500000 
"/>
<path fill="none" opacity="1.000000" stroke="#000000" stroke-linecap="round" stroke-linejoin="round" stroke-width="11.000000"
	d="
M171.250000,282.500000 
	C164.106979,286.993591 155.793900,288.317871 147.962433,290.885437 
	C143.353210,292.396545 138.546478,291.668732 133.972687,289.559235 
	C131.008789,288.192169 128.034180,286.436798 124.500000,287.000000 
"/>
<path fill="none" opacity="1.000000" stroke="#000000" stroke-linecap="round" stroke-linejoin="round" stroke-width="5.000000"
	d="
M235.000000,151.000000 
	C229.098709,150.971390 223.918411,148.296707 218.504547,146.486389 
	C217.804672,146.252350 217.165741,145.542465 216.500137,145.544586 
	C209.121811,145.568161 204.954391,140.776215 200.960464,135.530090 
	C199.345169,133.408371 193.744278,132.708084 191.500000,133.999985 
	C183.883881,138.384125 180.150131,152.174118 185.458389,159.530029 
	C190.815887,166.954208 196.166473,174.435654 202.638550,180.860428 
	C206.144913,184.341125 211.204681,185.847931 216.500000,184.500000 
"/>
<path fill="none" opacity="1.000000" stroke="#000000" stroke-linecap="round" stroke-linejoin="round" stroke-width="4.000000"
	d="
M163.000000,288.000000 
	C164.249802,290.769623 163.992172,293.426086 163.803131,296.518524 
	C163.130798,307.517761 160.424164,318.391785 161.476883,329.502197 
	C161.596222,330.761719 162.122391,331.688812 163.000000,332.500000 
"/>
<path fill="none" opacity="1.000000" stroke="#000000" stroke-linecap="round" stroke-linejoin="round" stroke-width="7.000000"
	d="
M180.500000,302.500000 
	C181.866592,297.254150 180.508728,291.667755 182.950256,286.056885 
	C186.470139,285.761078 190.511078,285.878387 194.526825,285.147339 
	C200.707748,284.022156 204.501953,287.707916 204.477036,293.999908 
	C204.451584,300.426270 204.952911,306.930145 202.053360,313.025391 
	C201.665436,313.840851 201.623123,315.220367 202.058853,315.965576 
	C205.997162,322.700775 201.762283,327.605835 197.859146,331.871124 
	C193.983566,336.106293 189.537430,339.900970 183.576324,341.746552 
	C181.115784,342.508331 179.500000,341.917450 177.500000,341.500000 
"/>
<path fill="none" opacity="1.000000" stroke="#000000" stroke-linecap="round" stroke-linejoin="round" stroke-width="5.000000"
	d="
M85.500000,109.500000 
	C86.173073,114.119576 87.938644,118.339149 89.949158,122.524422 
	C91.594269,125.949051 89.838669,129.871613 91.381584,133.549667 
	C92.946922,137.281204 94.153450,141.032059 96.214058,144.662308 
	C98.114487,148.010391 98.040260,152.622269 99.513527,156.494858 
	C101.584930,161.939728 103.265968,167.560730 106.500000,172.500000 
"/>
<path fill="none" opacity="1.000000" stroke="#000000" stroke-linecap="round" stroke-linejoin="round" stroke-width="4.000000"
	d="
M118.500000,133.000000 
	C122.059174,137.367188 121.850021,143.125793 124.037827,147.982956 
	C125.691666,151.654678 126.548721,155.689972 129.000000,159.000000 
"/>
<path fill="none" opacity="1.000000" stroke="#000000" stroke-linecap="round" stroke-linejoin="round" stroke-width="3.000000"
	d="
M158.000015,218.000000 
	C153.333344,226.500000 148.666687,235.000000 144.000015,243.500000 
"/>
<path fill="none" opacity="1.000000" stroke="#000000" stroke-linecap="round" stroke-linejoin="round" stroke-width="4.000000"
	d="
M194.500000,285.500000 
	C192.479385,292.052612 194.196381,298.878265 193.055984,305.509644 
	C192.790329,307.054565 193.803421,308.431610 195.000000,309.500000 
"/>
<path fill="none" opacity="1.000000" stroke="#000000" stroke-linecap="round" stroke-linejoin="round" stroke-width="4.000000"
	d="
M179.000000,306.500000 
	C180.260452,314.334229 179.015182,321.950592 177.000000,329.500000 
"/>
<path fill="none" opacity="1.000000" stroke="#000000" stroke-linecap="round" stroke-linejoin="round" stroke-width="4.000000"
	d="
M171.500000,268.000000 
	C172.333328,268.333344 173.460251,268.428680 173.953781,269.037476 
	C178.080078,274.127380 183.868393,276.675415 189.481079,279.537109 
	C190.611984,280.113708 191.500000,281.166656 192.500000,282.000000 
"/>
<path fill="none" opacity="1.000000" stroke="#000000" stroke-linecap="round" stroke-linejoin="round" stroke-width="6.000000"
	d="
M170.500000,198.500000 
	C168.833328,198.500000 167.159760,198.401321 165.501236,198.517624 
	C159.370178,198.947556 158.066528,200.170883 156.457855,206.489273 
	C156.268021,207.234909 155.500000,207.833328 155.000000,208.500000 
"/>
<path fill="none" opacity="1.000000" stroke="#000000" stroke-linecap="round" stroke-linejoin="round" stroke-width="5.000000"
	d="
M208.000000,144.500000 
	C206.500000,146.500000 204.972977,148.480392 203.505249,150.503799 
	C199.622604,155.856384 199.080017,156.007339 192.991684,153.520370 
	C192.219162,153.204819 191.333328,153.166656 190.500000,153.000000 
"/>
<path fill="none" opacity="1.000000" stroke="#000000" stroke-linecap="round" stroke-linejoin="round" stroke-width="6.000000"
	d="
M204.000000,183.500000 
	C200.505356,189.942062 198.970505,196.531128 202.500000,203.500000 
"/>
<path fill="none" opacity="1.000000" stroke="#000000" stroke-linecap="round" stroke-linejoin="round" stroke-width="3.000000"
	d="
M110.000000,116.000000 
	C103.993187,119.169090 96.909538,119.307091 91.000000,122.750000 
"/>
<path fill="none" opacity="1.000000" stroke="#000000" stroke-linecap="round" stroke-linejoin="round" stroke-width="5.000000"
	d="
M129.000000,161.000000 
	C129.110474,165.111343 130.933487,168.581757 132.935501,172.037369 
	C133.386429,172.815720 133.750397,173.727478 134.512466,173.958954 
	C143.065826,176.557159 143.166321,184.328979 144.979370,191.005600 
	C146.717850,197.407547 147.903122,204.000626 152.000000,209.500000 
"/>
<path fill="none" opacity="1.000000" stroke="#000000" stroke-linecap="round" stroke-linejoin="round" stroke-width="5.000000"
	d="
M198.000000,177.000000 
	C193.582886,179.206787 189.247223,181.531799 183.992584,181.087769 
	C182.627762,180.972443 182.053146,180.466980 181.500000,179.500000 
"/>
<path fill="none" opacity="1.000000" stroke="#000000" stroke-linecap="round" stroke-linejoin="round" stroke-width="3.000000"
	d="
M212.500000,186.000000 
	C212.136292,189.566391 214.288391,192.854431 213.550446,196.510178 
	C213.129395,198.596039 215.512619,198.487137 216.501953,199.498093 
	C220.408951,203.490524 224.990509,206.308273 230.500000,207.500000 
"/>
<path fill="none" opacity="1.000000" stroke="#000000" stroke-linecap="round" stroke-linejoin="round" stroke-width="3.000000"
	d="
M124.999992,194.000000 
	C124.499992,194.333328 123.932213,195.025360 123.510262,194.945633 
	C118.113731,193.925949 113.683601,196.713013 109.000000,198.500000 
"/>
<path fill="none" opacity="1.000000" stroke="#000000" stroke-linecap="round" stroke-linejoin="round" stroke-width="2.000000"
	d="
M151.500000,213.000000 
	C146.509705,215.799988 141.876236,218.972305 139.500000,224.500000 
"/>
<path fill="none" opacity="1.000000" stroke="#000000" stroke-linecap="round" stroke-linejoin="round" stroke-width="5.000000"
	d="
M128.500000,192.500000 
	C133.590652,194.011444 138.897308,192.175110 144.000000,193.500000 
"/>
<path fill="none" opacity="1.000000" stroke="#000000" stroke-linecap="round" stroke-linejoin="round" stroke-width="7.000000"
	d="
M175.500000,213.500000 
	C180.000412,217.617218 185.555878,217.231216 190.997101,216.945023 
	C193.940491,216.790207 195.477219,214.111221 196.343201,211.937531 
	C197.498245,209.038315 200.106522,207.540634 201.552338,205.030151 
	C201.999466,204.253738 202.670013,203.204315 204.000931,203.495728 
	C208.562164,204.494461 210.793335,201.040680 213.500000,198.500000 
"/>
<path fill="none" opacity="1.000000" stroke="#000000" stroke-linecap="round" stroke-linejoin="round" stroke-width="4.000000"
	d="
M135.000000,160.500000 
	C138.459198,164.559280 140.861633,168.920486 139.000000,174.500000 
"/>
<path fill="none" opacity="1.000000" stroke="#000000" stroke-linecap="round" stroke-linejoin="round" stroke-width="6.000000"
	d="
M190.500000,202.000000 
	C190.000000,202.166672 189.380020,202.612869 189.018204,202.457581 
	C184.422729,200.485184 181.392227,203.010010 178.500000,206.000000 
"/>
<path fill="none" opacity="1.000000" stroke="#000000" stroke-linecap="round" stroke-linejoin="round" stroke-width="3.000000"
	d="
M191.500000,217.500000 
	C191.538620,219.561996 191.668915,221.639267 190.500000,223.500000 
"/>
</svg>