<svg version="1.1" id="Layer_1" xmlns="http://www.w3.org/2000/svg" xmlns:xlink="http://www.w3.org/1999/xlink" x="0px" y="0px"
	 width="100%" viewBox="0 0 336 384" enable-background="new 0 0 336 384" xml:space="preserve">
<path fill="none" opacity="1.000000" stroke="#000000" stroke-linecap="round" stroke-linejoin="round" stroke-width="5.000000"
	d="
M200.000000,110.000000 
	C199.357056,115.235771 197.128983,120.106308 196.910965,125.496399 
	C196.579880,133.682037 199.886673,140.598282 203.506577,147.496552 
	C205.813843,151.893356 209.048340,155.924149 207.643860,161.536011 
	C207.383148,162.577744 208.279510,164.288315 209.397842,165.587906 
	C211.026123,167.480103 212.135651,169.805283 212.580612,172.486618 
	C213.223953,176.363510 214.842682,179.782639 218.466202,182.053909 
	C221.097260,183.703079 222.467392,186.490799 222.960770,189.506424 
	C223.656372,193.757980 225.373199,197.838043 225.829239,202.018631 
	C226.494034,208.112778 226.633453,214.417404 225.829132,220.477325 
	C224.953140,227.077194 225.616577,233.476028 225.742264,240.004959 
	C226.008545,253.837341 228.669479,267.992645 223.387375,281.455811 
	C221.687439,285.788696 219.757996,290.146606 216.110260,293.615936 
	C213.493729,296.104462 211.474060,299.341553 209.355301,302.399750 
	C205.599915,307.820190 208.973007,313.553711 207.638855,319.033813 
	C206.872757,322.180634 207.500000,325.666656 207.500000,329.000000 
	C207.500000,339.550720 199.589218,348.459656 189.021393,350.605408 
	C184.330505,351.557861 179.409851,353.257446 174.970306,353.550995 
	C167.786407,354.026031 160.402435,355.902252 152.936859,353.172699 
	C146.242828,350.725189 139.524445,348.400574 132.958694,345.596741 
	C131.070236,344.790314 129.751038,343.918976 129.532135,341.996338 
	C128.622299,334.005035 127.836205,325.999695 126.997887,318.000214 
	C126.800697,316.118591 128.094315,314.694946 128.500000,313.000000 
"/>
<path fill="none" opacity="1.000000" stroke="#000000" stroke-linecap="round" stroke-linejoin="round" stroke-width="6.000000"
	d="
M223.000000,182.500000 
	C227.313934,178.102524 225.976410,172.225006 226.939606,166.988892 
	C228.973297,155.933487 228.903046,144.624023 229.117661,133.492630 
	C229.261154,126.050606 231.480545,119.203957 232.309402,112.035774 
	C233.336182,103.155991 233.466156,94.347420 233.443542,85.500145 
	C233.419281,76.001396 234.147781,66.476891 232.982986,57.002090 
	C231.979645,48.840511 227.960953,44.578480 220.500000,43.499996 
	C215.020767,42.707973 210.555252,46.102398 209.464645,51.492847 
	C207.623917,60.590832 207.267059,69.761108 207.479874,79.000465 
	C207.689606,88.106354 204.784622,96.716904 202.940323,105.487450 
	C202.710709,106.579361 201.666672,107.500008 201.000000,108.500008 
"/>
<path fill="none" opacity="1.000000" stroke="#000000" stroke-linecap="round" stroke-linejoin="round" stroke-width="4.000000"
	d="
M102.500000,228.500000 
	C102.352631,238.422287 105.166595,247.881851 106.960739,257.507324 
	C108.009499,263.133820 108.938087,268.809357 109.441689,274.505157 
	C110.396004,285.298492 114.230728,295.018158 120.059975,303.960907 
	C123.154877,308.708801 126.536896,313.108612 133.513199,312.780975 
	C135.468536,312.689117 139.298340,312.570007 140.500000,316.000000 
"/>
<path fill="none" opacity="1.000000" stroke="#000000" stroke-linecap="round" stroke-linejoin="round" stroke-width="5.000000"
	d="
M146.000000,132.500000 
	C142.107452,133.663071 138.203201,134.198517 134.370499,136.259140 
	C127.688759,139.851532 126.725983,146.182663 125.162674,152.043396 
	C123.002159,160.143051 121.999123,168.546616 123.500000,177.000000 
"/>
<path fill="none" opacity="1.000000" stroke="#000000" stroke-linecap="round" stroke-linejoin="round" stroke-width="4.000000"
	d="
M173.500000,293.500000 
	C174.952957,299.074158 175.520340,304.746399 175.510193,310.500031 
	C175.485718,324.383087 175.301331,338.279022 178.000000,352.000000 
"/>
<path fill="none" opacity="1.000000" stroke="#000000" stroke-linecap="round" stroke-linejoin="round" stroke-width="5.000000"
	d="
M129.500000,167.500000 
	C129.817184,170.832001 130.748322,173.664429 133.966812,175.556458 
	C138.299896,178.103714 140.868301,182.439240 143.436279,186.539902 
	C147.833755,193.562042 152.005707,200.741806 155.890320,208.058228 
	C156.992218,210.133606 158.296875,212.053436 159.577301,213.947754 
	C161.775467,217.199738 166.022232,219.504791 163.154648,224.587250 
	C162.835251,225.153305 163.988693,227.322037 164.629562,228.424698 
	C167.123795,232.716309 165.876740,236.663254 163.392166,239.917679 
	C159.425980,245.112839 159.599014,250.683945 160.522675,256.496399 
	C161.599442,263.272339 163.544449,269.877045 167.637314,275.398193 
	C169.472076,277.873260 168.839935,280.093811 169.000000,282.500000 
"/>
<path fill="none" opacity="1.000000" stroke="#000000" stroke-linecap="round" stroke-linejoin="round" stroke-width="6.000000"
	d="
M148.500000,114.000000 
	C155.290817,112.817978 162.099823,111.633881 169.000595,111.547585 
	C175.852554,111.461884 177.933304,114.251999 177.037598,121.004990 
	C175.991318,128.893234 173.641327,136.525620 172.897766,144.490463 
	C172.367706,150.168289 171.820770,155.611343 175.500000,160.500000 
"/>
<path fill="none" opacity="1.000000" stroke="#000000" stroke-linecap="round" stroke-linejoin="round" stroke-width="4.000000"
	d="
M168.500000,57.500000 
	C169.333649,64.357674 169.953217,71.210083 171.214676,78.052597 
	C172.353378,84.229332 174.292923,90.539284 173.450516,96.993538 
	C173.060211,99.983940 174.394440,102.632248 174.694977,105.479416 
	C174.945389,107.851761 174.671921,109.872200 174.000000,112.000000 
"/>
<path fill="none" opacity="1.000000" stroke="#000000" stroke-linecap="round" stroke-linejoin="round" stroke-width="8.000000"
	d="
M164.000000,306.500000 
	C167.932999,310.960297 168.440750,316.435638 168.483063,322.000122 
	C168.547653,330.499634 168.485779,339.000031 168.512161,347.499969 
	C168.517365,349.174591 168.198730,350.896790 169.000000,352.500000 
"/>
<path fill="none" opacity="1.000000" stroke="#000000" stroke-linecap="round" stroke-linejoin="round" stroke-width="5.000000"
	d="
M131.750000,174.500000 
	C126.000969,176.598038 120.601822,179.151306 116.430794,183.939713 
	C114.687935,185.940552 112.295464,187.260666 109.535683,188.115234 
	C105.848068,189.257141 104.027565,192.448868 102.415123,195.961029 
	C98.374268,204.762756 99.072594,213.562485 101.500000,222.500000 
"/>
<path fill="none" opacity="1.000000" stroke="#000000" stroke-linecap="round" stroke-linejoin="round" stroke-width="5.000000"
	d="
M144.500000,53.500000 
	C144.533691,60.924202 145.533920,68.241776 147.018753,75.496162 
	C147.551651,78.099777 145.221344,79.831612 145.380554,82.507111 
	C145.796997,89.504852 145.248505,96.516251 144.528015,103.502892 
	C144.191574,106.765381 145.683487,109.679092 147.099014,112.449409 
	C147.631485,113.491501 148.557968,114.446411 147.955048,115.473610 
	C145.063934,120.399117 147.400009,125.918274 146.042282,131.011276 
	C145.627380,132.567596 147.278931,133.360641 147.961151,134.522812 
	C152.837921,142.830444 158.587555,150.615387 162.552826,159.476364 
	C164.640533,164.141632 166.034714,164.433334 172.500000,163.000000 
	C178.096283,169.065994 179.701263,177.893356 176.500000,185.000000 
"/>
<path fill="none" opacity="1.000000" stroke="#000000" stroke-linecap="round" stroke-linejoin="round" stroke-width="5.000000"
	d="
M106.500000,205.000000 
	C110.572960,206.280914 114.983231,204.863220 118.995567,206.510803 
	C125.122200,209.026566 128.591370,214.328018 131.931595,219.543808 
	C135.166687,224.595383 138.864319,229.273819 142.538910,233.969559 
	C147.054474,239.739944 153.823715,241.352570 160.500000,243.000000 
"/>
<path fill="none" opacity="1.000000" stroke="#000000" stroke-linecap="round" stroke-linejoin="round" stroke-width="7.000000"
	d="
M176.000000,200.500000 
	C177.167221,203.559113 177.190933,206.831696 177.806000,209.989090 
	C179.081955,216.539169 175.979553,219.373611 170.498199,220.993896 
	C168.676254,221.532471 166.833328,221.999985 165.000000,222.499985 
"/>
<path fill="none" opacity="1.000000" stroke="#000000" stroke-linecap="round" stroke-linejoin="round" stroke-width="10.000000"
	d="
M163.250000,302.500000 
	C156.493927,308.068359 149.400085,312.996338 140.500000,314.500000 
"/>
<path fill="none" opacity="1.000000" stroke="#000000" stroke-linecap="round" stroke-linejoin="round" stroke-width="3.000000"
	d="
M155.500000,29.000000 
	C152.615448,29.209774 149.790237,28.722656 146.935013,30.388618 
	C143.218048,32.557388 140.425446,34.607677 141.922241,39.523674 
	C142.279633,40.697441 141.666672,42.166668 141.500000,43.500000 
"/>
<path fill="none" opacity="1.000000" stroke="#000000" stroke-linecap="round" stroke-linejoin="round" stroke-width="11.000000"
	d="
M206.500000,307.500000 
	C199.529343,302.930450 191.670181,304.072632 184.000000,304.000000 
"/>
<path fill="none" opacity="1.000000" stroke="#000000" stroke-linecap="round" stroke-linejoin="round" stroke-width="5.000000"
	d="
M167.000000,164.500000 
	C167.451263,171.016251 168.484650,177.665390 173.161499,182.338364 
	C176.639603,185.813644 177.145126,189.968384 178.439682,194.019272 
	C179.493683,197.317490 177.509109,199.674789 174.002197,200.022125 
	C172.668060,200.154266 171.385956,199.964600 169.971313,200.408630 
	C164.150131,202.235840 163.583817,202.752640 163.501938,208.500031 
	C163.476120,210.312485 163.810745,212.226562 162.000000,213.500000 
"/>
<path fill="none" opacity="1.000000" stroke="#000000" stroke-linecap="round" stroke-linejoin="round" stroke-width="4.000000"
	d="
M198.500000,109.000000 
	C192.251434,105.076271 188.072693,107.156197 181.016205,112.023499 
	C179.665390,112.955238 179.279922,114.946587 177.500000,115.500000 
"/>
<path fill="none" opacity="1.000000" stroke="#000000" stroke-linecap="round" stroke-linejoin="round" stroke-width="4.000000"
	d="
M168.500000,73.500000 
	C161.801041,75.418221 154.792709,75.222427 148.000000,76.500000 
"/>
<path fill="none" opacity="1.000000" stroke="#000000" stroke-linecap="round" stroke-linejoin="round" stroke-width="5.000000"
	d="
M162.500000,224.500000 
	C160.166672,225.333328 157.517776,225.730362 155.590103,227.124573 
	C153.719162,228.477768 152.214371,230.922424 153.086243,233.470490 
	C153.875381,235.776825 152.886765,237.833328 153.000000,240.000000 
"/>
<path fill="none" opacity="1.000000" stroke="#000000" stroke-linecap="round" stroke-linejoin="round" stroke-width="4.000000"
	d="
M227.500000,89.500000 
	C221.207672,86.300163 214.569962,87.590477 208.000000,88.000000 
"/>
<path fill="none" opacity="1.000000" stroke="#000000" stroke-linecap="round" stroke-linejoin="round" stroke-width="4.000000"
	d="
M179.500000,196.500000 
	C184.717941,197.190491 188.525604,200.453491 192.540588,203.445541 
	C194.372787,204.810959 195.721069,207.168655 198.500000,207.000000 
"/>
<path fill="none" opacity="1.000000" stroke="#000000" stroke-linecap="round" stroke-linejoin="round" stroke-width="3.000000"
	d="
M127.000000,215.000000 
	C121.606377,216.535431 116.022789,216.817078 110.500000,217.500000 
"/>
<path fill="none" opacity="1.000000" stroke="#000000" stroke-linecap="round" stroke-linejoin="round" stroke-width="4.000000"
	d="
M226.500000,124.000000 
	C222.832367,121.051079 219.291046,117.646645 214.008713,120.516052 
	C213.938812,120.554024 213.940720,120.868240 214.013580,120.992004 
	C214.129349,121.188637 214.333328,121.333336 214.500000,121.500000 
"/>
<path fill="none" opacity="1.000000" stroke="#000000" stroke-linecap="round" stroke-linejoin="round" stroke-width="3.000000"
	d="
M173.000000,303.500000 
	C169.788132,306.266327 172.245575,311.462402 168.500000,314.000000 
"/>
<path fill="none" opacity="1.000000" stroke="#000000" stroke-linecap="round" stroke-linejoin="round" stroke-width="4.000000"
	d="
M207.500000,166.000000 
	C205.166672,167.500000 202.833328,169.000000 200.500000,170.500000 
"/>
<path fill="none" opacity="1.000000" stroke="#000000" stroke-linecap="round" stroke-linejoin="round" stroke-width="3.000000"
	d="
M112.500000,188.000000 
	C112.591034,190.166672 111.690849,192.333328 112.500000,194.500000 
"/>
<path fill="none" opacity="1.000000" stroke="#000000" stroke-linecap="round" stroke-linejoin="round" stroke-width="3.000000"
	d="
M108.500000,219.000000 
	C106.220390,218.827835 104.423897,220.105026 102.500000,221.000000 
"/>
<path fill="none" opacity="1.000000" stroke="#000000" stroke-linecap="round" stroke-linejoin="round" stroke-width="2.000000"
	d="
M228.500000,124.999992 
	C226.500000,125.499992 224.500000,125.999992 222.500000,126.499992 
"/>
</svg>