<svg version="1.1" id="Layer_1" xmlns="http://www.w3.org/2000/svg" xmlns:xlink="http://www.w3.org/1999/xlink" x="0px" y="0px"
	 width="100%" viewBox="0 0 336 384" enable-background="new 0 0 336 384" xml:space="preserve">
<path fill="none" opacity="1.000000" stroke="#000000" stroke-linecap="round" stroke-linejoin="round" stroke-width="4.000000"
	d="
M209.500000,210.000000 
	C209.953705,204.655548 208.106796,200.677841 203.559875,197.416519 
	C194.149048,190.666458 184.221863,184.735641 174.419739,178.628830 
	C170.239670,176.024658 165.191605,176.909271 161.053940,179.583466 
	C158.109268,181.486649 155.540131,184.038925 153.027435,186.527695 
	C148.388657,191.122253 143.337112,194.429794 136.511307,195.112946 
	C129.299301,195.834732 126.076752,201.907593 123.630867,207.556656 
	C117.639641,221.394104 111.265968,235.092941 105.743622,249.096069 
	C101.949089,258.717957 98.676567,268.832977 98.478271,279.499603 
	C98.439423,281.589600 98.760841,283.528839 99.461510,285.513580 
	C101.691368,291.830017 97.003426,296.381561 94.801491,301.413116 
	C93.707153,303.913757 93.058952,306.662140 91.566071,309.041443 
	C90.993759,309.953583 90.638786,311.605865 91.079254,312.459076 
	C97.585228,325.061676 104.296616,337.299438 119.971985,340.872894 
	C128.225922,342.754456 136.234131,344.490601 144.500000,341.500000 
"/>
<path fill="none" opacity="1.000000" stroke="#000000" stroke-linecap="round" stroke-linejoin="round" stroke-width="5.000000"
	d="
M213.000000,212.000000 
	C216.261948,214.332062 217.305145,217.420410 217.664520,221.485458 
	C218.343216,229.162704 218.911804,236.901825 218.311844,244.485107 
	C217.353333,256.600189 218.096893,269.509003 207.990799,278.990204 
	C207.730362,279.234528 207.333328,279.333344 207.000000,279.500000 
"/>
<path fill="none" opacity="1.000000" stroke="#000000" stroke-linecap="round" stroke-linejoin="round" stroke-width="4.000000"
	d="
M268.000000,217.750000 
	C269.088104,214.147354 267.877960,211.407227 265.583313,208.435654 
	C255.706207,195.644714 242.940018,185.721939 231.906433,174.088745 
	C230.355698,172.453735 227.881088,171.596085 224.966110,172.372803 
	C221.135437,173.393539 217.408646,174.457108 214.000000,176.500000 
"/>
<path fill="none" opacity="1.000000" stroke="#000000" stroke-linecap="round" stroke-linejoin="round" stroke-width="4.000000"
	d="
M271.000000,220.500000 
	C274.465393,224.534714 272.117645,228.973419 271.351959,232.971649 
	C269.534485,242.462875 266.954681,251.820297 262.475403,260.487274 
	C260.284058,264.727356 257.925079,268.888184 255.475342,272.985260 
	C252.790405,277.475739 249.698853,281.500275 244.015686,282.582397 
	C242.572159,282.857239 241.076080,283.404968 239.924927,284.943848 
	C236.074524,290.091125 229.426804,292.132843 225.809509,297.880096 
	C224.047363,300.679840 219.871719,301.687805 216.551834,299.903564 
	C212.211700,297.571014 206.628326,296.964478 204.060852,291.968719 
	C203.279449,290.448242 202.904785,288.690155 204.444977,286.951263 
	C206.259506,284.902649 208.769516,282.492310 206.428360,279.557129 
	C203.723312,276.165741 198.896301,276.136932 195.011871,279.016022 
	C194.262665,279.571320 193.666672,280.333344 193.000000,281.000000 
"/>
<path fill="none" opacity="1.000000" stroke="#000000" stroke-linecap="round" stroke-linejoin="round" stroke-width="5.000000"
	d="
M226.500000,219.000000 
	C230.666672,219.000000 234.854309,219.266190 238.995255,218.939758 
	C245.792511,218.403946 248.272675,220.936203 247.513931,228.001495 
	C246.458588,237.828888 245.030533,247.649170 244.663025,257.506073 
	C244.412872,264.215179 242.981766,270.452972 240.407410,276.460327 
	C239.249832,279.161591 241.183136,281.141693 241.000000,283.500000 
"/>
<path fill="none" opacity="1.000000" stroke="#000000" stroke-linecap="round" stroke-linejoin="round" stroke-width="5.000000"
	d="
M242.500000,217.500000 
	C242.513962,213.069412 240.458206,209.739548 237.574829,206.434708 
	C230.184021,197.963608 223.448532,188.911041 215.901733,180.589111 
	C210.799713,174.963104 205.532181,169.132782 197.989685,166.529892 
	C189.110428,163.465668 180.366898,166.343414 175.645569,174.088730 
	C174.964020,175.206848 173.628342,176.025726 173.500000,177.500000 
"/>
<path fill="none" opacity="1.000000" stroke="#000000" stroke-linecap="round" stroke-linejoin="round" stroke-width="5.000000"
	d="
M160.000000,213.500000 
	C161.377777,218.834671 165.928085,221.887192 169.054214,225.958374 
	C169.448578,226.471939 170.749878,226.303131 170.492844,227.498459 
	C168.956329,234.643829 171.240906,241.104904 173.959549,247.517151 
	C174.259033,248.223495 174.000000,249.166672 174.000000,250.000000 
"/>
<path fill="none" opacity="1.000000" stroke="#000000" stroke-linecap="round" stroke-linejoin="round" stroke-width="8.000000"
	d="
M115.499992,309.500000 
	C116.499992,310.000000 117.774109,310.260498 118.454720,311.039551 
	C122.366402,315.516846 127.223801,314.816254 132.504196,314.711548 
	C140.050308,314.561920 147.376389,313.699249 154.468033,311.401337 
	C158.300461,310.159515 161.162933,306.765015 162.779694,303.394318 
	C164.422409,299.969604 166.405334,297.103546 169.000000,294.500000 
"/>
<path fill="none" opacity="1.000000" stroke="#000000" stroke-linecap="round" stroke-linejoin="round" stroke-width="6.000000"
	d="
M139.000000,244.000000 
	C143.172699,247.202805 146.353241,251.230499 146.893600,256.510895 
	C147.366577,261.133087 151.149567,262.949219 153.352676,266.102905 
	C157.528503,272.080566 160.671677,278.768524 164.570084,284.955841 
	C166.441910,287.926697 167.677536,291.239227 171.426682,293.144318 
	C180.038376,297.520203 184.909058,296.211426 188.479904,287.491760 
	C188.733963,286.871399 188.177994,286.002838 189.000000,285.500000 
"/>
<path fill="none" opacity="1.000000" stroke="#000000" stroke-linecap="round" stroke-linejoin="round" stroke-width="11.000000"
	d="
M184.000000,315.000000 
	C184.277771,323.280304 179.992661,330.058380 176.381012,336.937531 
	C174.502045,340.516449 169.513275,339.601044 166.464722,341.954285 
	C163.142365,344.518890 159.128387,344.966370 155.001236,345.056763 
	C151.684235,345.129395 148.806122,344.493744 146.500000,342.000000 
"/>
<path fill="none" opacity="1.000000" stroke="#000000" stroke-linecap="round" stroke-linejoin="round" stroke-width="3.000000"
	d="
M148.000000,314.000000 
	C149.692596,319.523499 146.094238,323.923248 144.258255,328.400879 
	C142.195923,333.430450 142.040863,337.407104 145.500000,341.500000 
"/>
<path fill="none" opacity="1.000000" stroke="#000000" stroke-linecap="round" stroke-linejoin="round" stroke-width="6.000000"
	d="
M156.500000,312.000000 
	C156.833344,312.666656 157.606552,313.487701 157.434814,313.977142 
	C154.240646,323.080444 152.295090,332.734985 146.000000,340.500000 
"/>
<path fill="none" opacity="1.000000" stroke="#000000" stroke-linecap="round" stroke-linejoin="round" stroke-width="7.000000"
	d="
M159.500000,256.000000 
	C160.804947,254.004211 163.490112,253.158875 164.906982,253.730545 
	C167.117950,254.622559 168.699875,253.264786 169.920700,252.794250 
	C177.062012,250.041611 177.931656,250.039291 182.508133,255.493179 
	C184.960342,258.415527 186.319824,261.171265 185.740402,265.531952 
	C184.843887,272.279053 187.309860,278.924957 189.000000,285.500000 
"/>
<path fill="none" opacity="1.000000" stroke="#000000" stroke-linecap="round" stroke-linejoin="round" stroke-width="4.000000"
	d="
M182.000000,225.000000 
	C178.527451,229.525833 179.337646,234.533524 180.559891,239.485214 
	C180.989975,241.227570 182.093292,242.791183 183.997589,243.506393 
	C189.880539,245.715897 190.764221,247.423035 189.542679,253.508560 
	C189.298508,254.724930 188.877609,255.688797 188.000000,256.500000 
"/>
<path fill="none" opacity="1.000000" stroke="#000000" stroke-linecap="round" stroke-linejoin="round" stroke-width="3.000000"
	d="
M270.000000,218.750000 
	C262.129395,218.466095 254.239075,217.811295 246.500000,220.000000 
"/>
<path fill="none" opacity="1.000000" stroke="#000000" stroke-linecap="round" stroke-linejoin="round" stroke-width="5.000000"
	d="
M167.500000,213.999985 
	C168.166672,214.333328 168.992645,214.516296 169.473099,215.025375 
	C171.871368,217.566483 174.064346,219.640045 177.796524,221.041763 
	C180.871841,222.196793 185.447266,224.115616 187.204803,228.925156 
	C189.060196,234.002518 189.721329,238.584320 187.500000,243.500000 
"/>
<path fill="none" opacity="1.000000" stroke="#000000" stroke-linecap="round" stroke-linejoin="round" stroke-width="9.000000"
	d="
M188.500000,285.500000 
	C187.333328,285.333344 186.165222,285.176208 185.000244,284.998413 
	C178.457077,283.999817 173.887115,286.678192 171.000000,292.500000 
"/>
<path fill="none" opacity="1.000000" stroke="#000000" stroke-linecap="round" stroke-linejoin="round" stroke-width="5.000000"
	d="
M206.000000,296.000000 
	C198.547546,302.024994 192.671005,309.924072 184.204041,314.211700 
	C182.230927,313.619598 180.365463,313.059814 178.500000,312.500000 
"/>
<path fill="none" opacity="1.000000" stroke="#000000" stroke-linecap="round" stroke-linejoin="round" stroke-width="4.000000"
	d="
M101.500000,302.500000 
	C102.205460,308.682648 98.997093,312.607300 94.000000,315.500000 
"/>
<path fill="none" opacity="1.000000" stroke="#000000" stroke-linecap="round" stroke-linejoin="round" stroke-width="5.000000"
	d="
M163.000000,305.500000 
	C165.362244,307.311768 168.162842,308.168488 171.007507,308.412415 
	C173.290375,308.608154 174.883133,309.690430 176.500000,311.000000 
"/>
<path fill="none" opacity="1.000000" stroke="#000000" stroke-linecap="round" stroke-linejoin="round" stroke-width="9.000000"
	d="
M212.500000,211.250000 
	C206.683044,210.373352 201.021286,211.301468 195.540405,213.121674 
	C194.540985,213.453568 193.633408,214.066910 192.500000,214.000000 
"/>
<path fill="none" opacity="1.000000" stroke="#000000" stroke-linecap="round" stroke-linejoin="round" stroke-width="3.000000"
	d="
M177.000000,314.000000 
	C172.637329,318.485321 171.803253,324.734955 169.000000,330.000000 
"/>
<path fill="none" opacity="1.000000" stroke="#000000" stroke-linecap="round" stroke-linejoin="round" stroke-width="6.000000"
	d="
M190.000000,285.500000 
	C194.405487,286.087006 198.300415,288.269562 202.500000,289.500000 
"/>
<path fill="none" opacity="1.000000" stroke="#000000" stroke-linecap="round" stroke-linejoin="round" stroke-width="4.000000"
	d="
M245.500000,265.000000 
	C249.451767,265.956085 253.755356,264.801178 257.500000,267.000000 
"/>
<path fill="none" opacity="1.000000" stroke="#000000" stroke-linecap="round" stroke-linejoin="round" stroke-width="3.000000"
	d="
M219.750000,285.500000 
	C219.833328,286.000000 219.916672,286.500000 220.000000,287.000000 
	C214.254089,286.650940 212.049454,290.728485 210.000000,295.000000 
"/>
<path fill="none" opacity="1.000000" stroke="#000000" stroke-linecap="round" stroke-linejoin="round" stroke-width="5.000000"
	d="
M132.500000,230.500000 
	C132.029388,232.401978 133.697525,233.218140 134.415634,234.545639 
	C135.865417,237.225815 136.833328,240.166672 138.000000,243.000000 
"/>
<path fill="none" opacity="1.000000" stroke="#000000" stroke-linecap="round" stroke-linejoin="round" stroke-width="5.000000"
	d="
M232.500000,271.500000 
	C228.663223,273.037842 225.137039,271.159241 221.500000,270.500000 
"/>
<path fill="none" opacity="1.000000" stroke="#000000" stroke-linecap="round" stroke-linejoin="round" stroke-width="3.000000"
	d="
M126.000000,238.000000 
	C128.786652,241.164474 132.039703,243.240677 136.500000,242.500000 
"/>
<path fill="none" opacity="1.000000" stroke="#000000" stroke-linecap="round" stroke-linejoin="round" stroke-width="4.000000"
	d="
M199.500000,265.500000 
	C203.166672,265.500000 206.833328,265.500000 210.500000,265.500000 
"/>
<path fill="none" opacity="1.000000" stroke="#000000" stroke-linecap="round" stroke-linejoin="round" stroke-width="3.000000"
	d="
M168.000000,330.500000 
	C168.155014,333.500641 166.333374,336.611115 168.500000,339.500000 
"/>
<path fill="none" opacity="1.000000" stroke="#000000" stroke-linecap="round" stroke-linejoin="round" stroke-width="2.000000"
	d="
M158.000000,313.500031 
	C160.500000,313.833344 163.000000,314.166687 165.500000,314.500031 
"/>
<path fill="none" opacity="1.000000" stroke="#000000" stroke-linecap="round" stroke-linejoin="round" stroke-width="3.000000"
	d="
M175.500000,275.500000 
	C172.634857,275.698212 170.886124,279.468903 167.500000,278.000000 
"/>
<path fill="none" opacity="1.000000" stroke="#000000" stroke-linecap="round" stroke-linejoin="round" stroke-width="2.000000"
	d="
M143.500000,267.000000 
	C143.690994,268.616516 143.281586,270.099609 142.500000,271.500000 
"/>
</svg>