<svg version="1.1" id="Layer_1" xmlns="http://www.w3.org/2000/svg" xmlns:xlink="http://www.w3.org/1999/xlink" x="0px" y="0px"
	 width="100%" viewBox="0 0 336 384" enable-background="new 0 0 336 384" xml:space="preserve">
<path fill="none" opacity="1.000000" stroke="#000000" stroke-linecap="round" stroke-linejoin="round" stroke-width="6.000000"
	d="
M136.500000,117.000000 
	C136.989777,118.829926 135.948761,120.392555 134.934448,121.436302 
	C130.418808,126.083054 126.184624,131.300308 120.842979,134.757401 
	C116.220581,137.748978 115.240288,141.805176 115.174103,146.002747 
	C115.046616,154.088028 112.184402,161.908279 113.043243,169.995407 
	C114.074417,179.705307 109.871826,188.409103 107.790092,197.451675 
	C105.420013,207.746674 104.174744,218.197586 102.098076,228.519730 
	C99.600060,240.936295 97.674812,253.476425 95.810654,266.009033 
	C94.727234,273.292786 93.784523,280.656708 93.627647,288.002716 
	C93.462524,295.735016 93.230171,303.219086 90.128227,310.554230 
	C87.900902,315.821167 89.599007,319.030243 95.016212,321.970123 
	C104.123627,326.912628 113.216393,331.912506 122.566597,336.360016 
	C125.633583,337.818848 129.001572,340.239838 133.049530,338.093384 
	C134.323227,337.417999 136.078476,338.157623 137.516098,338.971558 
	C138.942520,339.779175 140.500961,339.679749 141.999832,338.999634 
	C148.910934,335.863556 155.559097,332.249329 161.462769,327.454163 
	C163.538315,325.768311 163.694992,323.014191 163.993759,320.499268 
	C164.844849,313.334717 165.699249,306.170227 166.486572,298.998535 
	C166.895493,295.273743 165.238113,292.111908 163.500000,289.000000 
"/>
<path fill="none" opacity="1.000000" stroke="#000000" stroke-linecap="round" stroke-linejoin="round" stroke-width="5.000000"
	d="
M169.000000,281.000000 
	C184.175339,280.265411 194.941376,272.196014 204.676193,261.155365 
	C212.305634,252.502472 220.158264,243.991516 227.965179,235.468109 
	C236.907364,225.705246 247.157898,217.331161 256.508820,208.008835 
	C263.018890,201.518677 268.931152,194.736374 272.670959,186.073807 
	C274.540344,181.743820 274.192749,177.284668 275.410095,172.974609 
	C277.920013,164.088135 281.777771,155.657715 283.704987,146.543335 
	C284.522247,142.678177 285.876556,139.390625 283.006561,135.994446 
	C279.804565,132.205353 275.481415,131.643036 271.007507,132.077255 
	C268.631836,132.307831 266.333344,133.333328 264.000000,133.999985 
"/>
<path fill="none" opacity="1.000000" stroke="#000000" stroke-linecap="round" stroke-linejoin="round" stroke-width="8.000000"
	d="
M163.500000,171.000000 
	C165.436157,171.716415 167.055969,172.580505 169.529938,172.189392 
	C174.485443,171.405930 177.060974,174.643265 177.021286,180.000153 
	C176.913635,194.532440 175.683029,209.180649 179.091827,223.478104 
	C182.087280,236.041901 179.256195,247.959442 176.527283,260.006195 
	C175.919022,262.691376 174.545120,264.661560 172.550064,266.552826 
	C167.856567,271.002106 167.173660,273.875885 168.515366,280.576721 
	C163.563782,289.270630 155.486420,292.402496 146.018997,293.644745 
	C142.794113,294.067902 139.722046,295.416718 136.511322,293.974792 
	C135.067398,293.326294 134.354095,294.422241 133.522263,295.030457 
	C131.054016,296.835205 128.459991,297.564392 125.500000,296.500000 
"/>
<path fill="none" opacity="1.000000" stroke="#000000" stroke-linecap="round" stroke-linejoin="round" stroke-width="5.000000"
	d="
M258.000000,131.500000 
	C261.092194,124.010963 258.872620,116.731873 256.968201,109.508377 
	C253.591049,96.698532 244.006134,89.207520 233.518234,82.471603 
	C227.092331,78.344505 221.028671,73.471771 213.941803,70.645966 
	C207.834869,68.210907 201.775513,63.459202 194.500000,67.500000 
"/>
<path fill="none" opacity="1.000000" stroke="#000000" stroke-linecap="round" stroke-linejoin="round" stroke-width="4.000000"
	d="
M232.000000,108.000000 
	C225.933243,102.822418 219.340485,99.329315 211.008499,98.851784 
	C202.654892,98.373009 194.499222,95.625641 185.999786,95.994957 
	C184.346878,96.066772 183.016663,96.321129 181.426208,97.390213 
	C163.509293,109.433662 149.447174,125.774719 133.413544,139.901871 
	C126.384232,146.095352 124.435165,154.429047 121.491638,162.496948 
	C120.208054,166.015106 118.972099,169.562607 117.434502,172.970459 
	C116.782051,174.416504 115.093941,174.694962 113.500000,174.500000 
"/>
<path fill="none" opacity="1.000000" stroke="#000000" stroke-linecap="round" stroke-linejoin="round" stroke-width="6.000000"
	d="
M182.000000,75.500000 
	C183.310379,72.720154 185.929184,71.531158 188.529099,70.579498 
	C190.066040,70.016930 191.723251,69.415817 193.549850,70.940269 
	C201.195282,77.321075 211.028793,79.632011 219.484879,84.526131 
	C225.049438,87.746719 231.536026,89.327301 236.041840,94.463295 
	C241.895813,101.136002 246.644333,108.319458 249.096741,116.972580 
	C249.661087,118.963852 248.837296,120.350395 248.500000,122.000000 
"/>
<path fill="none" opacity="1.000000" stroke="#000000" stroke-linecap="round" stroke-linejoin="round" stroke-width="4.000000"
	d="
M182.000000,77.000000 
	C180.000000,73.665077 177.502960,75.803528 176.097015,77.104813 
	C172.473801,80.458275 169.505478,84.509674 165.965927,87.965103 
	C157.279327,96.445267 149.404358,105.726135 140.073792,113.587578 
	C136.144852,116.897888 130.894577,116.325310 126.910263,119.383064 
	C124.181168,121.477493 120.923058,122.877182 118.480759,125.481956 
	C114.239708,130.005188 113.965599,131.713745 117.000000,137.250000 
"/>
<path fill="none" opacity="1.000000" stroke="#000000" stroke-linecap="round" stroke-linejoin="round" stroke-width="10.000000"
	d="
M141.500000,296.000000 
	C139.666656,307.000000 137.749298,317.987000 136.044708,329.006927 
	C135.432648,332.963806 135.333328,337.000000 135.000000,341.000000 
"/>
<path fill="none" opacity="1.000000" stroke="#000000" stroke-linecap="round" stroke-linejoin="round" stroke-width="7.000000"
	d="
M154.000000,293.000000 
	C157.806671,300.251404 153.195206,307.006073 152.655334,313.992676 
	C152.343140,318.032959 151.125824,322.009491 150.234055,325.996429 
	C149.700470,328.381989 149.924866,330.556122 151.500000,332.500000 
"/>
<path fill="none" opacity="1.000000" stroke="#000000" stroke-linecap="round" stroke-linejoin="round" stroke-width="5.000000"
	d="
M246.500000,151.500000 
	C243.228928,156.947800 239.982971,162.414398 238.015991,168.505173 
	C237.131851,171.242981 233.832703,170.386353 232.475128,172.483902 
	C229.080246,177.729095 224.453979,181.797928 219.490494,185.487213 
	C215.370285,188.549728 211.142120,191.466721 207.009735,194.513229 
	C204.749146,196.179764 203.662201,193.684509 202.000000,193.250000 
"/>
<path fill="none" opacity="1.000000" stroke="#000000" stroke-linecap="round" stroke-linejoin="round" stroke-width="4.000000"
	d="
M215.000000,192.500000 
	C221.381027,202.287567 226.030167,212.869812 229.518326,223.994247 
	C230.053818,225.702057 230.833328,227.333328 231.500000,229.000000 
"/>
<path fill="none" opacity="1.000000" stroke="#000000" stroke-linecap="round" stroke-linejoin="round" stroke-width="4.000000"
	d="
M176.500000,140.500000 
	C182.272003,142.377899 184.878174,141.632004 187.981003,136.987305 
	C189.726486,134.374451 191.793396,131.987732 193.039337,129.016495 
	C194.778580,124.868889 199.268005,125.418022 202.546570,124.117393 
	C207.582779,122.119530 212.489639,122.240166 216.562790,126.945656 
	C219.403717,130.227615 222.935699,132.900497 225.973648,136.025620 
	C229.628891,139.785797 233.463974,143.022354 238.997894,143.523285 
	C243.464005,143.927551 242.958649,149.160812 246.924377,150.922287 
	C250.676041,150.606781 255.412384,150.364304 258.500000,146.000000 
"/>
<path fill="none" opacity="1.000000" stroke="#000000" stroke-linecap="round" stroke-linejoin="round" stroke-width="5.000000"
	d="
M185.000000,141.500000 
	C186.140274,146.022598 184.690277,150.199814 183.611053,154.527695 
	C182.765289,157.919312 180.539459,161.219925 182.278427,165.262344 
	C184.444534,165.740509 187.100189,165.936020 189.006668,167.993820 
	C196.044846,175.590622 205.031082,180.905151 212.500000,188.000000 
"/>
<path fill="none" opacity="1.000000" stroke="#000000" stroke-linecap="round" stroke-linejoin="round" stroke-width="5.000000"
	d="
M238.000000,170.500000 
	C241.500000,175.500000 244.791656,180.665009 248.574341,185.441116 
	C251.035858,188.549072 253.948669,191.529999 258.500000,191.500000 
"/>
<path fill="none" opacity="1.000000" stroke="#000000" stroke-linecap="round" stroke-linejoin="round" stroke-width="10.000000"
	d="
M234.000000,110.000000 
	C238.018677,114.755989 242.515198,118.721657 247.765594,122.340118 
	C252.835571,125.834213 256.770416,131.272903 262.000000,135.000000 
"/>
<path fill="none" opacity="1.000000" stroke="#000000" stroke-linecap="round" stroke-linejoin="round" stroke-width="3.000000"
	d="
M185.000000,117.000000 
	C188.619598,119.787346 192.254105,122.559380 194.750000,126.500000 
"/>
<path fill="none" opacity="1.000000" stroke="#000000" stroke-linecap="round" stroke-linejoin="round" stroke-width="5.000000"
	d="
M203.500000,196.000000 
	C200.613251,199.406448 195.948135,198.465820 192.500000,200.500000 
"/>
<path fill="none" opacity="1.000000" stroke="#000000" stroke-linecap="round" stroke-linejoin="round" stroke-width="3.000000"
	d="
M252.000000,135.000000 
	C248.500000,138.000000 245.000000,141.000000 241.500000,144.000000 
"/>
<path fill="none" opacity="1.000000" stroke="#000000" stroke-linecap="round" stroke-linejoin="round" stroke-width="3.000000"
	d="
M220.000000,188.500000 
	C221.685242,191.407379 224.345108,193.827438 224.500000,197.500000 
"/>
</svg>