<svg version="1.1" id="Layer_1" xmlns="http://www.w3.org/2000/svg" xmlns:xlink="http://www.w3.org/1999/xlink" x="0px" y="0px"
	 width="100%" viewBox="0 0 370 384" enable-background="new 0 0 370 384" xml:space="preserve">
<path fill="none" opacity="1.000000" stroke="#000000" stroke-linecap="round" stroke-linejoin="round" stroke-width="5.000000"
	d="
M344.000000,238.500000 
	C337.209564,223.775711 325.704498,212.690613 314.964905,201.032333 
	C312.536774,198.396500 308.913330,200.122681 307.136047,201.220306 
	C300.883881,205.081543 295.945221,209.991714 295.813599,218.497116 
	C295.720917,224.483765 296.994446,229.728638 299.428650,235.032745 
	C301.358765,239.238419 302.916718,243.646866 304.647736,247.940445 
	C307.593994,255.248337 322.541412,258.465729 329.936432,253.407074 
	C335.190704,249.812820 340.976044,246.428452 343.430389,239.973526 
	C343.880981,238.788422 344.762665,238.318375 345.521545,238.064331 
	C353.407379,235.424545 358.110687,230.106140 360.058594,222.014114 
	C361.240509,217.104187 363.083435,212.357330 364.481934,207.494812 
	C367.071625,198.490524 364.684235,190.475189 359.512085,182.991653 
	C350.725189,170.277893 340.502991,158.724365 330.455231,147.038483 
	C326.675140,142.642120 321.680267,139.748138 315.989655,138.549103 
	C306.391174,136.526703 296.803467,134.445572 287.004547,133.455093 
	C275.152039,132.257050 263.374664,132.065063 251.489304,133.405182 
	C237.344528,135.000061 223.479416,138.136749 209.458694,140.222336 
	C198.403122,141.866867 187.347122,144.332901 175.997803,144.113510 
	C172.452621,144.044983 168.039368,143.804184 167.000000,149.000000 
"/>
<path fill="none" opacity="1.000000" stroke="#000000" stroke-linecap="round" stroke-linejoin="round" stroke-width="6.000000"
	d="
M166.500000,147.500000 
	C156.122513,148.215515 146.576721,152.473389 136.555496,154.744843 
	C128.566254,156.555695 120.623756,158.303467 112.495804,158.947037 
	C96.797562,160.190033 81.425758,163.179520 66.541794,168.125763 
	C55.734276,171.717285 44.527180,172.143204 33.517094,174.096344 
	C26.832729,175.282135 19.985710,175.493851 13.468262,177.914551 
	C6.554533,180.482437 5.392561,181.968781 7.000000,189.000000 
	C8.460912,195.390305 16.969336,201.649002 23.462620,200.317688 
	C26.188755,199.758743 28.896088,200.335373 31.500000,199.500000 
"/>
<path fill="none" opacity="1.000000" stroke="#000000" stroke-linecap="round" stroke-linejoin="round" stroke-width="5.000000"
	d="
M128.000000,199.000000 
	C121.793327,208.219772 117.819298,218.574783 112.999512,228.499756 
	C112.836723,228.834976 112.456161,229.225800 112.530746,229.491364 
	C114.460396,236.361496 109.774452,242.289505 109.889336,249.001892 
	C110.106003,261.661987 109.664558,274.333313 109.500916,287.000000 
	C109.421211,293.169098 110.811325,299.336548 109.102745,305.528351 
	C108.601707,307.344116 108.646004,309.959625 109.621643,311.418671 
	C113.395782,317.062805 111.871338,323.141418 111.289238,328.978973 
	C111.050179,331.376312 111.388550,332.776794 113.020241,333.972382 
	C117.169991,337.013062 126.507607,335.872101 129.411316,331.441864 
	C134.463028,323.734344 139.843414,315.993011 138.997757,306.000183 
	C138.875748,304.558594 139.877380,303.614105 140.500000,302.500000 
"/>
<path fill="none" opacity="1.000000" stroke="#000000" stroke-linecap="round" stroke-linejoin="round" stroke-width="7.000000"
	d="
M295.000000,227.500000 
	C287.342102,226.195908 281.246338,229.945099 274.971344,233.448685 
	C268.949921,236.810684 262.648529,239.435165 255.501587,239.578751 
	C251.985321,239.649384 249.191650,242.262558 245.980240,243.446411 
	C235.198898,247.420761 224.295456,251.063782 213.512299,255.033401 
	C205.261337,258.070831 197.764572,262.409302 190.351669,267.273956 
	C181.207977,273.274353 174.948517,282.563080 165.121170,287.730438 
	C162.400772,289.160889 161.661804,293.660828 159.696304,296.629944 
	C157.175018,300.438568 154.051880,301.762756 149.998642,301.973846 
	C147.339172,302.112335 144.645569,301.795288 142.006927,302.067230 
	C140.032974,302.270721 138.909256,301.270538 138.030136,299.979492 
	C132.435608,291.763458 130.179794,283.122894 134.447617,273.476837 
	C136.305161,269.278412 138.484894,265.298218 141.047485,261.532318 
	C142.034744,260.081451 143.123459,258.727051 143.486069,256.997070 
	C144.761719,250.911026 148.978302,248.002762 154.462769,245.902771 
	C158.913834,244.198471 162.292221,241.104858 164.665451,236.586914 
	C166.303955,233.467712 169.499985,231.166656 171.999985,228.499985 
"/>
<path fill="none" opacity="1.000000" stroke="#000000" stroke-linecap="round" stroke-linejoin="round" stroke-width="6.000000"
	d="
M78.500000,197.500000 
	C83.376312,196.707748 88.590553,197.508377 92.991318,194.487350 
	C94.049767,193.760742 94.881813,194.004517 96.020653,194.446823 
	C100.710770,196.268356 105.556023,195.805389 110.504593,195.677353 
	C116.721054,195.516479 123.297806,193.874313 129.089386,198.385223 
	C130.972107,199.851624 133.191238,198.633682 135.626526,197.217590 
	C142.702148,193.103226 143.753159,185.275726 148.010391,179.507660 
	C149.032578,178.122711 147.503220,176.833328 148.000000,175.500000 
"/>
<path fill="none" opacity="1.000000" stroke="#000000" stroke-linecap="round" stroke-linejoin="round" stroke-width="7.000000"
	d="
M142.500000,192.500000 
	C146.964249,194.583572 151.822983,194.111359 156.506561,194.389694 
	C160.319641,194.616302 163.918869,195.624435 167.467194,196.617249 
	C172.409561,198.000107 173.951782,202.463013 175.000000,207.000000 
"/>
<path fill="none" opacity="1.000000" stroke="#000000" stroke-linecap="round" stroke-linejoin="round" stroke-width="5.000000"
	d="
M133.500000,199.500000 
	C136.389893,204.732376 141.547729,207.786865 145.524719,211.976547 
	C147.550278,214.110474 149.778137,216.064316 152.014465,217.983139 
	C154.605637,220.206421 157.194382,222.316025 160.999832,222.324371 
	C163.803268,222.330521 166.430695,223.351959 168.511536,225.488770 
	C172.316742,229.396301 176.653503,227.728027 180.430328,225.859207 
	C183.312790,224.432922 185.537445,221.845596 187.823730,219.289566 
	C191.011673,215.725510 193.788010,211.671097 197.443893,208.436584 
	C200.398300,205.822693 203.907303,203.277710 203.500000,198.500000 
"/>
<path fill="none" opacity="1.000000" stroke="#000000" stroke-linecap="round" stroke-linejoin="round" stroke-width="4.000000"
	d="
M133.000000,282.000000 
	C135.534973,281.926239 137.449493,282.694550 138.008957,285.498199 
	C138.737045,289.146912 140.673340,292.340210 143.118576,294.886108 
	C145.006546,296.851807 145.024689,298.769531 145.000000,301.000000 
"/>
<path fill="none" opacity="1.000000" stroke="#000000" stroke-linecap="round" stroke-linejoin="round" stroke-width="4.000000"
	d="
M152.750000,272.500000 
	C150.816116,274.666718 147.574783,273.336029 145.316986,275.834625 
	C142.879288,278.532318 140.389771,281.230011 138.000000,284.000000 
"/>
<path fill="none" opacity="1.000000" stroke="#000000" stroke-linecap="round" stroke-linejoin="round" stroke-width="4.000000"
	d="
M53.500000,197.000000 
	C56.314980,199.727341 59.819378,198.116837 63.003899,198.464264 
	C64.815666,198.661926 66.666664,198.500000 68.500000,198.500000 
"/>
<path fill="none" opacity="1.000000" stroke="#000000" stroke-linecap="round" stroke-linejoin="round" stroke-width="8.000000"
	d="
M188.000000,217.500000 
	C184.666656,214.666672 181.204468,211.968719 178.040726,208.957214 
	C175.503342,206.541870 173.064987,207.691879 170.500000,208.500000 
"/>
<path fill="none" opacity="1.000000" stroke="#000000" stroke-linecap="round" stroke-linejoin="round" stroke-width="3.000000"
	d="
M222.500000,226.500000 
	C226.302780,229.542999 228.393753,233.776810 230.500000,238.000000 
"/>
<path fill="none" opacity="1.000000" stroke="#000000" stroke-linecap="round" stroke-linejoin="round" stroke-width="6.000000"
	d="
M174.500000,246.000000 
	C177.187698,246.848343 178.848831,248.842300 178.414368,251.485931 
	C177.210281,258.812531 180.999680,264.319916 184.500000,270.000000 
"/>
<path fill="none" opacity="1.000000" stroke="#000000" stroke-linecap="round" stroke-linejoin="round" stroke-width="6.000000"
	d="
M54.500000,188.500000 
	C53.129642,198.467575 53.054741,199.259949 44.499233,199.028305 
	C43.171383,198.992355 41.833332,199.333328 40.500000,199.500000 
"/>
<path fill="none" opacity="1.000000" stroke="#000000" stroke-linecap="round" stroke-linejoin="round" stroke-width="5.000000"
	d="
M153.500000,235.000000 
	C149.694656,238.427841 149.071594,242.746719 150.000000,247.500000 
"/>
<path fill="none" opacity="1.000000" stroke="#000000" stroke-linecap="round" stroke-linejoin="round" stroke-width="3.000000"
	d="
M191.500000,196.500000 
	C192.833344,200.666672 194.166672,204.833328 195.500000,209.000000 
"/>
<path fill="none" opacity="1.000000" stroke="#000000" stroke-linecap="round" stroke-linejoin="round" stroke-width="5.000000"
	d="
M157.000000,222.500000 
	C156.204330,226.414627 152.943619,229.632614 153.626190,234.092682 
	C156.928238,235.888580 160.799179,234.227127 164.000000,236.000000 
"/>
<path fill="none" opacity="1.000000" stroke="#000000" stroke-linecap="round" stroke-linejoin="round" stroke-width="4.000000"
	d="
M321.500000,196.500000 
	C318.333588,196.238632 315.418457,196.515732 314.000000,200.000000 
"/>
</svg>