<svg version="1.1" id="Layer_1" xmlns="http://www.w3.org/2000/svg" xmlns:xlink="http://www.w3.org/1999/xlink" x="0px" y="0px"
	 width="100%" viewBox="0 0 370 384" enable-background="new 0 0 370 384" xml:space="preserve">
<path fill="none" opacity="1.000000" stroke="#000000" stroke-linecap="round" stroke-linejoin="round" stroke-width="6.000000"
	d="
M153.000000,146.500000 
	C150.000000,147.333344 146.550690,147.488159 144.081589,149.123199 
	C135.606262,154.735535 127.903595,161.528503 123.129951,170.568619 
	C116.383430,183.344910 116.647980,197.517029 117.046776,211.498672 
	C117.414398,224.387451 121.558029,236.605713 124.632881,248.966949 
	C126.485275,256.413788 130.172882,264.020325 135.800735,268.633087 
	C142.406525,274.047394 150.754608,277.750061 160.576248,274.749573 
	C165.091644,273.370148 170.029770,272.117737 175.028412,271.935211 
	C175.202652,270.334747 176.612564,269.054840 177.500000,267.500000 
"/>
<path fill="none" opacity="1.000000" stroke="#000000" stroke-linecap="round" stroke-linejoin="round" stroke-width="6.000000"
	d="
M135.500000,270.000000 
	C134.501648,272.953796 134.605286,276.110870 135.117844,278.978943 
	C136.458557,286.481110 135.950562,293.998108 135.900055,301.499329 
	C135.878952,304.633362 136.534348,306.800873 139.499893,308.000275 
	C149.503540,312.046204 159.192871,318.048706 170.011322,318.419159 
	C180.893188,318.791779 192.154602,318.941620 202.566803,313.630981 
	C207.788193,310.967865 211.306961,307.404999 212.896988,301.969879 
	C213.227356,300.840576 213.660385,300.542236 214.500000,300.250000 
"/>
<path fill="none" opacity="1.000000" stroke="#000000" stroke-linecap="round" stroke-linejoin="round" stroke-width="5.000000"
	d="
M257.500000,153.500000 
	C259.585327,157.239166 260.199158,161.181717 260.099152,165.502289 
	C259.927032,172.935669 262.973877,179.839890 264.533783,186.992630 
	C266.194275,194.606567 269.571411,202.252808 265.897369,209.951019 
	C262.676147,216.700348 258.675110,223.108353 253.978149,228.982529 
	C247.328064,237.299316 239.867188,244.933868 233.415527,253.435898 
	C231.787033,255.581940 229.814072,257.583710 227.052734,258.863770 
	C222.309799,261.062469 219.253464,265.494263 215.512604,269.013397 
	C215.086227,269.414520 214.517868,270.018982 214.546646,270.497192 
	C215.104111,279.761261 211.300278,288.698517 212.507645,297.998993 
	C212.616806,298.839813 212.833328,299.666656 213.000000,300.500000 
"/>
<path fill="none" opacity="1.000000" stroke="#000000" stroke-linecap="round" stroke-linejoin="round" stroke-width="4.000000"
	d="
M184.500000,130.500000 
	C188.167557,140.682373 189.336487,151.343185 190.490036,162.001083 
	C191.373383,170.162338 192.080093,178.343796 193.064758,186.492172 
	C193.292709,188.378525 194.317734,190.172531 195.002869,191.998932 
	C197.204956,197.868912 195.627594,205.293213 190.419434,208.363312 
	C184.575958,211.807907 183.577484,217.795227 181.049103,223.023743 
	C180.235825,224.705582 180.391251,226.909821 179.430054,228.456528 
	C175.890289,234.152435 177.608673,239.323074 180.493774,244.503464 
	C181.037231,245.479263 181.500000,246.500000 182.000000,247.500000 
"/>
<path fill="none" opacity="1.000000" stroke="#000000" stroke-linecap="round" stroke-linejoin="round" stroke-width="4.000000"
	d="
M256.500000,152.750000 
	C260.009979,152.347519 260.387726,149.299133 260.376526,147.000610 
	C260.341125,139.756912 259.029785,132.680145 256.009308,125.995796 
	C252.914291,119.146507 246.343262,119.558914 240.496902,118.517426 
	C233.449387,117.261955 227.541504,120.121025 222.630051,124.641304 
	C220.714355,126.404419 218.445984,126.490685 217.028946,126.292778 
	C209.326279,125.217072 204.045502,127.762596 200.939972,134.974152 
	C200.359726,136.321579 198.848419,137.238098 198.039841,138.525024 
	C197.109238,140.006195 196.053925,141.601730 196.516235,143.496033 
	C198.786987,152.800415 205.069305,159.766724 211.787125,165.673447 
	C215.031128,168.525772 219.403046,170.549988 222.500000,174.000000 
"/>
<path fill="none" opacity="1.000000" stroke="#000000" stroke-linecap="round" stroke-linejoin="round" stroke-width="5.000000"
	d="
M222.500000,123.500000 
	C217.050125,114.688667 213.805191,113.417412 202.989441,115.443649 
	C200.896240,115.835785 198.427200,114.892410 196.551834,115.631531 
	C193.075485,117.001648 190.018127,119.065910 188.429749,122.971428 
	C185.678940,129.735046 185.496078,129.660660 179.000000,129.499985 
	C164.581833,129.143356 157.412537,133.641754 153.378113,145.869415 
	C160.505463,153.185745 163.468460,162.915558 165.752335,172.558655 
	C167.498215,179.930252 168.060074,187.963959 167.136932,195.455261 
	C166.493881,200.673569 165.208282,206.722946 160.056290,210.575272 
	C156.741943,213.053513 153.973557,213.134445 150.970810,210.028214 
	C149.244186,208.242111 147.588440,206.267487 147.097351,203.979111 
	C145.755508,197.726135 141.133072,192.738129 140.779800,186.011566 
	C140.653442,183.606094 138.419174,180.832336 136.388458,179.133301 
	C134.112183,177.228790 132.884262,174.883911 131.500000,172.500000 
"/>
<path fill="none" opacity="1.000000" stroke="#000000" stroke-linecap="round" stroke-linejoin="round" stroke-width="6.000000"
	d="
M189.000000,267.250000 
	C184.922043,270.078918 183.461441,274.438385 184.978363,279.007172 
	C185.293961,279.957733 185.472580,280.999176 185.478577,282.000122 
	C185.542847,292.757538 184.822021,303.580292 188.466034,314.011871 
	C188.725479,314.754578 188.500000,315.666656 188.500000,316.500000 
"/>
<path fill="none" opacity="1.000000" stroke="#000000" stroke-linecap="round" stroke-linejoin="round" stroke-width="7.000000"
	d="
M183.500000,277.000000 
	C178.485870,277.705719 177.404861,280.743622 177.370132,285.499054 
	C177.293396,296.002106 176.489868,306.500000 177.500000,317.000000 
"/>
<path fill="none" opacity="1.000000" stroke="#000000" stroke-linecap="round" stroke-linejoin="round" stroke-width="4.000000"
	d="
M200.000000,137.500000 
	C205.463379,144.928253 212.730988,149.069092 222.000519,149.488525 
	C225.457428,149.644928 228.002136,148.890884 228.129959,144.503784 
	C228.184036,142.647751 229.666672,140.833344 230.500015,139.000000 
"/>
<path fill="none" opacity="1.000000" stroke="#000000" stroke-linecap="round" stroke-linejoin="round" stroke-width="10.000000"
	d="
M187.000000,255.500000 
	C191.141861,260.610718 194.694519,266.245270 202.492920,266.639832 
	C206.366928,266.835815 210.166656,268.500000 214.000000,269.500000 
"/>
<path fill="none" opacity="1.000000" stroke="#000000" stroke-linecap="round" stroke-linejoin="round" stroke-width="5.000000"
	d="
M222.000000,126.000000 
	C223.521088,128.487350 224.625107,131.148605 226.361832,133.597977 
	C230.662613,139.663498 238.136566,139.263382 243.530334,142.955688 
	C246.919724,145.275909 251.289520,146.057968 254.000000,149.500000 
"/>
<path fill="none" opacity="1.000000" stroke="#000000" stroke-linecap="round" stroke-linejoin="round" stroke-width="4.000000"
	d="
M140.500000,191.000000 
	C135.365372,192.160065 130.161255,191.175049 125.000298,191.504669 
	C122.831833,191.643173 120.666664,191.833344 118.500000,192.000015 
"/>
<path fill="none" opacity="1.000000" stroke="#000000" stroke-linecap="round" stroke-linejoin="round" stroke-width="4.000000"
	d="
M221.000000,190.500000 
	C223.456909,193.021545 224.299362,196.413651 225.394562,199.536972 
	C226.819702,203.601212 229.819290,206.659180 231.500000,210.500000 
"/>
<path fill="none" opacity="1.000000" stroke="#000000" stroke-linecap="round" stroke-linejoin="round" stroke-width="7.000000"
	d="
M235.500000,173.500000 
	C233.214340,172.832916 230.909271,172.387299 228.499451,172.486557 
	C222.994797,172.713333 221.355209,174.444672 222.047760,179.994034 
	C222.457687,183.278839 220.065887,184.866272 218.330597,187.243347 
	C213.024750,183.305313 207.381241,180.367752 200.500000,183.000000 
"/>
<path fill="none" opacity="1.000000" stroke="#000000" stroke-linecap="round" stroke-linejoin="round" stroke-width="4.000000"
	d="
M214.000000,192.000000 
	C208.734299,195.639450 202.588242,196.477753 196.500000,197.500000 
"/>
<path fill="none" opacity="1.000000" stroke="#000000" stroke-linecap="round" stroke-linejoin="round" stroke-width="6.000000"
	d="
M255.000000,154.000000 
	C253.720245,155.449844 251.737610,155.699142 250.377701,157.402359 
	C247.199615,161.382751 242.746979,163.208817 237.500000,162.500000 
"/>
<path fill="none" opacity="1.000000" stroke="#000000" stroke-linecap="round" stroke-linejoin="round" stroke-width="5.000000"
	d="
M195.500000,198.000000 
	C193.297195,197.901581 191.189468,197.763367 188.963181,197.129272 
	C182.664932,195.335388 179.804993,197.010666 176.435623,202.963562 
	C175.599548,204.440689 174.403030,205.660599 174.500000,207.500000 
"/>
<path fill="none" opacity="1.000000" stroke="#000000" stroke-linecap="round" stroke-linejoin="round" stroke-width="7.000000"
	d="
M165.000000,206.000000 
	C171.559647,208.356750 178.872574,208.202530 185.000000,212.000000 
"/>
<path fill="none" opacity="1.000000" stroke="#000000" stroke-linecap="round" stroke-linejoin="round" stroke-width="4.000000"
	d="
M123.000000,174.500000 
	C125.988998,176.125214 128.915787,178.144501 132.500000,176.000000 
"/>
<path fill="none" opacity="1.000000" stroke="#000000" stroke-linecap="round" stroke-linejoin="round" stroke-width="4.000000"
	d="
M209.000000,167.000000 
	C206.229401,170.008408 202.642502,167.846939 199.500000,168.500000 
"/>
<path fill="none" opacity="1.000000" stroke="#000000" stroke-linecap="round" stroke-linejoin="round" stroke-width="4.000000"
	d="
M185.500000,183.500000 
	C182.500000,183.500000 179.500000,183.500000 176.500000,183.500000 
"/>
<path fill="none" opacity="1.000000" stroke="#000000" stroke-linecap="round" stroke-linejoin="round" stroke-width="3.000000"
	d="
M230.500000,185.500000 
	C228.122528,183.728821 225.475098,182.677505 222.500000,182.500000 
"/>
</svg>