<svg version="1.1" id="Layer_1" xmlns="http://www.w3.org/2000/svg" xmlns:xlink="http://www.w3.org/1999/xlink" x="0px" y="0px"
	 width="100%" viewBox="0 0 370 384" enable-background="new 0 0 370 384" xml:space="preserve">
<path fill="none" opacity="1.000000" stroke="#000000" stroke-linecap="round" stroke-linejoin="round" stroke-width="6.000000"
	d="
M196.000000,109.500000 
	C200.251221,104.041870 198.589264,97.444923 198.737610,91.493462 
	C198.942123,83.288651 198.958725,75.183426 200.054291,66.973885 
	C201.315277,57.524830 201.188431,47.874069 198.505249,38.498497 
	C196.746246,32.352177 191.270325,27.946877 186.000000,28.500000 
	C180.333054,29.094749 175.562561,35.100845 174.352341,40.969547 
	C172.502594,49.939400 173.192169,59.049450 172.449356,68.037140 
	C171.674561,77.411499 167.790619,86.165092 168.139206,95.494797 
	C168.296036,99.692169 166.427933,103.773552 167.931046,108.024384 
	C168.721848,110.260841 166.265701,112.021141 166.390701,114.505501 
	C166.626266,119.187149 166.809113,123.853073 167.481369,128.502701 
	C168.483826,135.436127 166.267960,139.085205 159.483429,140.939346 
	C154.453125,142.314041 151.234344,145.477585 149.295258,150.019318 
	C147.540527,154.129227 146.019028,158.341461 146.456619,163.004074 
	C146.656525,165.134140 146.495560,167.008331 144.917755,169.125046 
	C142.440308,172.448639 141.256943,176.530426 142.404968,181.024277 
	C142.945724,183.141006 142.737686,184.950638 139.569305,186.178787 
	C130.395309,189.735001 123.788773,196.888962 118.160362,204.616791 
	C115.544594,208.208267 116.720413,213.160843 117.528000,217.494781 
	C119.270302,226.845078 121.884377,236.093887 122.839844,245.516235 
	C124.468300,261.575165 130.358887,275.866119 138.455109,289.526611 
	C140.423462,292.847809 142.405716,296.348816 143.378555,300.032074 
	C145.290817,307.272064 151.524551,309.706787 157.062836,310.618195 
	C163.641464,311.700806 170.944168,312.553284 177.506622,309.012268 
	C178.291351,308.588837 179.445770,308.567810 179.954742,307.961975 
	C183.288864,303.993439 187.280533,304.446411 191.500000,306.000000 
"/>
<path fill="none" opacity="1.000000" stroke="#000000" stroke-linecap="round" stroke-linejoin="round" stroke-width="6.000000"
	d="
M213.500000,145.000000 
	C213.402512,138.168716 213.507568,130.905518 216.799408,125.171906 
	C220.251785,119.158730 220.979523,112.713921 222.965164,106.488884 
	C225.048126,99.958755 227.376419,93.463638 229.198608,86.916122 
	C230.573288,81.976547 229.628632,76.273163 230.567383,71.012024 
	C231.427368,66.192139 230.428604,61.292225 231.851379,56.456272 
	C232.603516,53.899757 233.770493,52.294464 236.012756,51.537781 
	C244.533936,48.662212 254.380875,52.055954 254.675507,62.495045 
	C254.878510,69.687523 254.072662,76.833153 254.494781,84.000305 
	C254.533905,84.664665 254.712631,85.426125 254.468231,85.986137 
	C250.597977,94.854485 253.304337,104.379364 251.726669,113.539040 
	C250.631134,119.899582 250.056900,126.292290 248.087143,132.527527 
	C246.338470,138.062988 245.336792,143.834137 243.997452,149.499405 
	C243.681274,150.836792 243.667068,152.393570 242.941711,153.460358 
	C239.944275,157.868744 240.355759,162.601852 240.932831,167.507904 
	C241.251083,170.213608 241.341599,173.016617 239.554810,175.538834 
	C238.649490,176.816757 239.091003,178.384186 239.379456,180.021240 
	C240.327911,185.403870 241.303970,191.079132 237.887695,195.920761 
	C236.379959,198.057571 237.414688,199.451965 238.052734,200.977951 
	C240.036682,205.722809 242.230408,210.386673 244.359329,215.064026 
	C247.655441,222.305740 247.844376,230.202057 246.455322,237.992035 
	C244.969025,246.327499 244.234039,254.764374 242.109268,263.028107 
	C239.240784,274.184296 233.932465,283.820618 225.953934,291.954803 
	C221.084946,296.918823 218.549911,302.199097 218.735352,309.506714 
	C218.882523,315.306732 216.679184,321.169189 215.496445,326.999268 
	C214.346176,332.669281 212.891052,338.293488 212.064346,344.009308 
	C210.812653,352.663239 197.373718,360.484802 190.472824,358.599457 
	C186.976532,357.644257 185.555176,356.106323 185.969086,352.496460 
	C187.409241,339.936218 188.999222,327.401978 191.508026,315.001617 
	C191.611771,314.488892 192.081085,313.930359 191.963058,313.510376 
	C190.018005,306.589874 196.102295,302.324066 197.671219,296.546509 
	C198.222183,294.517578 200.415344,293.522949 203.518326,293.764130 
	C209.271072,294.211182 213.291458,297.698395 218.000000,300.000000 
"/>
<path fill="none" opacity="1.000000" stroke="#000000" stroke-linecap="round" stroke-linejoin="round" stroke-width="6.000000"
	d="
M148.000000,308.000000 
	C144.712265,314.827728 143.207230,322.243866 141.720459,329.544891 
	C141.022614,332.971802 139.245377,336.003540 138.974594,339.498016 
	C138.684341,343.243774 139.280930,345.941620 143.453613,347.615601 
	C151.611618,350.888428 159.351974,355.217896 167.548798,358.373230 
	C173.646362,360.720428 180.108887,360.898529 186.000000,357.000000 
"/>
<path fill="none" opacity="1.000000" stroke="#000000" stroke-linecap="round" stroke-linejoin="round" stroke-width="6.000000"
	d="
M169.000000,108.500000 
	C175.500000,108.333336 181.999176,108.091354 188.500214,108.019630 
	C196.111618,107.935669 197.565002,109.388374 197.481384,116.999794 
	C197.400787,124.334076 197.043716,131.667175 197.073715,138.999695 
	C197.082901,141.247650 195.474350,142.868591 195.500000,145.000000 
"/>
<path fill="none" opacity="1.000000" stroke="#000000" stroke-linecap="round" stroke-linejoin="round" stroke-width="6.000000"
	d="
M236.500000,198.000000 
	C233.433167,197.330490 231.743820,195.224045 230.480209,192.509216 
	C226.743958,184.482040 220.515366,179.265182 211.990219,177.037415 
	C202.120560,174.458282 202.089828,174.582184 197.990067,183.995682 
	C197.902466,184.196793 197.576172,184.304977 197.513687,184.504303 
	C196.689529,187.133881 197.346741,190.879654 193.488342,191.416138 
	C189.562866,191.961945 185.589432,192.153275 181.933289,189.595352 
	C180.475647,188.575546 179.153427,186.859802 177.000000,187.000000 
"/>
<path fill="none" opacity="1.000000" stroke="#000000" stroke-linecap="round" stroke-linejoin="round" stroke-width="10.000000"
	d="
M182.500000,244.500000 
	C183.093857,249.891281 182.468964,255.207672 181.497772,260.499603 
	C179.606812,270.803162 184.029938,278.558350 191.523117,284.972992 
	C194.623032,287.626801 197.310196,290.576111 199.500000,294.000000 
"/>
<path fill="none" opacity="1.000000" stroke="#000000" stroke-linecap="round" stroke-linejoin="round" stroke-width="6.000000"
	d="
M129.500000,209.500000 
	C132.917923,210.695175 135.963547,212.105896 140.074219,210.720154 
	C144.521545,209.220932 148.518631,212.910416 150.633377,217.437698 
	C152.107880,220.594345 154.894180,223.122559 156.986755,226.009598 
	C160.817444,231.294632 164.751831,236.445312 169.395721,241.103943 
	C171.619843,243.335098 173.954559,244.251907 176.448013,243.355423 
	C178.754318,242.526230 180.335098,243.813049 182.584167,244.032120 
	C188.612228,240.049210 188.747589,233.928452 188.000000,227.500000 
"/>
<path fill="none" opacity="1.000000" stroke="#000000" stroke-linecap="round" stroke-linejoin="round" stroke-width="6.000000"
	d="
M183.000000,148.500000 
	C188.532928,146.264450 193.995560,143.988892 200.032455,147.188782 
	C202.111588,148.290833 205.021988,148.870270 206.934341,147.873978 
	C217.319992,142.463318 224.007141,149.795486 231.499527,154.500748 
	C234.093826,156.129959 236.420471,158.233963 239.500000,159.000000 
"/>
<path fill="none" opacity="1.000000" stroke="#000000" stroke-linecap="round" stroke-linejoin="round" stroke-width="7.000000"
	d="
M143.000000,184.000000 
	C146.313324,183.367981 148.101669,180.261978 151.012253,179.028931 
	C154.084030,177.727600 156.587051,177.728821 159.118210,180.905823 
	C162.765442,185.483658 166.152313,190.222946 169.468948,195.021454 
	C170.864380,197.040375 172.303131,198.401962 174.995529,198.571091 
	C179.638107,198.862717 180.997025,203.506989 183.964890,206.041122 
	C186.637146,208.322861 188.835037,210.885040 187.813873,215.015793 
	C186.905014,218.692245 190.337860,221.459167 190.500000,225.000000 
"/>
<path fill="none" opacity="1.000000" stroke="#000000" stroke-linecap="round" stroke-linejoin="round" stroke-width="10.000000"
	d="
M186.000000,164.500000 
	C178.411270,169.473618 176.087250,176.954254 176.000000,185.500000 
"/>
<path fill="none" opacity="1.000000" stroke="#000000" stroke-linecap="round" stroke-linejoin="round" stroke-width="5.000000"
	d="
M230.500000,86.500000 
	C238.132751,86.622375 244.625549,90.427704 251.500000,93.000000 
"/>
<path fill="none" opacity="1.000000" stroke="#000000" stroke-linecap="round" stroke-linejoin="round" stroke-width="6.000000"
	d="
M221.000000,120.000000 
	C227.952179,121.390350 235.200623,121.676460 241.500000,125.500000 
"/>
<path fill="none" opacity="1.000000" stroke="#000000" stroke-linecap="round" stroke-linejoin="round" stroke-width="4.000000"
	d="
M150.500000,219.000000 
	C144.186935,223.173523 137.265213,226.187698 130.500000,229.500000 
"/>
<path fill="none" opacity="1.000000" stroke="#000000" stroke-linecap="round" stroke-linejoin="round" stroke-width="5.000000"
	d="
M203.000000,220.499985 
	C198.333328,222.499985 193.619492,224.399841 189.029099,226.561752 
	C187.673615,227.200134 186.656540,226.935150 185.501968,226.494843 
	C182.509903,225.353775 179.994675,226.067444 178.011826,228.509598 
	C175.830658,231.195999 175.500107,234.276352 176.522049,237.492996 
	C177.064133,239.199249 177.833328,240.833328 178.500000,242.500000 
"/>
<path fill="none" opacity="1.000000" stroke="#000000" stroke-linecap="round" stroke-linejoin="round" stroke-width="5.000000"
	d="
M214.000000,301.000000 
	C207.920471,302.472717 201.895477,304.449799 195.500000,303.000000 
"/>
<path fill="none" opacity="1.000000" stroke="#000000" stroke-linecap="round" stroke-linejoin="round" stroke-width="7.000000"
	d="
M238.000000,178.000000 
	C234.566788,178.665482 231.419357,176.781235 227.997101,176.935699 
	C225.029221,177.069672 222.240036,177.301453 220.000000,179.500000 
"/>
<path fill="none" opacity="1.000000" stroke="#000000" stroke-linecap="round" stroke-linejoin="round" stroke-width="5.000000"
	d="
M233.500000,241.500000 
	C229.833328,239.666672 226.268524,237.568314 222.459824,236.104553 
	C220.350601,235.293961 217.833328,232.863831 215.500000,236.000000 
"/>
<path fill="none" opacity="1.000000" stroke="#000000" stroke-linecap="round" stroke-linejoin="round" stroke-width="6.000000"
	d="
M168.000000,136.500000 
	C173.786911,139.193054 178.070892,143.883331 181.778534,148.671494 
	C184.195068,151.792282 184.552948,156.550507 185.796341,160.563110 
	C186.527771,162.923615 187.127869,163.939819 189.403076,165.178085 
	C194.270111,167.826996 200.334930,169.490601 202.000000,176.000000 
"/>
<path fill="none" opacity="1.000000" stroke="#000000" stroke-linecap="round" stroke-linejoin="round" stroke-width="3.000000"
	d="
M172.500000,244.500000 
	C170.164642,249.970001 167.151276,255.240570 167.500000,261.500000 
"/>
<path fill="none" opacity="1.000000" stroke="#000000" stroke-linecap="round" stroke-linejoin="round" stroke-width="6.000000"
	d="
M217.500000,222.000000 
	C214.661987,222.087158 211.853439,221.638046 208.980057,222.427399 
	C205.507904,223.381226 203.582077,220.408188 201.553696,218.444534 
	C197.799164,214.809860 194.283249,210.986816 188.500000,211.000000 
"/>
<path fill="none" opacity="1.000000" stroke="#000000" stroke-linecap="round" stroke-linejoin="round" stroke-width="7.000000"
	d="
M173.000000,199.000000 
	C171.124710,207.107224 175.744110,213.409790 179.138763,219.927734 
	C180.094482,221.762833 181.043213,223.643097 182.000000,225.500000 
"/>
<path fill="none" opacity="1.000000" stroke="#000000" stroke-linecap="round" stroke-linejoin="round" stroke-width="4.000000"
	d="
M188.500000,74.500008 
	C183.500000,74.666672 178.500000,74.833336 173.500000,75.000008 
"/>
<path fill="none" opacity="1.000000" stroke="#000000" stroke-linecap="round" stroke-linejoin="round" stroke-width="3.000000"
	d="
M173.000000,209.000000 
	C168.498993,209.216476 165.201324,211.191681 163.500000,215.500000 
"/>
<path fill="none" opacity="1.000000" stroke="#000000" stroke-linecap="round" stroke-linejoin="round" stroke-width="6.000000"
	d="
M175.000000,185.500000 
	C177.754761,185.700333 176.534698,187.895233 176.399261,188.987503 
	C176.022858,192.023499 175.166672,195.000000 174.500000,198.000000 
"/>
</svg>