<svg version="1.1" id="Layer_1" xmlns="http://www.w3.org/2000/svg" xmlns:xlink="http://www.w3.org/1999/xlink" x="0px" y="0px"
	 width="100%" viewBox="0 0 370 384" enable-background="new 0 0 370 384" xml:space="preserve">
<path fill="none" opacity="1.000000" stroke="#000000" stroke-linecap="round" stroke-linejoin="round" stroke-width="6.000000"
	d="
M132.000000,170.500000 
	C131.392258,175.925705 129.267365,180.899384 127.568420,186.022690 
	C125.259171,192.986389 122.078438,199.811432 122.939987,207.506714 
	C123.046432,208.457489 122.390083,209.523331 121.990173,210.495972 
	C120.249863,214.728699 120.037056,219.046326 120.986130,223.502960 
	C123.442436,235.037201 124.157738,246.793213 124.908539,258.505859 
	C125.631729,269.787781 126.946762,281.046143 131.208984,291.414093 
	C135.595123,302.083496 138.435242,303.751740 148.999847,301.749176 
	C151.167603,301.338257 153.431351,301.181091 155.472046,300.424591 
	C157.455200,299.689423 159.252975,297.314819 161.442123,299.072113 
	C164.167053,301.259430 165.549332,304.612549 164.887558,307.977905 
	C163.904007,312.979706 163.009903,318.010742 161.902618,322.978302 
	C160.534546,329.115875 159.970947,335.257660 159.998047,341.500000 
	C160.009628,344.166626 160.000000,346.833344 160.000000,349.500000 
"/>
<path fill="none" opacity="1.000000" stroke="#000000" stroke-linecap="round" stroke-linejoin="round" stroke-width="5.000000"
	d="
M245.000000,238.000000 
	C248.637512,234.428940 248.827148,229.387802 250.112732,224.960144 
	C253.125275,214.584763 254.841095,203.813232 258.169525,193.555008 
	C261.210388,184.183029 263.207642,174.742767 263.978363,164.998291 
	C264.991364,152.190231 269.805847,140.186829 271.646881,127.521355 
	C273.151062,117.173317 275.915833,106.973686 276.425018,96.496353 
	C277.099884,82.610680 280.490753,68.980492 280.028870,54.999046 
	C279.825073,48.830757 277.944855,46.171429 272.000000,44.500004 
	C266.613892,42.985672 261.495087,44.763039 259.050781,49.526058 
	C255.525436,56.395634 254.147461,63.986027 253.126251,71.517120 
	C252.382980,76.998535 249.164124,82.196663 251.000000,88.000000 
	C247.660187,91.503815 246.866867,96.255592 245.701752,100.554680 
	C244.409058,105.324600 242.104462,110.260445 244.000000,115.500000 
"/>
<path fill="none" opacity="1.000000" stroke="#000000" stroke-linecap="round" stroke-linejoin="round" stroke-width="6.000000"
	d="
M243.000000,240.000000 
	C240.509521,245.944016 239.702148,252.342667 238.019974,258.505463 
	C234.212738,272.453369 230.047852,286.241119 223.074860,299.040771 
	C221.470108,301.986511 219.332489,304.265991 217.000000,306.500000 
"/>
<path fill="none" opacity="1.000000" stroke="#000000" stroke-linecap="round" stroke-linejoin="round" stroke-width="3.000000"
	d="
M166.500000,54.500000 
	C163.811432,46.351368 162.508102,45.225006 156.501282,44.969788 
	C150.489014,44.714340 145.405731,47.570843 144.782608,56.519676 
	C144.068268,66.778587 142.751617,77.278809 146.269638,87.578682 
	C147.100159,90.010223 149.023621,91.591660 149.500000,94.000000 
"/>
<path fill="none" opacity="1.000000" stroke="#000000" stroke-linecap="round" stroke-linejoin="round" stroke-width="6.000000"
	d="
M138.000000,303.000000 
	C136.843124,304.654175 136.418350,306.442139 136.462769,308.500793 
	C136.707367,319.832458 136.848938,331.166473 136.988815,342.500153 
	C137.022934,345.265320 137.686539,346.890656 140.968277,347.639099 
	C147.103424,349.038300 153.020462,351.481873 159.500000,350.000000 
	C163.432846,354.101959 169.226212,350.278778 173.601807,353.355194 
	C175.130173,354.429718 177.922226,354.306152 179.984650,353.918365 
	C189.044113,352.215088 198.238983,351.056580 206.997162,347.991882 
	C218.396698,344.002838 221.020981,340.084564 218.881332,328.521973 
	C217.886307,323.144836 217.398621,317.933746 217.926453,312.492859 
	C218.461639,306.976257 217.090851,305.761780 211.516296,304.431732 
	C209.309998,303.905273 207.126038,303.815399 205.007019,304.060638 
	C195.695877,305.138062 187.009903,302.918732 178.492981,299.517578 
	C177.715485,299.207092 176.839706,299.142670 176.014008,298.964996 
	C172.178543,300.647369 170.319977,305.465607 165.500000,305.500000 
"/>
<path fill="none" opacity="1.000000" stroke="#000000" stroke-linecap="round" stroke-linejoin="round" stroke-width="5.000000"
	d="
M168.500000,56.500000 
	C169.397095,68.409760 171.284927,80.191208 172.918350,92.011284 
	C174.058701,100.263283 176.009384,108.425903 177.017197,116.559822 
	C177.873962,123.474686 180.030273,130.340836 179.585526,137.505310 
	C179.187698,143.914536 185.738541,148.902008 191.422943,146.329712 
	C194.747452,144.825272 198.043640,144.089920 201.500000,143.500000 
"/>
<path fill="none" opacity="1.000000" stroke="#000000" stroke-linecap="round" stroke-linejoin="round" stroke-width="8.000000"
	d="
M177.000000,199.000000 
	C174.166672,198.833328 171.326584,198.740372 168.501663,198.481781 
	C164.768478,198.140076 163.239365,199.990585 162.976135,203.498215 
	C162.698013,207.204239 164.877243,208.647446 168.004150,208.958206 
	C172.337524,209.388916 176.656662,208.406631 181.827972,207.842117 
	C180.539337,211.465424 178.896561,213.767181 177.019913,216.016602 
	C170.407028,223.943039 165.684586,232.785965 163.359558,242.967926 
	C162.750305,245.636032 164.237122,247.605621 164.045349,250.003632 
	C163.673294,254.656097 163.819687,259.338898 163.653641,264.005463 
	C163.386780,271.505219 164.709900,278.899139 167.395813,286.039185 
	C168.175720,288.112427 169.773682,289.128448 171.077682,290.421661 
	C173.436462,292.760925 175.287201,295.237183 176.000000,298.500000 
"/>
<path fill="none" opacity="1.000000" stroke="#000000" stroke-linecap="round" stroke-linejoin="round" stroke-width="6.000000"
	d="
M222.500000,31.500000 
	C222.000977,38.705379 224.067505,45.768257 223.566193,53.004585 
	C223.195312,58.358265 223.243546,63.680622 222.179520,69.035667 
	C221.421249,72.851891 221.822144,77.107010 222.631363,80.972496 
	C223.609436,85.644592 223.598755,90.324799 224.116348,94.987083 
	C225.031479,103.230400 224.778397,111.276772 223.783447,119.534157 
	C223.139694,124.877151 222.047455,130.151794 221.500397,135.500046 
	C220.880783,141.557327 219.588898,143.301346 213.488068,143.872574 
	C209.886673,144.209793 206.166672,147.601105 202.500000,144.000000 
"/>
<path fill="none" opacity="1.000000" stroke="#000000" stroke-linecap="round" stroke-linejoin="round" stroke-width="5.000000"
	d="
M179.000000,141.500000 
	C175.257126,141.535156 171.961853,141.030746 169.416702,137.561111 
	C166.448288,133.514465 161.699127,132.073120 156.986694,131.062012 
	C155.256577,130.690811 152.914352,130.541412 152.092361,132.538025 
	C151.100952,134.946060 149.070160,136.240005 147.473602,137.975708 
	C139.464767,146.682556 139.393448,154.202652 146.384232,164.081924 
	C149.561417,168.571838 153.175186,172.728607 156.182159,177.382294 
	C158.301361,180.662048 162.823792,181.555832 166.521271,182.943329 
	C169.693146,184.133575 172.412827,185.887070 175.015594,187.980606 
	C178.178909,190.525024 179.728653,193.133179 178.165726,197.558533 
	C176.989594,200.888687 180.408066,203.981323 180.500000,207.500000 
"/>
<path fill="none" opacity="1.000000" stroke="#000000" stroke-linecap="round" stroke-linejoin="round" stroke-width="5.000000"
	d="
M169.500000,305.500000 
	C170.727249,308.572571 170.917206,311.641449 170.601929,315.009552 
	C169.464005,327.166290 169.706894,339.348755 171.000000,351.500000 
"/>
<path fill="none" opacity="1.000000" stroke="#000000" stroke-linecap="round" stroke-linejoin="round" stroke-width="5.000000"
	d="
M198.000000,30.500000 
	C198.275940,36.114258 196.473495,41.492378 195.733109,46.963886 
	C194.667892,54.835854 194.191284,62.678314 194.752090,70.481880 
	C194.949234,73.224831 193.848373,75.456261 193.964066,78.001633 
	C194.388153,87.330841 194.386719,96.689880 195.157623,105.986931 
	C195.414261,109.082207 193.449997,110.942802 192.782043,113.441742 
	C191.790421,117.151581 191.619598,120.952736 191.716537,124.494072 
	C191.921936,131.996872 189.695435,139.515915 191.919846,147.023743 
	C192.483719,148.926865 193.264206,150.142212 194.989243,151.021103 
	C203.032684,155.119141 207.555984,162.404404 211.419830,170.040573 
	C214.341324,175.814362 218.067657,180.977158 222.105484,185.913727 
	C223.248764,187.311478 225.965439,188.720932 227.443878,188.301956 
	C231.845657,187.054535 235.775970,190.092102 240.009171,189.036774 
	C240.440796,188.929184 241.000000,189.333328 241.500000,189.500000 
"/>
<path fill="none" opacity="1.000000" stroke="#000000" stroke-linecap="round" stroke-linejoin="round" stroke-width="4.000000"
	d="
M155.500000,91.500000 
	C154.333328,92.166672 153.219894,93.264160 151.989639,93.416138 
	C148.786697,93.811813 147.843750,96.303925 148.125946,98.483696 
	C149.224625,106.970306 147.338074,115.591331 149.480713,124.004913 
	C150.155121,126.653114 151.022186,129.191132 152.500000,131.500000 
"/>
<path fill="none" opacity="1.000000" stroke="#000000" stroke-linecap="round" stroke-linejoin="round" stroke-width="4.000000"
	d="
M227.500000,189.000000 
	C227.379776,192.646027 228.869492,195.825043 231.575241,197.901962 
	C234.766510,200.351532 236.201370,203.064606 235.543121,207.007202 
	C235.412384,207.790314 235.522125,208.619186 235.926956,209.532379 
	C238.595581,215.552399 239.516953,221.940918 239.513458,228.500000 
	C239.510757,233.563095 240.870972,236.683304 244.000000,239.250000 
"/>
<path fill="none" opacity="1.000000" stroke="#000000" stroke-linecap="round" stroke-linejoin="round" stroke-width="6.000000"
	d="
M220.500000,143.000000 
	C221.880493,145.239029 224.219162,146.115173 226.493164,145.920303 
	C237.899765,144.942734 247.644409,149.203537 257.021545,154.964905 
	C259.040497,156.205338 261.333344,157.000000 263.500000,158.000000 
"/>
<path fill="none" opacity="1.000000" stroke="#000000" stroke-linecap="round" stroke-linejoin="round" stroke-width="5.000000"
	d="
M171.500000,140.500000 
	C168.529236,146.554947 162.935089,150.275787 158.396255,154.898132 
	C156.596390,156.731110 153.520523,155.450867 151.568985,154.374878 
	C148.623810,152.751053 145.650070,152.491348 142.500000,152.500000 
"/>
<path fill="none" opacity="1.000000" stroke="#000000" stroke-linecap="round" stroke-linejoin="round" stroke-width="5.000000"
	d="
M271.500000,121.000000 
	C263.354462,117.525620 254.825790,116.080154 246.000793,115.947075 
	C243.572433,115.910454 242.531265,117.212219 241.483932,118.990540 
	C236.935364,126.713829 234.578888,135.367065 231.041351,143.517944 
	C230.885162,143.877823 231.333328,144.500000 231.500000,145.000000 
"/>
<path fill="none" opacity="1.000000" stroke="#000000" stroke-linecap="round" stroke-linejoin="round" stroke-width="6.000000"
	d="
M223.500000,108.000000 
	C214.484467,103.510483 205.207489,106.210831 196.000000,107.000000 
"/>
<path fill="none" opacity="1.000000" stroke="#000000" stroke-linecap="round" stroke-linejoin="round" stroke-width="2.000000"
	d="
M221.000000,69.500000 
	C215.333328,69.666672 209.664368,70.006294 204.000931,69.930756 
	C200.934418,69.889847 198.868134,72.311363 196.000000,72.500000 
"/>
<path fill="none" opacity="1.000000" stroke="#000000" stroke-linecap="round" stroke-linejoin="round" stroke-width="4.000000"
	d="
M186.500000,212.000000 
	C190.796936,221.548523 198.881958,226.046280 208.500000,228.500000 
"/>
<path fill="none" opacity="1.000000" stroke="#000000" stroke-linecap="round" stroke-linejoin="round" stroke-width="5.000000"
	d="
M142.500000,201.500000 
	C146.236267,201.120621 149.244232,202.097183 152.074905,204.925018 
	C158.098282,210.942322 164.631073,216.415314 172.500000,220.000000 
"/>
<path fill="none" opacity="1.000000" stroke="#000000" stroke-linecap="round" stroke-linejoin="round" stroke-width="5.000000"
	d="
M275.500000,90.000000 
	C267.594360,88.200844 259.577606,87.735527 251.500000,88.000000 
"/>
<path fill="none" opacity="1.000000" stroke="#000000" stroke-linecap="round" stroke-linejoin="round" stroke-width="6.000000"
	d="
M130.500000,181.000000 
	C132.210846,181.453812 134.185349,182.010132 134.922363,183.537460 
	C137.753448,189.404297 142.682007,193.424301 146.943253,198.052246 
	C147.677536,198.849731 147.666672,200.333328 148.000015,201.500000 
"/>
<path fill="none" opacity="1.000000" stroke="#000000" stroke-linecap="round" stroke-linejoin="round" stroke-width="5.000000"
	d="
M193.500000,151.000000 
	C189.262512,158.991974 183.770935,165.998596 177.000000,172.000000 
"/>
<path fill="none" opacity="1.000000" stroke="#000000" stroke-linecap="round" stroke-linejoin="round" stroke-width="3.000000"
	d="
M176.500000,121.000000 
	C174.302032,120.770744 172.859741,122.727432 171.399109,123.156700 
	C168.428619,124.029694 165.676575,125.926254 162.499573,125.963531 
	C159.335159,126.000679 158.050064,128.042664 157.000000,130.500000 
"/>
<path fill="none" opacity="1.000000" stroke="#000000" stroke-linecap="round" stroke-linejoin="round" stroke-width="3.000000"
	d="
M164.500000,305.500000 
	C161.070084,304.916199 157.662384,305.916779 155.125183,307.680115 
	C152.570389,309.455719 150.161362,309.438477 147.500000,309.500000 
"/>
<path fill="none" opacity="1.000000" stroke="#000000" stroke-linecap="round" stroke-linejoin="round" stroke-width="3.000000"
	d="
M142.000000,161.000000 
	C138.962387,162.909393 135.535019,164.373352 134.000000,168.000000 
"/>
<path fill="none" opacity="1.000000" stroke="#000000" stroke-linecap="round" stroke-linejoin="round" stroke-width="3.000000"
	d="
M233.000000,207.000000 
	C229.506531,208.053223 229.460983,212.061798 227.000000,214.000000 
"/>
<path fill="none" opacity="1.000000" stroke="#000000" stroke-linecap="round" stroke-linejoin="round" stroke-width="3.000000"
	d="
M211.500000,23.500000 
	C215.271164,24.171398 218.881332,25.070887 220.000000,29.500000 
"/>
<path fill="none" opacity="1.000000" stroke="#000000" stroke-linecap="round" stroke-linejoin="round" stroke-width="3.000000"
	d="
M166.500000,294.500000 
	C164.139145,295.139160 162.172012,296.172028 162.000000,299.000000 
"/>
<path fill="none" opacity="1.000000" stroke="#000000" stroke-linecap="round" stroke-linejoin="round" stroke-width="3.000000"
	d="
M130.500000,206.500015 
	C128.166672,207.000015 125.833336,207.500015 123.500000,208.000015 
"/>
<path fill="none" opacity="1.000000" stroke="#000000" stroke-linecap="round" stroke-linejoin="round" stroke-width="3.000000"
	d="
M239.500000,182.000000 
	C237.102768,181.917313 234.887939,182.427475 233.000000,184.000000 
"/>
<path fill="none" opacity="1.000000" stroke="#000000" stroke-linecap="round" stroke-linejoin="round" stroke-width="3.000000"
	d="
M257.500000,193.000000 
	C255.650620,191.762970 253.501450,192.324646 251.500000,192.000000 
"/>
<path fill="none" opacity="1.000000" stroke="#000000" stroke-linecap="round" stroke-linejoin="round" stroke-width="3.000000"
	d="
M156.000000,180.000000 
	C154.166672,181.500000 152.333328,183.000000 150.500000,184.500000 
"/>
<path fill="none" opacity="1.000000" stroke="#000000" stroke-linecap="round" stroke-linejoin="round" stroke-width="3.000000"
	d="
M158.000000,248.000000 
	C157.083557,249.719757 155.056259,251.136551 156.500000,253.500000 
"/>
</svg>