<svg version="1.1" id="Layer_1" xmlns="http://www.w3.org/2000/svg" xmlns:xlink="http://www.w3.org/1999/xlink" x="0px" y="0px"
	 width="100%" viewBox="0 0 370 384" enable-background="new 0 0 370 384" xml:space="preserve">
<path fill="none" opacity="1.000000" stroke="#000000" stroke-linecap="round" stroke-linejoin="round" stroke-width="5.000000"
	d="
M302.500000,170.000000 
	C306.582214,165.791107 307.167419,159.833420 310.000824,155.000488 
	C313.521332,148.995758 316.136139,142.531250 321.857513,137.826706 
	C324.918976,135.309341 328.315369,133.530151 331.600403,131.678101 
	C334.815491,129.865494 336.175781,127.573967 335.367950,124.535103 
	C334.498749,121.265587 332.411163,118.581734 328.503693,117.976173 
	C311.879913,115.399864 298.308990,120.774124 287.499908,133.499924 
	C283.084717,138.698044 277.590881,143.044739 275.414703,149.973206 
	C274.623779,152.491348 271.032288,151.897858 269.480499,153.985504 
	C266.716583,157.703781 263.807281,161.313583 261.010254,165.007767 
	C259.458954,167.056686 257.970032,169.121735 255.000000,169.000000 
"/>
<path fill="none" opacity="1.000000" stroke="#000000" stroke-linecap="round" stroke-linejoin="round" stroke-width="5.000000"
	d="
M301.500000,170.750000 
	C301.166656,171.000000 300.649414,171.181213 300.526459,171.509903 
	C295.310089,185.456726 287.351807,198.331665 284.052063,213.011703 
	C282.648560,219.255814 277.982178,223.269943 274.401703,227.924393 
	C264.311554,241.041077 254.803574,254.709290 241.990341,265.488525 
	C240.896652,266.408600 239.708664,267.234283 238.493362,267.989319 
	C228.736618,274.050720 230.296112,283.442902 231.594147,292.486481 
	C232.527664,298.990326 231.088150,304.214661 226.578171,309.072571 
	C222.232849,313.753113 218.375244,318.825592 213.038727,322.555420 
	C209.194992,325.241913 205.016159,327.590820 200.511673,327.311676 
	C194.508926,326.939667 188.266144,331.042847 182.500000,326.500000 
	C173.509659,328.650055 165.794205,323.697510 157.512589,321.940674 
	C154.532974,321.308594 151.802124,319.668365 148.946274,318.650787 
	C145.934616,317.577667 144.822464,316.132629 144.391327,313.015015 
	C143.627121,307.489014 141.372482,302.231201 141.437332,296.499298 
	C141.465729,293.989288 141.962906,291.718231 143.000000,289.500000 
"/>
<path fill="none" opacity="1.000000" stroke="#000000" stroke-linecap="round" stroke-linejoin="round" stroke-width="5.000000"
	d="
M72.000000,95.000000 
	C65.870964,88.474838 58.458134,88.168007 53.563602,94.548790 
	C51.279659,97.526260 51.149673,101.406105 51.566025,104.992332 
	C52.508003,113.106079 55.070072,120.843010 60.589874,126.918343 
	C67.937729,135.005722 73.175011,144.953476 82.250000,151.500000 
	C85.111320,159.382538 92.416992,163.524796 97.286552,169.669159 
	C99.392906,172.326935 99.026337,176.872528 100.036690,180.489746 
	C101.212776,184.700348 102.643639,188.840881 104.006660,192.997818 
	C105.295349,196.928055 105.685936,201.045410 106.805809,205.054245 
	C111.802605,222.941437 116.737076,240.860092 122.670425,258.442474 
	C125.970932,268.222931 131.718674,276.787048 138.717575,284.748291 
	C142.652618,289.224426 146.542801,289.339111 150.984985,288.860626 
	C155.184158,288.408325 159.256760,288.163055 163.506088,288.281647 
	C168.399460,288.418213 173.750641,287.903076 177.000000,283.000000 
"/>
<path fill="none" opacity="1.000000" stroke="#000000" stroke-linecap="round" stroke-linejoin="round" stroke-width="5.000000"
	d="
M76.500000,100.500000 
	C83.961960,112.005638 92.667915,122.374496 102.883698,131.628387 
	C108.532578,136.745392 113.121033,143.070343 117.902130,149.077896 
	C118.908546,150.342468 119.430786,152.544785 117.028076,154.044968 
	C110.048286,158.402863 104.686020,164.689041 98.500000,170.000000 
"/>
<path fill="none" opacity="1.000000" stroke="#000000" stroke-linecap="round" stroke-linejoin="round" stroke-width="6.000000"
	d="
M245.500000,181.000000 
	C246.833344,179.833344 248.135086,178.628082 249.505325,177.506500 
	C256.180786,172.042511 256.063202,172.107742 252.541809,164.480698 
	C250.021149,159.021179 247.063766,153.675278 246.482666,147.501633 
	C246.450104,147.155685 246.231339,146.774872 245.990570,146.508530 
	C239.304871,139.112854 239.018448,128.297256 232.083801,120.921219 
	C227.843338,116.410828 223.601761,111.956085 218.459442,108.561440 
	C213.639786,105.379776 198.229874,107.217293 194.596344,111.580231 
	C191.616180,115.158638 189.975937,119.400063 190.373978,124.509819 
	C190.890167,131.136276 190.435013,137.834137 190.518738,144.499771 
	C190.598297,150.834183 189.862991,157.384598 191.225113,163.449448 
	C193.321335,172.782913 193.260773,183.131805 201.000000,190.500000 
"/>
<path fill="none" opacity="1.000000" stroke="#000000" stroke-linecap="round" stroke-linejoin="round" stroke-width="4.000000"
	d="
M180.500000,117.500000 
	C173.409012,116.711746 166.847229,118.816025 160.530716,121.570427 
	C156.011337,123.541153 153.486969,127.673447 151.601532,132.043808 
	C151.305130,132.730835 150.999924,133.741928 151.357376,135.039291 
	C155.675522,150.712082 156.926163,167.098587 162.445572,182.519485 
	C163.818344,186.354965 165.497208,190.022079 167.556259,193.466370 
	C171.017380,199.255920 174.833328,204.833328 178.500000,210.500000 
"/>
<path fill="none" opacity="1.000000" stroke="#000000" stroke-linecap="round" stroke-linejoin="round" stroke-width="8.000000"
	d="
M186.499985,218.000000 
	C184.166656,222.666656 181.463760,227.190689 179.593567,232.036118 
	C177.259094,238.084518 175.426727,244.246307 177.304749,251.053864 
	C177.928635,253.315338 179.316544,254.929489 180.129044,256.948059 
	C181.452530,260.236145 183.818680,263.069305 185.011673,266.495941 
	C186.652969,271.210266 190.788254,272.357666 195.006790,272.951782 
	C202.634415,274.026062 210.534866,272.385681 218.014542,275.211517 
	C218.570404,275.421509 219.425735,275.261383 219.985001,274.971100 
	C223.572983,273.108826 226.837494,273.958374 230.000000,276.000000 
"/>
<path fill="none" opacity="1.000000" stroke="#000000" stroke-linecap="round" stroke-linejoin="round" stroke-width="4.000000"
	d="
M185.000000,276.500000 
	C188.042099,279.664673 186.950348,284.051636 187.160553,287.520569 
	C187.657623,295.723297 188.802704,303.852356 189.704803,311.977264 
	C190.273483,317.099182 192.833328,322.000000 194.499985,327.000000 
"/>
<path fill="none" opacity="1.000000" stroke="#000000" stroke-linecap="round" stroke-linejoin="round" stroke-width="5.000000"
	d="
M119.000000,154.000000 
	C121.216019,156.013596 122.497482,158.348221 122.041336,161.505966 
	C121.816887,163.059769 122.683830,164.354828 123.351746,165.817688 
	C126.490967,172.693207 127.446716,180.264664 129.483047,187.504776 
	C129.613358,187.968109 129.289093,188.661987 129.530624,188.976471 
	C136.911713,198.586685 142.305084,210.202881 155.001358,214.495987 
	C164.121216,217.579727 172.071320,218.261566 177.500000,211.000000 
"/>
<path fill="none" opacity="1.000000" stroke="#000000" stroke-linecap="round" stroke-linejoin="round" stroke-width="4.000000"
	d="
M150.500000,134.000000 
	C148.058868,134.003082 145.817841,133.475296 143.463730,132.597244 
	C134.776428,129.356934 124.224060,134.711914 121.976486,141.992737 
	C121.357666,143.997360 120.583641,145.985016 119.000000,147.500000 
"/>
<path fill="none" opacity="1.000000" stroke="#000000" stroke-linecap="round" stroke-linejoin="round" stroke-width="3.000000"
	d="
M218.500000,276.000000 
	C219.121094,286.037903 218.025208,296.244049 221.484406,306.005524 
	C221.962784,307.355499 222.533020,308.528046 224.000000,309.000000 
"/>
<path fill="none" opacity="1.000000" stroke="#000000" stroke-linecap="round" stroke-linejoin="round" stroke-width="6.000000"
	d="
M243.500000,182.500000 
	C242.500000,182.500000 241.499908,182.508911 240.500015,182.498505 
	C235.210922,182.443466 230.969940,183.948364 228.937927,189.477188 
	C228.151505,191.616943 226.897507,193.687729 225.454071,195.462646 
	C221.979309,199.735397 218.253662,203.599365 212.000107,203.605804 
	C209.832764,203.608032 207.666672,204.833344 205.500000,205.500015 
"/>
<path fill="none" opacity="1.000000" stroke="#000000" stroke-linecap="round" stroke-linejoin="round" stroke-width="6.000000"
	d="
M240.500000,140.500000 
	C231.930161,146.148956 227.946716,155.483856 230.046478,165.490250 
	C230.599045,168.123398 229.303574,170.426102 229.378387,173.003525 
	C229.490814,176.877014 229.860657,180.468384 232.500000,183.500000 
"/>
<path fill="none" opacity="1.000000" stroke="#000000" stroke-linecap="round" stroke-linejoin="round" stroke-width="3.000000"
	d="
M129.000000,189.000000 
	C120.965218,189.719849 112.908058,190.334534 105.500000,194.000000 
"/>
<path fill="none" opacity="1.000000" stroke="#000000" stroke-linecap="round" stroke-linejoin="round" stroke-width="4.000000"
	d="
M197.000000,278.000000 
	C197.812378,280.771027 200.431656,281.202332 202.510162,281.383270 
	C207.302444,281.800476 212.076279,281.193878 216.500000,279.000000 
"/>
<path fill="none" opacity="1.000000" stroke="#000000" stroke-linecap="round" stroke-linejoin="round" stroke-width="3.000000"
	d="
M253.500000,176.000000 
	C256.666656,182.833328 259.833344,189.666672 263.000000,196.500000 
"/>
<path fill="none" opacity="1.000000" stroke="#000000" stroke-linecap="round" stroke-linejoin="round" stroke-width="6.000000"
	d="
M204.500000,207.000000 
	C201.045807,213.363434 194.606842,215.195648 188.489365,217.471405 
	C187.030197,218.014221 185.987137,217.059296 184.974915,216.024536 
	C183.574890,214.593399 182.000000,213.333328 180.500000,212.000000 
"/>
<path fill="none" opacity="1.000000" stroke="#000000" stroke-linecap="round" stroke-linejoin="round" stroke-width="6.000000"
	d="
M218.500000,192.500000 
	C218.765930,190.583939 217.363480,190.240097 216.040588,189.433441 
	C211.317703,186.553513 206.929276,188.727997 202.512634,190.042450 
	C199.823578,190.842773 200.454056,192.945007 200.970657,195.007355 
	C201.926422,198.822922 205.607239,201.627670 205.000000,206.000000 
"/>
<path fill="none" opacity="1.000000" stroke="#000000" stroke-linecap="round" stroke-linejoin="round" stroke-width="4.000000"
	d="
M195.000000,183.000000 
	C189.170013,186.124924 183.197464,188.844086 176.500000,189.500000 
"/>
<path fill="none" opacity="1.000000" stroke="#000000" stroke-linecap="round" stroke-linejoin="round" stroke-width="4.000000"
	d="
M165.500000,192.000000 
	C160.484543,196.050491 155.230118,199.593170 148.500000,200.000000 
"/>
<path fill="none" opacity="1.000000" stroke="#000000" stroke-linecap="round" stroke-linejoin="round" stroke-width="4.000000"
	d="
M230.500000,127.500000 
	C230.500000,131.000000 230.568054,134.501770 230.477386,137.999420 
	C230.411011,140.559570 230.957001,142.798584 233.000000,144.500000 
"/>
<path fill="none" opacity="1.000000" stroke="#000000" stroke-linecap="round" stroke-linejoin="round" stroke-width="5.000000"
	d="
M172.000000,203.000000 
	C166.618744,205.353912 161.362350,207.817047 161.500000,215.000000 
"/>
<path fill="none" opacity="1.000000" stroke="#000000" stroke-linecap="round" stroke-linejoin="round" stroke-width="2.000000"
	d="
M244.750000,181.000000 
	C244.500000,181.500000 243.898666,182.244370 244.051529,182.464157 
	C247.590973,187.552689 245.386200,193.130463 245.500000,198.500000 
"/>
<path fill="none" opacity="1.000000" stroke="#000000" stroke-linecap="round" stroke-linejoin="round" stroke-width="5.000000"
	d="
M176.500000,276.500000 
	C173.740265,280.959503 168.158585,280.479309 164.370636,283.328003 
	C162.834747,284.483002 160.921799,285.089935 160.000000,287.000000 
"/>
<path fill="none" opacity="1.000000" stroke="#000000" stroke-linecap="round" stroke-linejoin="round" stroke-width="4.000000"
	d="
M208.500000,168.500000 
	C203.585022,168.210693 198.726425,168.466599 194.000000,170.000000 
"/>
<path fill="none" opacity="1.000000" stroke="#000000" stroke-linecap="round" stroke-linejoin="round" stroke-width="3.000000"
	d="
M175.500000,286.000000 
	C177.815918,290.605865 177.451965,295.581329 177.500000,300.500000 
"/>
<path fill="none" opacity="1.000000" stroke="#000000" stroke-linecap="round" stroke-linejoin="round" stroke-width="4.000000"
	d="
M242.500000,159.000000 
	C239.576324,162.974289 235.554596,165.370148 231.000000,167.000000 
"/>
<path fill="none" opacity="1.000000" stroke="#000000" stroke-linecap="round" stroke-linejoin="round" stroke-width="4.000000"
	d="
M94.500000,134.500000 
	C94.814491,139.291946 90.398949,140.667755 88.000000,143.500000 
"/>
<path fill="none" opacity="1.000000" stroke="#000000" stroke-linecap="round" stroke-linejoin="round" stroke-width="3.000000"
	d="
M184.500000,310.500000 
	C182.872314,313.664185 185.828705,317.515961 183.000000,320.500000 
"/>
<path fill="none" opacity="1.000000" stroke="#000000" stroke-linecap="round" stroke-linejoin="round" stroke-width="6.000000"
	d="
M187.500000,271.500000 
	C186.249130,275.282806 182.941681,277.709869 181.216507,281.366241 
	C179.677750,284.627472 176.847473,281.883148 175.000000,280.000000 
"/>
<path fill="none" opacity="1.000000" stroke="#000000" stroke-linecap="round" stroke-linejoin="round" stroke-width="2.000000"
	d="
M189.000000,121.500000 
	C186.840622,120.809624 185.031784,118.980026 182.500000,119.500000 
"/>
<path fill="none" opacity="1.000000" stroke="#000000" stroke-linecap="round" stroke-linejoin="round" stroke-width="3.000000"
	d="
M181.000000,283.000000 
	C182.076950,284.698120 182.076614,286.592133 182.000000,288.500000 
"/>
</svg>