<svg version="1.1" id="Layer_1" xmlns="http://www.w3.org/2000/svg" xmlns:xlink="http://www.w3.org/1999/xlink" x="0px" y="0px"
	 width="100%" viewBox="0 0 294 384" enable-background="new 0 0 294 384" xml:space="preserve">
<path fill="none" opacity="1.000000" stroke="#000000" stroke-linecap="round" stroke-linejoin="round" stroke-width="5.000000"
	d="
M193.000000,202.000000 
	C191.659592,193.609222 195.379776,186.545715 199.084686,179.544815 
	C199.690689,178.399704 199.759689,177.461563 199.463272,176.511459 
	C197.377640,169.826401 197.327774,162.826599 196.104279,156.026215 
	C195.463226,152.463150 196.153503,149.434692 197.570251,146.534317 
	C199.834579,141.898727 202.346954,136.968964 206.650879,134.237747 
	C209.523239,132.414993 213.897583,132.873230 217.471100,134.085220 
	C219.096054,134.636353 219.054688,136.310028 218.542450,138.012772 
	C216.360092,145.267181 217.638016,151.823273 221.281006,158.617432 
	C224.050690,163.782928 225.971771,169.773804 225.397598,175.990540 
	C225.344589,176.564407 224.759506,177.570404 225.050751,177.962280 
	C230.129440,184.795685 225.024521,191.225708 223.715958,197.440186 
	C221.821854,206.435425 220.436768,215.525116 218.435303,224.485550 
	C216.811371,231.755814 214.477234,238.943451 210.889923,245.439209 
	C205.078384,255.962524 199.401718,266.682098 190.959442,275.460999 
	C187.369019,279.194580 183.333344,282.500000 179.500000,286.000000 
"/>
<path fill="none" opacity="1.000000" stroke="#000000" stroke-linecap="round" stroke-linejoin="round" stroke-width="5.000000"
	d="
M195.000000,151.500000 
	C190.460266,149.815247 185.858475,148.748062 180.999252,149.997116 
	C174.975479,151.545547 172.509766,154.418228 171.998093,160.499832 
	C171.554413,165.773193 169.951874,170.852997 168.796906,175.954010 
	C166.987381,183.945953 165.094254,191.809174 166.637497,199.974014 
	C166.905441,201.391647 166.477325,202.046432 166.002991,203.001480 
	C164.493301,206.041153 164.151108,209.686905 165.216614,212.415405 
	C166.999603,216.981216 164.705887,220.051178 162.953644,223.476288 
	C162.318985,224.716919 161.138916,225.531662 159.500092,225.535873 
	C157.833008,225.540161 156.167786,225.961685 154.499786,225.976196 
	C149.245773,226.021942 144.392807,226.364105 140.865448,231.405869 
	C138.979980,234.100815 130.999969,234.547226 128.566116,232.424194 
	C125.110901,229.410248 121.285339,226.770416 118.470802,223.021927 
	C116.352859,220.201172 115.603493,217.573700 117.971687,214.478348 
	C120.754524,210.841034 121.096519,206.917130 119.586334,202.470673 
	C117.787308,197.173798 119.015602,191.268127 116.543961,185.979462 
	C114.173775,180.907898 112.135719,175.679214 110.032288,170.486923 
	C109.704384,169.677475 109.298088,169.324875 108.516159,168.964905 
	C100.302696,165.183762 90.249901,170.088699 87.984779,178.996124 
	C87.332253,181.562164 86.975716,184.162796 84.589531,186.109726 
	C83.344360,187.125702 82.440865,188.896515 82.424103,190.999390 
	C82.386368,195.731277 78.181938,199.353409 78.889183,204.515182 
	C79.407196,208.295853 79.301155,212.124207 78.161026,216.046799 
	C76.806953,220.705444 79.563904,225.285217 80.101372,229.988419 
	C81.603935,243.136993 84.392044,256.047760 89.013107,268.495148 
	C92.187447,277.045593 97.468117,284.276550 103.511795,290.989380 
	C104.971474,292.610718 105.701111,293.812439 105.256638,296.541779 
	C104.384094,301.899689 104.678474,307.526154 105.122871,312.990021 
	C105.381615,316.171204 105.457733,319.332825 105.476402,322.500153 
	C105.538696,333.067596 105.625923,333.751892 115.531029,336.383209 
	C123.491364,338.497925 131.709854,340.753571 139.971924,339.765259 
	C144.308716,339.246460 149.004623,341.928925 153.000000,338.500000 
"/>
<path fill="none" opacity="1.000000" stroke="#000000" stroke-linecap="round" stroke-linejoin="round" stroke-width="14.000000"
	d="
M149.000000,324.000000 
	C152.023376,326.277954 151.506561,329.992065 152.375076,333.035645 
	C153.961517,338.595245 155.783142,340.192657 161.000000,339.000000 
	C171.632797,336.569153 178.895996,327.431732 179.016937,316.500183 
	C179.092560,309.665833 179.294296,302.832062 179.517517,296.000580 
	C179.619507,292.879700 179.335724,289.860718 177.827515,286.936951 
	C171.889069,284.771301 165.704346,285.272705 159.500000,286.500000 
"/>
<path fill="none" opacity="1.000000" stroke="#000000" stroke-linecap="round" stroke-linejoin="round" stroke-width="6.000000"
	d="
M139.500000,242.500000 
	C139.117157,249.435730 138.706207,256.425293 141.550613,262.978027 
	C143.625107,267.757050 145.932892,272.470642 148.569000,276.959473 
	C150.967850,281.044281 148.568146,285.002441 148.805984,289.011505 
	C148.935822,291.200104 148.466751,293.372925 149.481277,295.508881 
	C150.543137,297.744476 150.667877,300.567413 149.817352,302.415955 
	C148.114166,306.117706 148.654709,309.792694 148.519730,313.500732 
	C148.405212,316.646606 147.854507,319.386414 146.278351,322.395782 
	C144.659943,325.485840 143.531906,329.595795 145.005936,333.497742 
	C145.640610,335.177795 145.670135,336.833344 145.000000,338.500000 
"/>
<path fill="none" opacity="1.000000" stroke="#000000" stroke-linecap="round" stroke-linejoin="round" stroke-width="5.000000"
	d="
M110.000000,168.500000 
	C114.112312,165.149155 115.389107,159.611420 119.910019,156.374329 
	C124.226776,153.283432 128.483978,154.166962 132.434677,155.671524 
	C136.468811,157.207855 139.245865,160.165787 139.142975,165.502762 
	C138.963211,174.826187 139.737503,184.164886 139.973587,193.500671 
	C140.116806,199.163712 139.967239,204.833618 140.018661,210.499832 
	C140.035522,212.358185 139.509216,213.986099 138.500000,215.500000 
"/>
<path fill="none" opacity="1.000000" stroke="#000000" stroke-linecap="round" stroke-linejoin="round" stroke-width="4.000000"
	d="
M172.000000,156.000000 
	C171.166672,155.500000 169.959335,155.203445 169.559189,154.467804 
	C166.360275,148.587021 161.321213,147.396729 155.002014,147.324203 
	C147.908188,147.242767 143.654785,150.796783 140.003326,156.002335 
	C139.313354,156.985977 138.666672,158.000000 138.000000,159.000000 
"/>
<path fill="none" opacity="1.000000" stroke="#000000" stroke-linecap="round" stroke-linejoin="round" stroke-width="8.000000"
	d="
M106.500000,294.500000 
	C108.166664,294.500000 110.174210,293.890381 111.443909,294.600311 
	C118.902290,298.770721 126.907349,294.982147 134.500000,296.500000 
"/>
<path fill="none" opacity="1.000000" stroke="#000000" stroke-linecap="round" stroke-linejoin="round" stroke-width="5.000000"
	d="
M129.000000,294.000000 
	C131.161957,291.191986 134.849854,291.072449 137.611526,289.161133 
	C140.026825,287.489532 143.197189,292.083923 142.475861,296.496063 
	C141.387634,303.152496 141.180695,309.812042 142.032852,316.495819 
	C142.121811,317.193634 142.666656,317.833344 143.000000,318.500000 
"/>
<path fill="none" opacity="1.000000" stroke="#000000" stroke-linecap="round" stroke-linejoin="round" stroke-width="7.000000"
	d="
M179.500000,216.000000 
	C179.236450,213.000000 180.899704,210.001923 179.500916,206.999573 
	C177.087952,201.820465 172.849625,200.300735 167.500000,201.000000 
"/>
<path fill="none" opacity="1.000000" stroke="#000000" stroke-linecap="round" stroke-linejoin="round" stroke-width="8.000000"
	d="
M146.000000,226.000000 
	C144.852203,224.422012 144.181198,222.584961 143.112000,220.927734 
	C139.885803,215.927155 135.914902,214.182632 130.491928,215.975586 
	C127.714523,216.893860 126.983727,218.930084 127.006889,221.499939 
	C127.031158,224.192688 126.618797,226.753906 125.000000,229.000000 
"/>
<path fill="none" opacity="1.000000" stroke="#000000" stroke-linecap="round" stroke-linejoin="round" stroke-width="5.000000"
	d="
M98.000000,209.500000 
	C92.166664,209.833328 86.333336,210.166672 80.500000,210.500000 
"/>
<path fill="none" opacity="1.000000" stroke="#000000" stroke-linecap="round" stroke-linejoin="round" stroke-width="4.000000"
	d="
M156.000000,213.500000 
	C153.989899,209.579834 148.948135,209.120605 146.448639,212.461578 
	C145.354691,213.923828 145.261154,216.007431 143.500000,217.000000 
"/>
<path fill="none" opacity="1.000000" stroke="#000000" stroke-linecap="round" stroke-linejoin="round" stroke-width="5.000000"
	d="
M82.500000,195.000000 
	C85.694893,198.610214 91.353577,196.784683 94.661674,200.869049 
	C96.616280,203.282333 97.659218,205.567123 98.815948,208.369583 
	C100.770462,213.104874 103.435043,218.020279 107.575638,221.407532 
	C110.430382,223.742874 113.393318,221.784348 116.000000,220.000000 
"/>
<path fill="none" opacity="1.000000" stroke="#000000" stroke-linecap="round" stroke-linejoin="round" stroke-width="5.000000"
	d="
M187.000000,215.000000 
	C186.962738,216.370605 188.327393,216.344055 189.011826,216.987427 
	C194.745117,222.376770 200.164291,227.937302 200.500000,236.500000 
"/>
<path fill="none" opacity="1.000000" stroke="#000000" stroke-linecap="round" stroke-linejoin="round" stroke-width="9.000000"
	d="
M194.500000,202.500000 
	C192.672073,201.924789 192.117355,203.248184 191.497620,204.498825 
	C190.339294,206.836288 188.821976,209.062851 188.080643,211.524292 
	C186.963486,215.233536 184.191864,216.212677 180.996460,216.452972 
	C176.343567,216.802826 171.666672,216.833344 167.000000,217.000000 
"/>
<path fill="none" opacity="1.000000" stroke="#000000" stroke-linecap="round" stroke-linejoin="round" stroke-width="6.000000"
	d="
M163.000000,284.000000 
	C159.350189,280.987396 155.333206,279.286194 150.500000,280.500000 
"/>
<path fill="none" opacity="1.000000" stroke="#000000" stroke-linecap="round" stroke-linejoin="round" stroke-width="5.000000"
	d="
M138.500000,197.500000 
	C134.833328,198.000000 131.166672,198.500000 127.500000,199.000000 
"/>
<path fill="none" opacity="1.000000" stroke="#000000" stroke-linecap="round" stroke-linejoin="round" stroke-width="3.000000"
	d="
M117.500000,197.500000 
	C114.020889,199.375412 110.378433,200.052933 106.500000,199.000000 
"/>
<path fill="none" opacity="1.000000" stroke="#000000" stroke-linecap="round" stroke-linejoin="round" stroke-width="4.000000"
	d="
M158.500000,196.000000 
	C155.211731,197.067978 151.828842,196.243423 148.500000,196.500000 
"/>
<path fill="none" opacity="1.000000" stroke="#000000" stroke-linecap="round" stroke-linejoin="round" stroke-width="2.000000"
	d="
M158.500000,215.500000 
	C159.645020,218.822281 157.091675,221.755264 157.500000,225.000000 
"/>
<path fill="none" opacity="1.000000" stroke="#000000" stroke-linecap="round" stroke-linejoin="round" stroke-width="3.000000"
	d="
M135.500000,234.500000 
	C134.645752,237.440964 133.962540,240.410431 134.000000,243.500000 
"/>
<path fill="none" opacity="1.000000" stroke="#000000" stroke-linecap="round" stroke-linejoin="round" stroke-width="2.000000"
	d="
M89.000000,185.500000 
	C90.111572,187.347107 90.197151,189.450714 90.500000,191.500000 
"/>
</svg>