<svg version="1.1" id="Layer_1" xmlns="http://www.w3.org/2000/svg" xmlns:xlink="http://www.w3.org/1999/xlink" x="0px" y="0px"
	 width="100%" viewBox="0 0 294 384" enable-background="new 0 0 294 384" xml:space="preserve">
<path fill="none" opacity="1.000000" stroke="#000000" stroke-linecap="round" stroke-linejoin="round" stroke-width="5.000000"
	d="
M153.000000,307.000000 
	C151.659103,308.218018 150.141098,309.521576 150.546585,311.490417 
	C151.637177,316.785828 150.318924,321.855713 149.572601,327.010498 
	C149.367142,328.429657 149.142242,329.972015 149.947205,331.527313 
	C151.711990,334.937134 152.155396,338.623016 152.102142,342.501404 
	C152.062225,345.408905 153.464203,347.640503 156.994583,348.047058 
	C167.742477,349.284698 177.745697,348.524353 184.465195,338.476715 
	C186.447632,335.512421 185.912460,331.840424 186.453110,328.492432 
	C187.606430,321.350525 188.495148,314.165955 189.506546,307.000916 
	C189.625137,306.160797 190.107224,305.280060 189.957077,304.508362 
	C188.644516,297.762329 192.215271,292.637848 196.124451,288.107391 
	C199.768173,283.884552 201.601608,279.042267 202.925125,273.980408 
	C206.382385,260.758057 210.562714,247.662338 211.911667,233.991287 
	C212.449142,228.544312 212.016983,222.999878 211.977936,217.500153 
	C211.973206,216.832336 211.890503,215.841553 211.466034,215.549332 
	C206.106506,211.859497 206.492691,204.248550 201.445175,200.575333 
	C195.833481,196.491562 192.557251,190.075638 186.539307,186.435028 
	C184.459030,185.176559 182.352402,183.466812 181.089905,181.443893 
	C177.256607,175.301727 171.411880,171.153351 165.802078,167.287170 
	C161.516083,164.333344 156.040543,162.104019 150.491592,161.591003 
	C147.272064,161.293304 144.645889,160.356995 142.500000,158.000000 
"/>
<path fill="none" opacity="1.000000" stroke="#000000" stroke-linecap="round" stroke-linejoin="round" stroke-width="5.000000"
	d="
M114.499992,163.000000 
	C114.166664,163.333328 113.640617,163.612045 113.528381,164.008041 
	C111.160004,172.364349 104.146019,174.241669 96.989830,175.700089 
	C92.554237,176.604050 91.028404,179.673416 89.979301,183.494324 
	C87.550491,192.340149 86.780983,201.404861 86.542679,210.501114 
	C86.143196,225.750839 88.800995,240.617142 91.794762,255.541168 
	C94.101791,267.041809 96.968452,278.173798 102.560432,288.467163 
	C104.769455,292.533478 107.654877,296.232269 109.977524,299.716248 
	C123.571686,303.053833 136.707687,303.903656 147.000000,292.000000 
"/>
<path fill="none" opacity="1.000000" stroke="#000000" stroke-linecap="round" stroke-linejoin="round" stroke-width="6.000000"
	d="
M111.000000,171.000000 
	C115.444603,178.289642 121.169334,184.359955 127.931007,189.589218 
	C129.999542,191.188965 131.820007,192.583023 134.486511,193.073318 
	C138.372345,193.787827 142.177963,194.958969 145.997055,196.010712 
	C150.477188,197.244461 152.036957,201.628937 154.937424,204.561874 
	C155.074860,204.700836 155.532425,205.857819 154.525742,206.538086 
	C148.711548,210.467255 148.974152,217.395599 146.908234,223.057739 
	C144.432312,229.843597 141.326538,236.481277 140.857788,243.991119 
	C140.558273,248.789703 142.991974,252.633484 143.910675,256.965942 
	C145.597122,264.918793 148.420807,272.624023 150.393082,280.526672 
	C150.964539,282.816376 152.155899,283.874969 154.010635,284.466644 
	C157.858505,285.694122 159.739090,288.760895 161.500000,292.000000 
"/>
<path fill="none" opacity="1.000000" stroke="#000000" stroke-linecap="round" stroke-linejoin="round" stroke-width="4.000000"
	d="
M146.500000,149.000000 
	C155.221603,150.095154 163.792648,147.535141 172.505615,147.838974 
	C173.680771,147.879974 174.451447,147.813187 175.530716,148.447769 
	C182.416641,152.496582 189.975464,155.065582 197.532135,157.395782 
	C206.335922,160.110596 209.858383,163.257645 210.402863,172.505722 
	C211.045181,183.415741 212.776932,194.172684 213.992371,205.000854 
	C214.345932,208.150879 212.649048,210.576721 211.000000,213.000000 
"/>
<path fill="none" opacity="1.000000" stroke="#000000" stroke-linecap="round" stroke-linejoin="round" stroke-width="6.000000"
	d="
M110.500000,300.500000 
	C107.934868,306.402100 108.107948,312.825134 107.049522,319.008484 
	C106.143600,324.300873 105.660889,329.665955 105.002113,335.000275 
	C104.591888,338.321991 105.238419,340.739197 108.973259,342.074768 
	C119.871094,345.971863 130.953323,348.896393 142.497452,350.026031 
	C146.518555,350.419495 149.516739,348.203766 152.750000,346.500000 
"/>
<path fill="none" opacity="1.000000" stroke="#000000" stroke-linecap="round" stroke-linejoin="round" stroke-width="4.000000"
	d="
M120.500000,153.000000 
	C125.333336,154.666672 130.282562,156.068008 134.952866,158.107925 
	C137.420151,159.185577 139.882172,157.691620 140.284897,156.891708 
	C142.221252,153.045593 146.424332,150.489166 145.665833,144.977173 
	C144.392975,135.727264 143.547684,126.322243 143.714722,117.003845 
	C143.828598,110.650391 143.994186,104.332413 143.489532,98.000832 
	C143.396072,96.828331 143.447678,95.526527 142.948578,94.525650 
	C141.292953,91.205681 141.238388,88.001228 142.451218,84.483185 
	C145.346207,76.085831 143.100754,67.493332 142.842758,59.004780 
	C142.772919,56.707088 142.872681,54.309547 142.472717,52.004734 
	C142.135040,50.058807 142.176834,47.814209 139.994995,46.760376 
	C130.677963,42.260250 120.918556,47.081421 119.536919,57.005138 
	C118.568794,63.958733 117.982597,70.962059 117.996437,78.000008 
	C118.011978,85.907944 116.503525,87.246918 108.500000,86.500000 
"/>
<path fill="none" opacity="1.000000" stroke="#000000" stroke-linecap="round" stroke-linejoin="round" stroke-width="4.000000"
	d="
M174.000000,147.000000 
	C174.039276,138.164261 172.993164,129.322189 174.439178,120.490044 
	C174.860794,117.914719 172.207336,116.333900 171.408005,114.031944 
	C170.804565,112.294083 170.676895,110.884651 170.844147,108.986267 
	C171.560516,100.855576 173.190384,92.703819 171.492126,84.501633 
	C171.386002,83.989105 171.238434,83.460701 170.989365,83.005821 
	C166.239700,74.331795 168.298035,65.481789 169.893509,56.481121 
	C171.147247,49.408295 170.047943,41.757130 165.241074,36.748497 
	C159.710724,30.986023 149.749313,30.808620 144.538818,41.518883 
	C143.779633,43.079395 143.348495,44.786201 142.000000,46.000000 
"/>
<path fill="none" opacity="1.000000" stroke="#000000" stroke-linecap="round" stroke-linejoin="round" stroke-width="9.000000"
	d="
M190.000000,296.000000 
	C183.759186,293.145081 176.988708,294.423431 170.496872,293.522583 
	C169.352234,293.363739 167.890198,293.947815 167.045502,293.426300 
	C162.087326,290.365173 159.386230,293.546265 157.054413,297.036346 
	C154.772858,300.451233 153.842773,303.906647 156.380020,308.073059 
	C159.290787,312.852875 157.135162,318.399323 156.748215,323.480835 
	C156.500687,326.731567 158.076981,330.648743 155.000000,333.500000 
"/>
<path fill="none" opacity="1.000000" stroke="#000000" stroke-linecap="round" stroke-linejoin="round" stroke-width="4.000000"
	d="
M175.000000,119.500000 
	C183.657867,115.807678 192.094070,118.731583 200.478149,120.598122 
	C203.989868,121.379929 204.694580,124.894363 204.957123,128.003616 
	C205.589478,135.492447 205.857285,143.013519 206.566254,150.493713 
	C206.874283,153.743561 207.852921,156.922089 206.000000,160.000000 
"/>
<path fill="none" opacity="1.000000" stroke="#000000" stroke-linecap="round" stroke-linejoin="round" stroke-width="6.000000"
	d="
M121.500000,91.000000 
	C121.170319,101.563843 119.613045,112.010765 118.500000,122.500000 
"/>
<path fill="none" opacity="1.000000" stroke="#000000" stroke-linecap="round" stroke-linejoin="round" stroke-width="4.000000"
	d="
M127.500000,193.000000 
	C123.829880,195.319534 119.543022,195.454727 115.487968,195.887161 
	C109.033730,196.575409 103.066048,199.596664 96.500000,199.500000 
"/>
<path fill="none" opacity="1.000000" stroke="#000000" stroke-linecap="round" stroke-linejoin="round" stroke-width="4.000000"
	d="
M196.000000,67.500000 
	C196.116226,70.076759 196.233795,72.493721 197.311981,75.078430 
	C198.626846,78.230515 198.173462,82.028938 198.641602,85.480797 
	C199.892441,94.703857 201.884720,103.824471 203.468887,113.005371 
	C203.948212,115.783310 203.293762,118.482162 202.000000,121.000000 
"/>
<path fill="none" opacity="1.000000" stroke="#000000" stroke-linecap="round" stroke-linejoin="round" stroke-width="5.000000"
	d="
M95.500000,131.500000 
	C96.458870,133.605728 96.537674,135.643677 96.163185,138.025650 
	C95.790718,140.394821 94.495300,143.093964 96.467461,145.526382 
	C96.859695,146.010178 97.197098,147.055283 96.945892,147.466980 
	C92.589790,154.605972 95.226051,163.053345 92.585655,170.530243 
	C91.895401,172.484909 92.554443,174.736389 94.000000,176.500000 
"/>
<path fill="none" opacity="1.000000" stroke="#000000" stroke-linecap="round" stroke-linejoin="round" stroke-width="5.000000"
	d="
M181.500000,225.500000 
	C179.349915,217.442032 171.087585,215.918243 165.925262,211.079742 
	C163.098831,208.430649 159.406845,206.812286 155.500000,206.000000 
"/>
<path fill="none" opacity="1.000000" stroke="#000000" stroke-linecap="round" stroke-linejoin="round" stroke-width="4.000000"
	d="
M199.000000,91.500000 
	C190.500565,91.695152 181.984161,91.025719 173.500000,92.000000 
"/>
<path fill="none" opacity="1.000000" stroke="#000000" stroke-linecap="round" stroke-linejoin="round" stroke-width="6.000000"
	d="
M169.500000,111.500000 
	C161.500000,111.666672 153.500000,111.833336 145.500000,112.000000 
"/>
<path fill="none" opacity="1.000000" stroke="#000000" stroke-linecap="round" stroke-linejoin="round" stroke-width="4.000000"
	d="
M136.500000,159.000000 
	C136.333328,159.166656 136.107697,159.304199 136.008835,159.504364 
	C134.503525,162.551880 134.307846,167.522842 130.485550,167.720184 
	C125.605278,167.972183 119.862556,168.318161 116.500000,163.000000 
"/>
<path fill="none" opacity="1.000000" stroke="#000000" stroke-linecap="round" stroke-linejoin="round" stroke-width="4.000000"
	d="
M142.500000,121.000000 
	C135.184525,119.791702 128.463135,122.740616 121.497963,123.988655 
	C121.013519,124.075455 120.500000,124.000000 120.000000,124.000000 
"/>
<path fill="none" opacity="1.000000" stroke="#000000" stroke-linecap="round" stroke-linejoin="round" stroke-width="4.000000"
	d="
M115.500000,162.500000 
	C115.249229,159.499695 116.195816,156.960831 118.508865,155.010513 
	C119.775002,153.942932 120.787910,152.544739 120.439972,151.013641 
	C118.365997,141.887100 120.432663,132.644867 119.170189,122.989510 
	C113.224747,122.063148 106.840851,122.550591 100.500450,122.584312 
	C98.796616,122.593369 98.082657,124.475609 97.500000,126.000000 
"/>
<path fill="none" opacity="1.000000" stroke="#000000" stroke-linecap="round" stroke-linejoin="round" stroke-width="3.000000"
	d="
M167.500000,77.500000 
	C166.278091,78.558014 164.662384,78.254074 163.527252,77.910080 
	C158.464523,76.375885 153.511536,77.078621 148.491013,77.948097 
	C147.385696,78.139526 146.166672,79.242264 145.000000,78.000000 
"/>
<path fill="none" opacity="1.000000" stroke="#000000" stroke-linecap="round" stroke-linejoin="round" stroke-width="6.000000"
	d="
M118.500000,145.000000 
	C111.500000,145.666672 104.500000,146.333328 97.500000,147.000000 
"/>
<path fill="none" opacity="1.000000" stroke="#000000" stroke-linecap="round" stroke-linejoin="round" stroke-width="4.000000"
	d="
M140.500000,89.500000 
	C134.350662,90.153809 128.154297,88.596306 121.948067,90.312157 
	C119.944275,90.866142 117.973259,88.328438 116.500000,86.500000 
"/>
<path fill="none" opacity="1.000000" stroke="#000000" stroke-linecap="round" stroke-linejoin="round" stroke-width="3.000000"
	d="
M182.500000,50.000000 
	C178.680878,49.828121 174.894302,49.835369 171.500000,52.000000 
"/>
<path fill="none" opacity="1.000000" stroke="#000000" stroke-linecap="round" stroke-linejoin="round" stroke-width="4.000000"
	d="
M183.000000,164.500000 
	C181.374924,167.874924 177.865570,169.365570 175.500000,172.000000 
"/>
<path fill="none" opacity="1.000000" stroke="#000000" stroke-linecap="round" stroke-linejoin="round" stroke-width="2.000000"
	d="
M149.000000,211.500000 
	C147.166672,210.772552 145.333328,210.772552 143.500000,211.500000 
"/>
<path fill="none" opacity="1.000000" stroke="#000000" stroke-linecap="round" stroke-linejoin="round" stroke-width="2.000000"
	d="
M168.000000,172.500000 
	C166.702377,173.927383 166.338226,175.634796 166.500000,177.500000 
"/>
</svg>