<svg version="1.1" id="Layer_1" xmlns="http://www.w3.org/2000/svg" xmlns:xlink="http://www.w3.org/1999/xlink" x="0px" y="0px"
	 width="100%" viewBox="0 0 294 384" enable-background="new 0 0 294 384" xml:space="preserve">
<path fill="none" opacity="1.000000" stroke="#000000" stroke-linecap="round" stroke-linejoin="round" stroke-width="5.000000"
	d="
M194.000000,98.000000 
	C194.777115,94.556213 192.100311,94.293770 189.993179,94.061935 
	C185.181427,93.532539 180.330780,93.366226 175.500595,92.992287 
	C168.274292,92.432854 160.988617,92.413994 153.986954,90.038452 
	C150.177246,88.745895 143.014435,92.496315 139.447922,96.453064 
	C126.868156,110.409309 117.002342,126.748940 102.452415,138.943222 
	C97.601303,143.008942 92.549408,147.307724 91.701561,153.527481 
	C89.699783,168.212402 80.217323,179.547333 75.159904,192.870911 
	C67.819916,212.207825 58.260521,230.710678 49.459908,249.481201 
	C45.143211,258.688141 40.457222,267.701813 37.459236,277.487518 
	C34.381714,287.532806 27.367817,295.748901 24.191418,305.903473 
	C23.059967,309.520599 23.998732,312.324493 24.000000,315.500000 
"/>
<path fill="none" opacity="1.000000" stroke="#000000" stroke-linecap="round" stroke-linejoin="round" stroke-width="5.000000"
	d="
M26.000000,316.500000 
	C32.218857,326.263184 39.275532,335.373047 46.950321,344.043976 
	C50.477520,348.028992 54.960464,348.902008 59.465183,347.850800 
	C65.768768,346.379761 72.243446,346.617950 78.532158,345.136505 
	C80.927376,344.572205 83.258560,343.817902 84.925056,342.411224 
	C92.679794,335.865356 100.693092,329.685181 104.688202,319.574371 
	C107.223732,313.157471 110.690826,307.232697 109.182571,299.589844 
	C116.217812,299.512482 121.638214,295.711914 127.515587,293.034210 
	C134.853409,289.691132 142.745590,287.959351 150.527069,286.114166 
	C157.643265,284.426727 163.152649,280.638702 167.997131,275.497314 
	C170.180710,273.179901 172.115021,270.570190 174.544846,268.554047 
	C179.823364,264.174164 182.950699,257.019958 190.039307,255.148926 
	C195.420731,253.728500 200.386642,251.383087 205.437561,249.345245 
	C215.518280,245.278091 225.569885,241.001465 234.984024,235.472794 
	C239.483963,232.830078 242.701080,228.534256 245.283905,224.366104 
	C248.941284,218.463760 253.695450,214.286560 259.518066,211.032333 
	C262.594452,209.312912 265.197388,207.064575 267.468079,204.472031 
	C271.207794,200.202271 270.689362,196.117859 266.521667,191.978180 
	C257.972168,183.486160 248.085114,182.653824 237.526123,187.062576 
	C228.878113,190.673431 221.558975,196.300858 215.402222,203.165039 
	C219.065582,209.889771 217.459351,217.919388 222.000000,224.000000 
"/>
<path fill="none" opacity="1.000000" stroke="#000000" stroke-linecap="round" stroke-linejoin="round" stroke-width="9.000000"
	d="
M129.000000,196.000000 
	C129.666672,205.166672 130.349991,214.332153 130.996674,223.500229 
	C132.547318,245.484024 127.243759,265.666840 114.989929,283.993256 
	C111.839722,288.704590 109.779655,293.724609 110.000000,299.500000 
"/>
<path fill="none" opacity="1.000000" stroke="#000000" stroke-linecap="round" stroke-linejoin="round" stroke-width="4.000000"
	d="
M173.500000,105.500000 
	C162.432251,107.701889 151.260773,109.534599 140.534210,113.102859 
	C136.819855,114.338463 133.838913,116.705673 130.701248,119.685425 
	C118.236977,131.522415 110.573380,147.312805 97.547539,158.555084 
	C95.554657,160.275085 93.863350,162.009491 91.000000,161.500000 
"/>
<path fill="none" opacity="1.000000" stroke="#000000" stroke-linecap="round" stroke-linejoin="round" stroke-width="6.000000"
	d="
M157.500000,178.500000 
	C160.531693,183.600540 160.739655,189.642441 163.000946,194.999603 
	C163.494537,196.168976 163.672638,197.909729 164.551697,198.408981 
	C171.710587,202.474854 173.493774,210.919952 179.330414,216.187897 
	C182.628296,219.164429 182.603653,224.582352 183.411713,229.016098 
	C184.826523,236.779190 186.286942,244.563507 186.541229,252.498672 
	C186.568253,253.341827 187.166672,254.166672 187.500000,255.000000 
"/>
<path fill="none" opacity="1.000000" stroke="#000000" stroke-linecap="round" stroke-linejoin="round" stroke-width="5.000000"
	d="
M152.500000,89.000000 
	C155.720963,83.034927 160.657410,80.172920 167.498215,79.946312 
	C181.778656,79.473236 195.675537,81.530663 208.950882,86.627907 
	C215.731171,89.231285 222.127762,92.943787 228.458405,96.572578 
	C233.271210,99.331329 233.391251,100.856300 231.568771,106.522118 
	C231.156967,107.802315 231.532547,109.341469 230.500000,110.500000 
"/>
<path fill="none" opacity="1.000000" stroke="#000000" stroke-linecap="round" stroke-linejoin="round" stroke-width="5.000000"
	d="
M79.500000,303.000000 
	C80.241402,306.164642 78.934906,308.822937 77.515175,311.508026 
	C72.681458,320.650024 68.737221,330.077484 67.351501,340.480225 
	C67.110893,342.286499 67.450676,343.833344 67.500000,345.500000 
"/>
<path fill="none" opacity="1.000000" stroke="#000000" stroke-linecap="round" stroke-linejoin="round" stroke-width="4.000000"
	d="
M177.500000,131.500000 
	C176.217316,135.288437 174.989151,139.022690 172.041351,142.040390 
	C167.212021,146.984222 167.035095,154.053848 164.769104,160.100845 
	C162.602600,165.882401 158.927368,170.896454 157.343292,176.959061 
	C156.369110,180.687439 146.517197,184.349213 142.000000,183.500000 
"/>
<path fill="none" opacity="1.000000" stroke="#000000" stroke-linecap="round" stroke-linejoin="round" stroke-width="6.000000"
	d="
M234.000000,103.000000 
	C240.104691,103.886314 243.795670,108.407578 247.301041,112.663857 
	C248.422577,114.025658 248.645020,117.669708 245.989609,119.484787 
	C243.634659,121.094482 239.317307,120.280945 237.566483,117.458755 
	C234.722336,112.874153 231.007019,110.782486 225.523834,110.253120 
	C222.392120,109.950783 219.559647,107.046280 216.487885,105.524437 
	C209.564850,102.094559 203.056870,97.581635 195.000000,97.000000 
"/>
<path fill="none" opacity="1.000000" stroke="#000000" stroke-linecap="round" stroke-linejoin="round" stroke-width="2.000000"
	d="
M204.000000,110.750000 
	C198.000000,109.333336 192.026596,107.787170 185.990280,106.547310 
	C182.212021,105.771240 178.663681,102.967384 174.500000,105.000000 
"/>
<path fill="none" opacity="1.000000" stroke="#000000" stroke-linecap="round" stroke-linejoin="round" stroke-width="11.000000"
	d="
M109.000000,300.500000 
	C102.166664,300.500000 95.333008,300.540833 88.500114,300.485901 
	C83.822922,300.448303 79.256203,303.029572 74.486481,301.032288 
	C73.919281,300.794769 72.847435,300.711761 72.548027,301.043365 
	C68.270676,305.780640 64.419685,302.602234 60.499336,300.501251 
	C60.170998,300.325256 59.833340,300.166656 59.500004,300.000000 
"/>
<path fill="none" opacity="1.000000" stroke="#000000" stroke-linecap="round" stroke-linejoin="round" stroke-width="5.000000"
	d="
M207.000000,125.750000 
	C205.220291,124.486824 202.853012,124.480782 201.589157,125.600624 
	C196.664841,129.963821 190.654495,128.979492 184.993423,129.414398 
	C180.858475,129.732040 176.812332,131.305298 172.402847,129.203842 
	C169.864670,127.994217 166.396393,128.623749 164.454254,131.973480 
	C162.699936,134.999237 159.264893,136.367783 156.817001,138.817108 
	C154.354141,141.281387 150.442383,142.970886 146.987732,139.261429 
	C146.347488,138.573975 145.463226,138.317017 144.500000,138.500000 
"/>
<path fill="none" opacity="1.000000" stroke="#000000" stroke-linecap="round" stroke-linejoin="round" stroke-width="6.000000"
	d="
M151.500000,142.000000 
	C151.094589,146.065018 150.383408,150.036209 148.000549,153.500381 
	C145.409485,157.267227 146.381287,161.974640 144.593842,166.041245 
	C142.392487,171.049500 140.881836,176.216476 141.798523,182.031754 
	C142.235947,184.806778 139.487534,187.437592 137.431290,189.429047 
	C132.928421,193.790100 127.525436,195.846375 120.995415,195.666931 
	C117.144814,195.561111 113.343307,194.937195 109.500000,195.000000 
"/>
<path fill="none" opacity="1.000000" stroke="#000000" stroke-linecap="round" stroke-linejoin="round" stroke-width="3.000000"
	d="
M99.000000,306.000000 
	C95.633621,310.874359 93.068443,316.189026 90.504921,321.502380 
	C88.779427,325.078796 87.994385,328.635193 91.000000,332.000000 
"/>
<path fill="none" opacity="1.000000" stroke="#000000" stroke-linecap="round" stroke-linejoin="round" stroke-width="5.000000"
	d="
M215.000000,203.500000 
	C209.951569,202.550644 206.673355,206.521011 202.520370,208.055145 
	C201.222931,208.534439 200.063477,209.554977 199.018768,210.520309 
	C195.448944,213.818787 191.496323,215.669418 186.494141,214.525650 
	C184.476685,214.064331 182.654190,214.843124 181.000000,216.000000 
"/>
<path fill="none" opacity="1.000000" stroke="#000000" stroke-linecap="round" stroke-linejoin="round" stroke-width="4.000000"
	d="
M242.500000,121.000000 
	C238.186157,132.639038 227.947693,136.752640 216.492493,131.516434 
	C213.226837,130.023712 209.642258,129.163040 207.000000,126.500000 
"/>
<path fill="none" opacity="1.000000" stroke="#000000" stroke-linecap="round" stroke-linejoin="round" stroke-width="6.000000"
	d="
M63.000000,292.500000 
	C63.451939,294.714722 64.762810,296.331360 67.003029,296.433624 
	C70.082649,296.574219 71.562256,298.539551 73.000000,300.750000 
"/>
<path fill="none" opacity="1.000000" stroke="#000000" stroke-linecap="round" stroke-linejoin="round" stroke-width="3.000000"
	d="
M146.000000,156.000000 
	C141.745331,155.782288 138.485718,158.834045 134.500000,159.500000 
"/>
<path fill="none" opacity="1.000000" stroke="#000000" stroke-linecap="round" stroke-linejoin="round" stroke-width="3.000000"
	d="
M226.000000,116.000000 
	C230.097748,120.690781 231.171799,120.934883 237.000000,118.500000 
"/>
<path fill="none" opacity="1.000000" stroke="#000000" stroke-linecap="round" stroke-linejoin="round" stroke-width="5.000000"
	d="
M157.500000,139.000000 
	C160.236969,142.399246 163.938431,144.240494 168.000000,145.500000 
"/>
<path fill="none" opacity="1.000000" stroke="#000000" stroke-linecap="round" stroke-linejoin="round" stroke-width="3.000000"
	d="
M204.000000,111.500000 
	C208.851135,115.485809 207.201660,119.971664 205.000000,124.500000 
"/>
<path fill="none" opacity="1.000000" stroke="#000000" stroke-linecap="round" stroke-linejoin="round" stroke-width="1.000000"
	d="
M225.000000,111.000000 
	C225.188202,112.333336 223.527039,113.666664 225.000000,115.000000 
"/>
</svg>