<svg version="1.1" id="Layer_1" xmlns="http://www.w3.org/2000/svg" xmlns:xlink="http://www.w3.org/1999/xlink" x="0px" y="0px"
	 width="100%" viewBox="0 0 294 384" enable-background="new 0 0 294 384" xml:space="preserve">
<path fill="none" opacity="1.000000" stroke="#000000" stroke-linecap="round" stroke-linejoin="round" stroke-width="5.000000"
	d="
M231.000000,219.500000 
	C233.070541,221.873077 232.058807,224.757568 231.359863,226.955429 
	C228.595795,235.647034 227.419281,244.648132 225.457718,253.490616 
	C225.005295,255.530060 225.083191,257.846680 223.489380,259.489685 
	C213.815216,269.462341 207.677414,281.958282 199.562286,293.045593 
	C195.906693,298.040039 190.002319,299.429749 185.350815,302.793701 
	C182.580811,304.796967 179.515182,306.691498 176.500000,308.500000 
"/>
<path fill="none" opacity="1.000000" stroke="#000000" stroke-linecap="round" stroke-linejoin="round" stroke-width="6.000000"
	d="
M98.000000,92.500000 
	C97.684288,97.698555 95.382584,102.468796 94.615417,107.517540 
	C93.766808,113.102249 91.634758,118.749252 93.990921,124.503716 
	C95.201477,127.460243 92.582451,129.651428 92.273712,132.475266 
	C90.830322,145.677353 87.844688,158.607407 84.838760,171.578506 
	C81.903084,184.246460 77.393265,196.771851 77.344193,210.000351 
	C77.326111,214.876266 75.102432,219.175339 74.894981,223.995483 
	C74.565697,231.646378 76.643806,238.843811 78.616798,245.967651 
	C82.986580,261.745514 88.506592,277.153168 95.449837,292.023407 
	C96.303497,293.851685 97.121841,295.649689 95.605881,298.066406 
	C91.251137,305.008789 90.584061,313.166504 89.686516,321.021301 
	C89.157593,325.650085 87.415688,329.922668 86.978699,334.673340 
	C88.599136,337.267761 91.253395,338.630371 93.980362,340.038055 
	C99.545937,342.911041 105.073860,345.873169 110.485725,349.024536 
	C124.859428,357.394379 139.884918,356.399414 154.948868,351.831390 
	C158.371231,350.793549 162.703278,350.739899 165.000000,347.000000 
"/>
<path fill="none" opacity="1.000000" stroke="#000000" stroke-linecap="round" stroke-linejoin="round" stroke-width="3.000000"
	d="
M146.500000,43.000000 
	C143.666901,39.943901 139.770096,39.046211 135.989136,38.589989 
	C127.005730,37.506004 121.771805,42.574993 120.604652,53.511169 
	C119.721306,61.788120 119.523613,70.154930 120.433228,78.507271 
	C120.700340,80.960030 120.166664,83.500000 120.000000,86.000000 
"/>
<path fill="none" opacity="1.000000" stroke="#000000" stroke-linecap="round" stroke-linejoin="round" stroke-width="5.000000"
	d="
M149.500000,112.000000 
	C147.546326,115.992226 147.159531,119.932732 147.782654,124.529465 
	C148.744995,131.628815 147.989334,138.926392 146.397980,145.976974 
	C145.968704,147.878952 146.134125,149.500000 146.602356,151.741348 
	C157.331223,151.608673 168.152313,153.282639 179.000000,151.500000 
"/>
<path fill="none" opacity="1.000000" stroke="#000000" stroke-linecap="round" stroke-linejoin="round" stroke-width="11.000000"
	d="
M136.500000,311.000000 
	C134.716980,309.086487 132.648056,308.635620 129.991577,308.921875 
	C123.452492,309.626495 117.299126,307.076660 111.038467,305.809875 
	C107.397972,305.073212 105.971725,300.151367 102.015358,298.949463 
	C100.257729,298.415527 98.666672,297.333313 97.000008,296.500000 
"/>
<path fill="none" opacity="1.000000" stroke="#000000" stroke-linecap="round" stroke-linejoin="round" stroke-width="3.000000"
	d="
M191.000000,216.500000 
	C184.668015,220.003387 177.196335,220.578857 170.977081,224.463303 
	C163.770752,228.964218 155.450928,231.974304 151.000000,240.000000 
"/>
<path fill="none" opacity="1.000000" stroke="#000000" stroke-linecap="round" stroke-linejoin="round" stroke-width="7.000000"
	d="
M153.500000,305.500000 
	C158.000000,307.445679 162.414352,307.184998 167.023132,305.565857 
	C172.026184,303.808197 177.240860,307.665619 177.466751,313.001404 
	C177.522797,314.325317 177.480057,315.809631 176.947784,316.976166 
	C174.067856,323.288116 175.265015,329.954102 174.969162,336.498596 
	C174.792084,340.415649 173.470428,343.837494 169.479279,345.448669 
	C168.963898,345.656708 168.166672,345.166656 167.500000,344.999969 
"/>
<path fill="none" opacity="1.000000" stroke="#000000" stroke-linecap="round" stroke-linejoin="round" stroke-width="5.000000"
	d="
M144.500000,299.500000 
	C144.907364,303.817444 142.484238,307.473572 139.803146,309.770203 
	C136.737625,312.396088 136.859390,315.084808 138.149475,317.417328 
	C140.550873,321.759247 140.686707,325.766968 139.659561,330.534363 
	C138.423050,336.273560 138.227707,342.277466 140.500000,348.000000 
"/>
<path fill="none" opacity="1.000000" stroke="#000000" stroke-linecap="round" stroke-linejoin="round" stroke-width="5.000000"
	d="
M118.000000,88.500000 
	C120.187462,97.333336 118.435699,106.169273 117.897507,114.993752 
	C117.863907,115.544662 117.376976,116.374428 117.535637,116.990829 
	C118.731133,121.635231 119.250565,126.122276 118.192909,131.041473 
	C117.268135,135.342651 117.934998,140.001205 118.017944,144.499664 
	C118.104027,149.167831 118.357857,153.832657 118.485275,158.500397 
	C118.524261,159.928467 118.467445,161.341476 119.500000,162.500000 
"/>
<path fill="none" opacity="1.000000" stroke="#000000" stroke-linecap="round" stroke-linejoin="round" stroke-width="7.000000"
	d="
M136.000000,317.500000 
	C132.064713,320.759216 132.217606,325.765900 131.160751,330.039764 
	C129.258469,337.732391 128.333328,345.666656 126.999992,353.500000 
"/>
<path fill="none" opacity="1.000000" stroke="#000000" stroke-linecap="round" stroke-linejoin="round" stroke-width="7.000000"
	d="
M148.000000,275.000000 
	C149.929321,277.645569 148.957718,280.677368 148.932831,283.499420 
	C148.860489,291.698547 152.442352,296.554626 160.484009,299.051514 
	C163.316513,299.930969 166.551285,300.230774 168.500000,303.000000 
"/>
<path fill="none" opacity="1.000000" stroke="#000000" stroke-linecap="round" stroke-linejoin="round" stroke-width="3.000000"
	d="
M145.500000,152.000000 
	C137.426300,156.118164 129.537949,160.700653 120.493744,162.468002 
	C118.386497,162.879776 117.080742,164.453766 115.554840,165.574661 
	C108.855293,170.495941 101.826645,174.449814 93.525383,176.125732 
	C90.688454,176.698456 88.183266,178.856445 85.000000,178.500000 
"/>
<path fill="none" opacity="1.000000" stroke="#000000" stroke-linecap="round" stroke-linejoin="round" stroke-width="3.000000"
	d="
M171.500000,24.500000 
	C168.833328,24.166666 166.112274,23.321888 163.510498,23.598644 
	C156.508041,24.343519 152.718246,29.435535 151.428665,38.489841 
	C151.111374,40.717609 151.959396,44.381760 147.500000,43.750000 
"/>
<path fill="none" opacity="1.000000" stroke="#000000" stroke-linecap="round" stroke-linejoin="round" stroke-width="4.000000"
	d="
M180.500000,46.500000 
	C180.720718,53.665409 180.840698,60.859119 180.798935,67.998825 
	C180.729706,79.836479 182.936203,91.684509 180.959015,103.493134 
	C179.819412,110.299400 181.213821,117.394737 178.514923,124.006096 
	C178.398285,124.291817 178.444214,124.677788 178.508148,124.998375 
	C180.259338,133.779846 179.177246,142.666290 179.518494,151.499283 
	C179.544464,152.171387 179.608139,153.097321 180.033783,153.460373 
	C186.373154,158.867905 185.406265,166.371613 186.082291,173.492188 
	C186.418274,177.031021 186.003235,181.252853 190.053818,183.030807 
	C194.702560,182.710495 194.402939,178.085556 197.000000,176.250000 
"/>
<path fill="none" opacity="1.000000" stroke="#000000" stroke-linecap="round" stroke-linejoin="round" stroke-width="5.000000"
	d="
M150.000000,241.000000 
	C148.357208,248.546570 146.072433,255.974411 144.035049,263.371948 
	C142.823807,267.769867 142.233795,272.105225 141.500000,276.500000 
"/>
<path fill="none" opacity="1.000000" stroke="#000000" stroke-linecap="round" stroke-linejoin="round" stroke-width="8.000000"
	d="
M149.500000,45.000000 
	C149.294678,52.499142 149.724518,59.995731 149.084946,67.507233 
	C148.585602,73.372047 148.738846,79.145607 147.307312,85.074203 
	C145.777084,91.411613 146.560593,98.333282 146.557251,105.000031 
	C146.556061,107.349701 146.989136,109.786232 149.215515,111.683464 
	C158.998703,108.869690 169.320114,109.051414 179.500000,108.000000 
"/>
<path fill="none" opacity="1.000000" stroke="#000000" stroke-linecap="round" stroke-linejoin="round" stroke-width="4.000000"
	d="
M222.000000,189.000000 
	C222.166672,188.833328 222.451920,188.501007 222.483231,188.523422 
	C228.138260,192.571838 232.034698,198.225601 235.295975,204.113022 
	C236.635742,206.531616 234.540329,210.021149 234.127213,213.017532 
	C233.614975,216.733002 232.079376,218.914780 228.521317,220.065903 
	C226.568817,220.697571 224.833344,222.000015 223.000015,223.000015 
"/>
<path fill="none" opacity="1.000000" stroke="#000000" stroke-linecap="round" stroke-linejoin="round" stroke-width="4.000000"
	d="
M217.500000,142.500000 
	C217.090149,148.682251 219.407547,154.714172 218.113663,161.023315 
	C217.220917,165.376526 216.817245,169.121872 211.008011,169.410950 
	C208.460403,169.537735 206.000000,171.416672 203.500000,172.500000 
"/>
<path fill="none" opacity="1.000000" stroke="#000000" stroke-linecap="round" stroke-linejoin="round" stroke-width="3.000000"
	d="
M200.500000,187.500000 
	C199.861206,190.908920 200.043594,193.963562 202.957962,196.547424 
	C205.831085,199.094711 208.347015,199.922806 211.538834,197.043045 
	C214.353149,194.503906 217.500000,192.333328 220.500000,190.000000 
"/>
<path fill="none" opacity="1.000000" stroke="#000000" stroke-linecap="round" stroke-linejoin="round" stroke-width="6.000000"
	d="
M211.500000,168.500000 
	C211.333344,168.000000 211.164856,167.500595 211.000275,166.999908 
	C208.911606,160.645615 207.514954,159.737686 201.000000,160.500015 
	C197.068604,160.960037 195.653412,163.165039 195.479904,168.999405 
	C195.464890,169.503906 195.166656,170.000000 195.000000,170.500000 
"/>
<path fill="none" opacity="1.000000" stroke="#000000" stroke-linecap="round" stroke-linejoin="round" stroke-width="4.000000"
	d="
M146.500000,120.000000 
	C140.566559,118.399124 135.040909,121.045555 129.574326,122.319046 
	C126.614639,123.008537 123.289734,122.909698 120.500000,124.500000 
"/>
<path fill="none" opacity="1.000000" stroke="#000000" stroke-linecap="round" stroke-linejoin="round" stroke-width="3.000000"
	d="
M213.000000,134.000000 
	C211.500000,131.666656 209.726212,129.461929 208.557205,126.973122 
	C206.150345,121.848854 201.724197,121.366730 197.001602,121.542976 
	C194.825516,121.624199 192.666672,122.166664 190.500000,122.499992 
"/>
<path fill="none" opacity="1.000000" stroke="#000000" stroke-linecap="round" stroke-linejoin="round" stroke-width="4.000000"
	d="
M190.500000,183.500000 
	C190.538544,185.723877 190.776825,188.109772 189.456741,189.969299 
	C185.103607,196.101242 188.271790,202.461105 189.276672,208.453598 
	C189.937302,212.393204 190.525497,216.904999 194.276215,220.250854 
	C195.730011,221.547729 196.604553,225.474579 194.557877,228.538651 
	C189.807343,235.650681 191.341843,242.682129 195.500000,249.500000 
"/>
<path fill="none" opacity="1.000000" stroke="#000000" stroke-linecap="round" stroke-linejoin="round" stroke-width="3.000000"
	d="
M132.500000,85.500000 
	C127.754326,85.613617 122.829788,84.647392 118.516220,87.524315 
	C116.909012,88.596237 115.787094,87.537849 114.499954,87.000107 
	C107.992279,84.281242 104.008812,84.490196 99.000000,92.000000 
"/>
<path fill="none" opacity="1.000000" stroke="#000000" stroke-linecap="round" stroke-linejoin="round" stroke-width="3.000000"
	d="
M186.500000,194.500000 
	C183.104218,192.656754 179.863449,195.070618 177.118637,195.895004 
	C173.961868,196.843094 170.628159,197.378052 167.500000,198.500000 
"/>
<path fill="none" opacity="1.000000" stroke="#000000" stroke-linecap="round" stroke-linejoin="round" stroke-width="3.000000"
	d="
M172.000000,327.000000 
	C168.324478,327.815735 168.857391,331.082794 168.601913,333.510712 
	C168.234375,337.003479 166.829422,340.398651 167.487595,344.002258 
	C167.688690,345.103363 166.905502,345.514252 166.000000,345.750000 
"/>
<path fill="none" opacity="1.000000" stroke="#000000" stroke-linecap="round" stroke-linejoin="round" stroke-width="3.000000"
	d="
M136.500000,217.500000 
	C133.385391,218.957489 130.971237,221.466492 129.168655,224.114807 
	C127.816307,226.101654 125.977272,227.312881 124.500000,229.000000 
"/>
<path fill="none" opacity="1.000000" stroke="#000000" stroke-linecap="round" stroke-linejoin="round" stroke-width="4.000000"
	d="
M207.500000,144.500000 
	C202.741501,144.523834 197.936111,144.219498 193.500000,146.500000 
"/>
<path fill="none" opacity="1.000000" stroke="#000000" stroke-linecap="round" stroke-linejoin="round" stroke-width="4.000000"
	d="
M134.500000,300.500000 
	C129.833328,302.000000 125.166664,303.500000 120.500000,305.000000 
"/>
<path fill="none" opacity="1.000000" stroke="#000000" stroke-linecap="round" stroke-linejoin="round" stroke-width="3.000000"
	d="
M187.500000,181.500000 
	C183.425018,183.845978 178.778976,182.479996 174.500000,183.500000 
"/>
<path fill="none" opacity="1.000000" stroke="#000000" stroke-linecap="round" stroke-linejoin="round" stroke-width="5.000000"
	d="
M220.000000,175.500000 
	C219.968384,179.914261 222.765045,183.649719 223.000000,188.000000 
"/>
<path fill="none" opacity="1.000000" stroke="#000000" stroke-linecap="round" stroke-linejoin="round" stroke-width="3.000000"
	d="
M171.000000,312.500000 
	C168.664230,316.186584 165.342606,319.503479 166.500000,324.500000 
"/>
<path fill="none" opacity="1.000000" stroke="#000000" stroke-linecap="round" stroke-linejoin="round" stroke-width="3.000000"
	d="
M179.500000,74.000000 
	C176.172791,73.710907 172.910629,72.120781 169.500000,73.500000 
"/>
<path fill="none" opacity="1.000000" stroke="#000000" stroke-linecap="round" stroke-linejoin="round" stroke-width="3.000000"
	d="
M104.500000,124.500000 
	C101.346169,124.955292 98.278984,126.233711 95.000000,125.500000 
"/>
<path fill="none" opacity="1.000000" stroke="#000000" stroke-linecap="round" stroke-linejoin="round" stroke-width="3.000000"
	d="
M159.500000,75.500000 
	C156.500000,76.000000 153.500000,76.500000 150.500000,77.000000 
"/>
<path fill="none" opacity="1.000000" stroke="#000000" stroke-linecap="round" stroke-linejoin="round" stroke-width="3.000000"
	d="
M145.000000,265.500000 
	C147.392151,268.116547 146.958206,271.361145 147.000000,274.500000 
"/>
<path fill="none" opacity="1.000000" stroke="#000000" stroke-linecap="round" stroke-linejoin="round" stroke-width="2.000000"
	d="
M188.500000,124.000000 
	C184.968552,125.345009 183.262421,128.776108 180.500000,131.000000 
"/>
<path fill="none" opacity="1.000000" stroke="#000000" stroke-linecap="round" stroke-linejoin="round" stroke-width="3.000000"
	d="
M161.500000,336.500000 
	C162.683212,338.329193 161.137772,340.840546 163.000000,342.500000 
"/>
<path fill="none" opacity="1.000000" stroke="#000000" stroke-linecap="round" stroke-linejoin="round" stroke-width="5.000000"
	d="
M122.500000,223.500000 
	C121.753838,224.500000 122.074203,225.740097 122.564865,226.455505 
	C124.111778,228.710999 124.602295,230.961578 123.500000,233.500000 
"/>
</svg>