<svg version="1.1" id="Layer_1" xmlns="http://www.w3.org/2000/svg" xmlns:xlink="http://www.w3.org/1999/xlink" x="0px" y="0px"
	 width="100%" viewBox="0 0 300 384" enable-background="new 0 0 300 384" xml:space="preserve">
<path fill="none" opacity="1.000000" stroke="#000000" stroke-linecap="round" stroke-linejoin="round" stroke-width="4.000000"
	d="
M123.000000,296.500000 
	C123.471016,306.732452 131.068466,311.396790 138.560486,315.899353 
	C141.165848,317.465118 143.635956,319.276154 146.393341,320.705719 
	C151.577179,323.393372 156.957184,321.975037 162.013260,322.194427 
	C178.359161,322.903809 194.577728,325.741943 211.002625,325.063568 
	C215.241562,324.888489 219.346970,324.087433 223.513336,323.618561 
	C227.684982,323.149139 231.959595,322.397339 235.622772,326.387268 
	C238.870605,329.924835 242.963394,332.820435 247.053772,335.415253 
	C251.695450,338.359772 257.049835,336.274384 260.858215,334.235229 
	C269.837006,329.427521 277.958710,323.134033 281.022491,312.506470 
	C281.181152,311.956116 281.551117,311.292328 282.018066,311.032440 
	C286.238129,308.684113 287.924164,304.632111 290.208893,300.618927 
	C294.201050,293.606598 295.248322,286.148865 295.945099,278.494995 
	C296.321960,274.355133 293.396393,270.150818 288.973419,268.574554 
	C285.284424,267.259857 282.103882,265.336212 278.938599,263.086365 
	C276.050415,261.033478 273.242462,258.599915 269.502472,257.984955 
	C267.303223,257.623322 267.259918,255.614960 266.407532,254.050385 
	C263.811157,249.284744 263.312836,243.847092 261.062927,238.970963 
	C258.415527,233.233475 254.357834,228.872726 249.521622,224.973175 
	C235.811066,213.918030 220.314178,205.445648 206.261719,194.814987 
	C199.776794,189.909149 191.793243,186.523331 181.880966,189.029160 
	C173.970764,191.028839 164.943085,189.307709 156.524277,188.297623 
	C152.384262,187.800934 148.675095,190.047241 144.450531,188.649506 
	C140.263718,187.264267 135.787292,188.568146 131.500000,189.500000 
"/>
<path fill="none" opacity="1.000000" stroke="#000000" stroke-linecap="round" stroke-linejoin="round" stroke-width="4.000000"
	d="
M183.500000,272.000000 
	C190.070389,268.977295 188.686066,262.194031 190.320755,256.944183 
	C190.848923,255.247940 188.990646,252.284515 186.562164,253.170395 
	C183.721405,254.206680 180.524231,251.227646 177.741730,254.798767 
	C176.653564,256.195343 172.666412,255.480621 170.000046,255.475983 
	C153.328156,255.446915 136.664658,255.339645 119.990845,254.766235 
	C112.907036,254.522598 107.486519,253.155594 104.049438,246.972519 
	C100.432968,240.466721 100.587059,233.130203 100.714775,226.003845 
	C100.742142,224.477463 103.500000,223.000000 105.000000,221.500000 
"/>
<path fill="none" opacity="1.000000" stroke="#000000" stroke-linecap="round" stroke-linejoin="round" stroke-width="5.000000"
	d="
M149.500000,313.000000 
	C158.660782,310.323242 165.226074,303.219269 173.431290,298.870361 
	C176.366135,297.314850 179.418625,295.575012 181.603439,292.575348 
	C183.864807,289.470551 184.860275,285.507202 183.000015,282.500000 
	C181.394592,279.904755 172.956421,276.146912 170.011063,277.036621 
	C155.941055,281.286926 141.376083,283.057556 126.990364,285.697510 
	C117.973312,287.352203 110.000000,280.474457 110.000000,271.500000 
"/>
<path fill="none" opacity="1.000000" stroke="#000000" stroke-linecap="round" stroke-linejoin="round" stroke-width="5.000000"
	d="
M93.500000,188.500000 
	C87.994652,188.254898 82.491653,188.095276 76.985008,187.720032 
	C67.267883,187.057846 57.598930,187.684769 48.378033,192.253860 
	C44.966442,193.944336 40.166336,192.825516 36.000076,193.001831 
	C30.039505,193.254105 24.036839,193.809753 18.542223,196.101242 
	C12.521959,198.611923 6.441156,201.415833 5.950057,209.496964 
	C5.567074,215.798996 7.870778,218.561874 13.976074,220.095261 
	C21.961544,222.100845 29.739565,220.578568 37.484005,219.395309 
	C46.811672,217.970154 56.026733,216.948486 65.510689,217.892593 
	C74.471252,218.784607 83.470795,216.597168 92.507965,217.411652 
	C93.951180,217.541718 95.500000,216.500000 97.000000,216.000000 
"/>
<path fill="none" opacity="1.000000" stroke="#000000" stroke-linecap="round" stroke-linejoin="round" stroke-width="5.000000"
	d="
M195.500000,221.000000 
	C190.757675,218.955063 186.347885,221.597839 183.174927,223.757050 
	C176.152985,228.535507 169.117935,227.603424 162.595459,224.779495 
	C154.374939,221.220398 146.238983,222.639694 138.000244,222.765976 
	C127.972649,222.919678 117.957970,222.536057 108.012016,221.395218 
	C103.789124,220.910828 99.029427,218.127594 97.432465,215.259232 
	C94.989418,210.871185 92.466782,205.625168 93.021446,200.002121 
	C93.433746,195.822266 98.441811,192.284027 102.480202,193.562546 
	C106.804970,194.931732 111.652779,194.443481 115.541443,197.446335 
	C116.829391,198.440887 118.278778,199.191971 117.951553,200.991196 
	C117.630135,202.758423 116.521057,203.690842 114.517021,204.086258 
	C110.827553,204.814240 107.400070,204.382568 104.000000,203.000000 
"/>
<path fill="none" opacity="1.000000" stroke="#000000" stroke-linecap="round" stroke-linejoin="round" stroke-width="2.000000"
	d="
M130.500000,189.000000 
	C129.456055,188.118561 128.826508,186.771301 126.996185,186.963730 
	C116.684341,188.047867 106.331741,187.239151 96.000534,187.519653 
	C95.496376,187.533325 95.000000,187.833328 94.500000,188.000000 
"/>
<path fill="none" opacity="1.000000" stroke="#000000" stroke-linecap="round" stroke-linejoin="round" stroke-width="7.000000"
	d="
M267.500000,257.500000 
	C263.638184,262.313141 258.674774,265.963715 253.436386,268.885956 
	C242.001663,275.264862 229.828918,274.623505 217.485733,271.557434 
	C208.652466,269.363220 200.484451,266.391937 194.911545,258.562958 
	C194.226929,257.601196 192.333328,257.500000 191.000000,257.000000 
"/>
<path fill="none" opacity="1.000000" stroke="#000000" stroke-linecap="round" stroke-linejoin="round" stroke-width="4.000000"
	d="
M251.500000,279.500000 
	C252.224014,280.356720 254.202377,280.353088 253.698395,281.984070 
	C252.925568,284.485138 254.597763,285.688324 256.017578,286.980682 
	C260.469757,291.033203 264.762726,295.317566 269.568451,298.908386 
	C274.138611,302.323120 277.703705,306.485352 281.000000,311.000000 
"/>
<path fill="none" opacity="1.000000" stroke="#000000" stroke-linecap="round" stroke-linejoin="round" stroke-width="6.000000"
	d="
M83.000000,189.500000 
	C82.416939,198.323914 79.867516,207.073624 82.000000,216.000000 
"/>
<path fill="none" opacity="1.000000" stroke="#000000" stroke-linecap="round" stroke-linejoin="round" stroke-width="3.000000"
	d="
M189.500000,266.000000 
	C196.482513,271.356293 202.021729,278.606903 210.500000,282.000000 
"/>
<path fill="none" opacity="1.000000" stroke="#000000" stroke-linecap="round" stroke-linejoin="round" stroke-width="5.000000"
	d="
M249.500000,291.500000 
	C249.486374,297.871582 246.776596,303.597687 244.826035,309.441925 
	C244.084702,311.663147 243.541855,313.727600 243.500000,316.000000 
"/>
<path fill="none" opacity="1.000000" stroke="#000000" stroke-linecap="round" stroke-linejoin="round" stroke-width="3.000000"
	d="
M250.000000,295.500000 
	C253.278488,295.998932 255.675446,297.820160 257.600739,300.254547 
	C256.501434,303.000580 255.925842,305.802917 254.408188,307.934631 
	C251.574234,311.915283 249.552551,316.810364 242.996582,316.695557 
	C239.046310,316.626373 236.129623,320.048431 233.500000,323.000000 
"/>
<path fill="none" opacity="1.000000" stroke="#000000" stroke-linecap="round" stroke-linejoin="round" stroke-width="5.000000"
	d="
M188.000000,253.000000 
	C188.769180,246.888931 185.774521,242.326004 179.000000,239.000000 
"/>
<path fill="none" opacity="1.000000" stroke="#000000" stroke-linecap="round" stroke-linejoin="round" stroke-width="5.000000"
	d="
M177.500000,256.000000 
	C177.951569,261.405029 179.360458,266.419952 182.424042,271.050262 
	C184.470673,274.143555 181.229004,276.954834 181.000000,280.000000 
"/>
<path fill="none" opacity="1.000000" stroke="#000000" stroke-linecap="round" stroke-linejoin="round" stroke-width="3.000000"
	d="
M269.500000,287.500000 
	C266.335999,287.161346 264.070343,284.986969 261.533173,283.445404 
	C259.310974,282.095245 257.152466,281.049744 254.500000,281.500000 
"/>
<path fill="none" opacity="1.000000" stroke="#000000" stroke-linecap="round" stroke-linejoin="round" stroke-width="6.000000"
	d="
M174.500000,228.500000 
	C177.036102,232.837509 179.570129,236.966049 177.634415,242.546631 
	C176.394653,246.120773 179.803864,249.348282 180.000000,253.000000 
"/>
<path fill="none" opacity="1.000000" stroke="#000000" stroke-linecap="round" stroke-linejoin="round" stroke-width="4.000000"
	d="
M166.500000,234.500000 
	C166.938416,238.455704 164.600586,241.780441 164.000000,245.500000 
"/>
<path fill="none" opacity="1.000000" stroke="#000000" stroke-linecap="round" stroke-linejoin="round" stroke-width="5.000000"
	d="
M48.500000,205.500000 
	C49.000000,209.166672 49.500000,212.833328 50.000000,216.500000 
"/>
<path fill="none" opacity="1.000000" stroke="#000000" stroke-linecap="round" stroke-linejoin="round" stroke-width="3.000000"
	d="
M156.000000,311.500000 
	C157.322281,314.582733 155.655029,317.499359 155.500000,320.500000 
"/>
<path fill="none" opacity="1.000000" stroke="#000000" stroke-linecap="round" stroke-linejoin="round" stroke-width="3.000000"
	d="
M48.500000,193.000000 
	C48.666668,195.833328 48.833336,198.666672 49.000000,201.500000 
"/>
<path fill="none" opacity="1.000000" stroke="#000000" stroke-linecap="round" stroke-linejoin="round" stroke-width="2.000000"
	d="
M273.500000,309.500000 
	C275.166656,309.999359 276.833344,310.502258 278.500000,309.500000 
"/>
</svg>