<svg version="1.1" id="Layer_1" xmlns="http://www.w3.org/2000/svg" xmlns:xlink="http://www.w3.org/1999/xlink" x="0px" y="0px"
	 width="100%" viewBox="0 0 336 384" enable-background="new 0 0 336 384" xml:space="preserve">
<path fill="none" opacity="1.000000" stroke="#000000" stroke-linecap="round" stroke-linejoin="round" stroke-width="6.000000"
	d="
M141.500000,307.500000 
	C143.970154,317.221893 148.390121,325.514465 158.000290,329.999359 
	C160.217926,331.034332 162.231613,332.375427 165.027145,331.597565 
	C166.974884,331.055634 169.123795,331.766327 170.474777,333.519440 
	C172.031479,335.539490 174.189804,336.274689 176.502594,336.469177 
	C189.163818,337.533905 201.836746,339.315613 214.499008,339.262634 
	C226.336975,339.213104 238.169724,340.143860 249.998047,339.466003 
	C253.342590,339.274323 255.208542,340.305969 257.180908,343.384064 
	C260.677917,348.841522 265.554565,353.362732 271.039001,356.940216 
	C274.701385,359.329193 278.329529,356.526886 281.425293,355.309937 
	C290.806946,351.622009 300.355804,347.267242 305.756012,338.352203 
	C308.913147,333.140289 315.237579,329.339569 314.500000,322.000000 
"/>
<path fill="none" opacity="1.000000" stroke="#000000" stroke-linecap="round" stroke-linejoin="round" stroke-width="6.000000"
	d="
M20.499998,230.499985 
	C18.666666,230.833328 16.729403,230.894958 15.018849,231.549271 
	C9.102894,233.812256 7.415217,238.684799 7.504765,244.499924 
	C7.582949,249.577103 11.333170,254.316833 17.001719,256.495514 
	C23.762848,259.094177 30.909328,259.457428 38.001854,259.694489 
	C51.871429,260.158020 65.599258,262.775452 79.498848,262.450623 
	C87.599121,262.261322 95.572418,263.170746 103.489044,264.562347 
	C109.211205,265.568176 114.615677,262.731232 119.971962,263.275787 
	C125.145691,263.801849 128.508469,261.588776 131.957657,258.944763 
	C135.830536,255.975967 136.092072,253.261490 132.929642,249.560120 
	C131.567291,247.965591 130.575058,246.230804 129.500000,244.500000 
"/>
<path fill="none" opacity="1.000000" stroke="#000000" stroke-linecap="round" stroke-linejoin="round" stroke-width="6.000000"
	d="
M178.500000,255.500000 
	C177.057816,261.401276 177.056396,261.385254 170.000961,262.010925 
	C168.162399,262.173950 166.904922,263.399445 165.464371,264.451202 
	C154.751740,272.272675 142.058014,273.046875 129.512421,274.600281 
	C123.454987,275.350281 120.320732,272.253815 116.881447,268.098114 
	C113.464531,263.969421 112.733147,259.169617 112.683205,254.498047 
	C112.607948,247.458237 119.176529,246.086716 124.048645,245.302048 
	C129.113785,244.486267 131.412598,241.740845 133.467270,237.982101 
	C134.361450,236.346329 135.199783,234.323654 137.012024,234.095520 
	C142.543472,233.399185 147.064835,229.692932 152.510422,229.094955 
	C155.043350,228.816818 156.917419,227.366806 158.936523,226.371277 
	C164.062866,223.843643 169.695480,223.778275 175.002472,222.258652 
	C185.166550,219.348221 195.650467,217.770401 206.040070,216.279129 
	C213.164993,215.256424 220.476425,217.899887 227.498718,220.004303 
	C228.507965,220.306732 229.694504,221.200089 230.469864,220.917358 
	C238.099197,218.135468 243.264313,223.751038 248.914749,226.665298 
	C258.064819,231.384537 266.672882,237.156372 275.497650,242.503860 
	C280.760254,245.692795 283.640656,250.842972 286.496246,256.002075 
	C286.856873,256.653625 287.143463,257.346161 287.503479,257.998077 
	C293.218506,268.347260 294.109375,265.421692 285.990356,277.493500 
	C284.055359,280.370575 281.498749,282.948730 280.144806,286.062958 
	C278.861755,289.014069 276.264252,288.520020 274.470612,288.829834 
	C268.035278,289.941284 262.377960,293.549744 255.988831,294.417755 
	C248.416794,295.446411 240.954849,293.843079 233.485809,292.584198 
	C230.069229,292.008362 226.565033,290.474915 222.951401,292.409210 
	C222.113907,292.857513 220.591782,292.360291 219.520844,291.946106 
	C218.426682,291.522919 217.544754,290.584229 216.492844,290.013184 
	C208.811432,285.843231 204.796127,287.375244 202.000000,295.500000 
"/>
<path fill="none" opacity="1.000000" stroke="#000000" stroke-linecap="round" stroke-linejoin="round" stroke-width="5.000000"
	d="
M236.000000,219.500000 
	C235.313248,216.890060 234.031906,214.794144 231.510681,213.479523 
	C223.172867,209.131989 214.347794,206.379852 204.995605,205.549469 
	C200.327591,205.134995 196.007492,203.456848 191.517365,202.424454 
	C186.875046,201.357056 182.001923,202.438217 177.444397,200.108780 
	C173.343445,198.012695 168.449905,199.024399 163.993103,198.030960 
	C163.040436,197.818604 161.935791,197.774567 161.010834,198.038025 
	C156.364822,199.361359 151.675476,199.128525 147.004395,198.468887 
	C142.317734,197.807068 137.683136,198.198792 132.995758,198.402451 
	C127.347008,198.647903 121.628624,197.673523 116.008263,198.107071 
	C105.673332,198.904266 95.050758,196.595016 85.014481,200.536865 
	C77.570114,203.460739 69.652527,202.926346 61.974854,203.771591 
	C56.550159,204.368820 51.447124,206.302109 46.001614,206.537354 
	C40.915722,206.757034 33.809746,212.674942 35.000000,218.500000 
"/>
<path fill="none" opacity="1.000000" stroke="#000000" stroke-linecap="round" stroke-linejoin="round" stroke-width="4.000000"
	d="
M184.500000,298.000000 
	C177.215164,297.457672 170.450943,300.126678 163.519119,301.590515 
	C156.291992,303.116730 148.654099,303.068512 141.962341,306.934814 
	C140.669067,307.682037 139.350021,306.111786 137.999573,305.751587 
	C128.893494,303.322937 123.894386,297.861237 123.308586,288.011383 
	C123.046860,283.610687 122.211952,279.333344 123.500000,275.000000 
"/>
<path fill="none" opacity="1.000000" stroke="#000000" stroke-linecap="round" stroke-linejoin="round" stroke-width="10.000000"
	d="
M279.000000,288.500000 
	C283.053558,296.113098 290.561096,300.279419 296.541046,305.956757 
	C301.676270,310.832092 307.193634,315.303009 312.489044,320.012329 
	C315.298676,322.510956 317.385986,321.526428 319.523132,319.019745 
	C323.493561,314.362732 323.215851,308.452911 324.500580,303.000122 
	C324.736389,301.999176 323.893250,301.207123 324.415405,299.964447 
	C326.787598,294.319244 324.856873,290.356781 320.139191,286.336639 
	C313.833191,280.962982 308.163544,274.914154 301.091125,270.358521 
	C298.313416,268.569305 295.625702,267.456635 292.500000,267.000000 
"/>
<path fill="none" opacity="1.000000" stroke="#000000" stroke-linecap="round" stroke-linejoin="round" stroke-width="6.000000"
	d="
M189.000000,308.500000 
	C187.593521,304.861603 186.187057,301.223206 184.808609,297.657288 
	C191.873932,291.850708 202.208862,293.121368 204.978439,300.008667 
	C205.962936,302.456848 205.764374,304.753235 204.038391,307.029114 
	C199.980774,312.379578 193.859802,315.251160 189.168564,319.678619 
	C184.255295,324.315613 177.088394,323.222839 172.374176,327.872437 
	C171.120804,329.108612 169.582367,329.954651 169.000000,331.750000 
"/>
<path fill="none" opacity="1.000000" stroke="#000000" stroke-linecap="round" stroke-linejoin="round" stroke-width="4.000000"
	d="
M153.000000,200.000000 
	C152.982666,201.964966 153.193954,203.935593 151.513229,205.514099 
	C146.162415,210.539474 144.544891,217.541611 142.091690,224.034637 
	C140.981232,226.973785 138.276260,229.425415 139.000000,233.000000 
"/>
<path fill="none" opacity="1.000000" stroke="#000000" stroke-linecap="round" stroke-linejoin="round" stroke-width="6.000000"
	d="
M270.500000,297.500000 
	C272.863190,302.584320 270.609406,307.545959 269.928925,312.490204 
	C268.942322,319.658569 264.753387,325.737854 262.290344,332.422760 
	C261.200409,335.380890 257.833313,337.500000 255.499985,340.000000 
"/>
<path fill="none" opacity="1.000000" stroke="#000000" stroke-linecap="round" stroke-linejoin="round" stroke-width="3.000000"
	d="
M293.500000,277.000000 
	C302.497955,283.395325 310.965088,290.437988 318.983887,298.017029 
	C320.434784,299.388336 321.715759,300.901825 324.000000,300.500000 
"/>
<path fill="none" opacity="1.000000" stroke="#000000" stroke-linecap="round" stroke-linejoin="round" stroke-width="5.000000"
	d="
M107.500000,200.000000 
	C107.954124,204.443420 106.792336,208.800049 105.807648,212.954407 
	C104.337250,219.157944 104.685783,225.307861 104.500000,231.500000 
"/>
<path fill="none" opacity="1.000000" stroke="#000000" stroke-linecap="round" stroke-linejoin="round" stroke-width="8.000000"
	d="
M76.500000,224.500000 
	C75.042740,228.145294 76.037300,230.126648 79.955673,231.616562 
	C87.312477,234.413925 94.705223,231.579910 101.995712,232.532822 
	C112.795914,233.944489 123.881767,232.169739 134.500000,235.500000 
"/>
<path fill="none" opacity="1.000000" stroke="#000000" stroke-linecap="round" stroke-linejoin="round" stroke-width="5.000000"
	d="
M185.500000,262.000000 
	C188.740265,267.709473 192.517776,273.074585 195.139282,279.190308 
	C196.894470,283.285034 202.214340,284.511841 204.500000,288.500000 
"/>
<path fill="none" opacity="1.000000" stroke="#000000" stroke-linecap="round" stroke-linejoin="round" stroke-width="3.000000"
	d="
M272.500000,300.500000 
	C275.364075,299.065674 276.647369,301.881409 277.895020,303.106873 
	C286.643066,311.699707 296.281189,319.360413 304.515503,328.486023 
	C305.063354,329.093201 305.833313,329.500000 306.500000,330.000000 
"/>
<path fill="none" opacity="1.000000" stroke="#000000" stroke-linecap="round" stroke-linejoin="round" stroke-width="4.000000"
	d="
M209.500000,250.500000 
	C204.802261,255.671326 198.210434,256.932556 192.003693,259.011017 
	C187.269791,260.596283 182.638580,262.950684 177.500000,260.500000 
"/>
<path fill="none" opacity="1.000000" stroke="#000000" stroke-linecap="round" stroke-linejoin="round" stroke-width="6.000000"
	d="
M76.000000,230.500000 
	C74.833336,231.000000 73.703590,231.801208 72.493813,231.949539 
	C66.173729,232.724304 59.815395,233.200241 53.506798,234.050430 
	C49.787086,234.551743 46.105946,233.778320 43.083721,232.325806 
	C36.773804,229.293182 30.031088,229.681778 23.500000,228.500000 
"/>
<path fill="none" opacity="1.000000" stroke="#000000" stroke-linecap="round" stroke-linejoin="round" stroke-width="3.000000"
	d="
M275.000000,319.500000 
	C274.376587,326.891998 268.875580,333.080627 263.000000,333.000000 
"/>
<path fill="none" opacity="1.000000" stroke="#000000" stroke-linecap="round" stroke-linejoin="round" stroke-width="5.000000"
	d="
M183.000000,203.000000 
	C181.379120,207.074646 181.822250,211.757553 179.107773,215.576599 
	C178.534088,216.383713 179.333328,218.166672 179.500000,219.500000 
"/>
<path fill="none" opacity="1.000000" stroke="#000000" stroke-linecap="round" stroke-linejoin="round" stroke-width="2.000000"
	d="
M77.000000,203.500000 
	C76.833336,208.833328 76.666664,214.166672 76.500000,219.500000 
"/>
<path fill="none" opacity="1.000000" stroke="#000000" stroke-linecap="round" stroke-linejoin="round" stroke-width="4.000000"
	d="
M222.000000,293.000000 
	C223.140259,298.138977 226.494568,300.940918 231.500000,302.000000 
"/>
<path fill="none" opacity="1.000000" stroke="#000000" stroke-linecap="round" stroke-linejoin="round" stroke-width="3.000000"
	d="
M89.000000,234.000000 
	C88.833328,237.833328 88.666664,241.666672 88.500000,245.500000 
"/>
<path fill="none" opacity="1.000000" stroke="#000000" stroke-linecap="round" stroke-linejoin="round" stroke-width="4.000000"
	d="
M153.500000,229.500000 
	C154.315048,233.355133 155.963821,236.907089 157.500000,240.500000 
"/>
<path fill="none" opacity="1.000000" stroke="#000000" stroke-linecap="round" stroke-linejoin="round" stroke-width="5.000000"
	d="
M183.000000,324.500000 
	C184.095871,328.384277 181.595474,331.778168 181.500000,335.500000 
"/>
<path fill="none" opacity="1.000000" stroke="#000000" stroke-linecap="round" stroke-linejoin="round" stroke-width="3.000000"
	d="
M279.750000,307.000000 
	C278.412628,310.389801 276.210938,313.553253 277.000000,317.500000 
"/>
<path fill="none" opacity="1.000000" stroke="#000000" stroke-linecap="round" stroke-linejoin="round" stroke-width="3.000000"
	d="
M179.500000,269.500000 
	C178.873306,271.375580 180.212234,272.576752 180.976822,274.012360 
	C182.046051,276.019897 182.794296,278.150024 182.500000,280.500000 
"/>
<path fill="none" opacity="1.000000" stroke="#000000" stroke-linecap="round" stroke-linejoin="round" stroke-width="3.000000"
	d="
M54.500000,250.500000 
	C53.260273,253.440384 54.788776,256.534576 54.000000,259.500000 
"/>
<path fill="none" opacity="1.000000" stroke="#000000" stroke-linecap="round" stroke-linejoin="round" stroke-width="7.000000"
	d="
M83.500000,246.500000 
	C83.087410,251.707657 87.259209,256.151245 86.000000,261.500000 
"/>
<path fill="none" opacity="1.000000" stroke="#000000" stroke-linecap="round" stroke-linejoin="round" stroke-width="3.000000"
	d="
M85.000008,233.500000 
	C84.666672,236.166672 84.333336,238.833328 84.000008,241.500000 
"/>
<path fill="none" opacity="1.000000" stroke="#000000" stroke-linecap="round" stroke-linejoin="round" stroke-width="3.000000"
	d="
M169.500015,254.500000 
	C169.333344,257.000000 169.166672,259.500000 169.000015,262.000000 
"/>
</svg>