<svg version="1.1" id="Layer_1" xmlns="http://www.w3.org/2000/svg" xmlns:xlink="http://www.w3.org/1999/xlink" x="0px" y="0px"
	 width="100%" viewBox="0 0 336 384" enable-background="new 0 0 336 384" xml:space="preserve">
<path fill="none" opacity="1.000000" stroke="#000000" stroke-linecap="round" stroke-linejoin="round" stroke-width="16.000000"
	d="
M50.500000,185.500000 
	C49.920433,188.215912 51.099041,191.317566 52.232166,192.825546 
	C57.061756,199.252792 54.666267,205.988541 53.825836,212.477448 
	C53.176842,217.488312 52.638638,222.453064 52.467064,227.498886 
	C52.070404,239.164307 50.739468,250.830765 51.580208,262.494232 
	C52.419388,274.136078 56.515129,284.309357 65.407455,292.599274 
	C74.890862,301.440247 94.269005,299.133667 101.521233,290.517883 
	C102.195244,289.717102 103.166672,289.166656 104.000000,288.500000 
"/>
<path fill="none" opacity="1.000000" stroke="#000000" stroke-linecap="round" stroke-linejoin="round" stroke-width="5.000000"
	d="
M251.500000,267.000000 
	C248.089371,263.399902 243.024597,264.520233 238.965836,262.571167 
	C227.218567,256.929901 216.896973,249.220963 210.933167,237.774323 
	C208.605682,233.307068 205.740616,226.828888 209.760971,220.351639 
	C211.781296,217.096649 209.076370,213.022003 206.483093,210.014572 
	C206.104996,209.576111 205.526657,209.281555 204.995758,209.008224 
	C200.944977,206.922760 198.569458,203.632721 196.334778,199.591354 
	C191.027542,189.993332 183.397156,182.065018 176.058304,173.947296 
	C170.268295,167.542816 164.970612,160.690567 159.519333,153.984283 
	C158.035522,152.158890 158.997894,144.198715 161.026886,142.025101 
	C164.159500,138.669189 167.695236,135.785782 172.002289,134.005524 
	C173.126724,133.540741 174.384689,132.166336 175.448029,133.061722 
	C179.159042,136.186615 183.023132,134.352005 187.007767,134.182907 
	C190.972336,134.014648 195.201965,136.408188 198.944565,135.704941 
	C202.875717,134.966263 206.542999,134.554810 210.508484,134.903412 
	C213.968094,135.207550 217.735825,135.856033 220.960800,134.412430 
	C229.230392,130.710739 235.926117,133.951935 242.501694,138.497543 
	C252.439346,145.367249 259.044281,155.627533 267.972473,163.531097 
	C269.992950,165.319687 271.441345,167.787277 273.547577,169.439331 
	C277.747192,172.733337 278.526978,177.119308 278.518311,182.000031 
	C278.498108,193.353668 277.889771,204.781509 280.089874,215.982346 
	C281.888763,225.140808 282.578033,234.279449 281.410614,243.488663 
	C280.958130,247.058075 279.550354,250.515457 278.482513,253.994629 
	C277.754547,256.366669 277.882874,258.357239 279.446289,260.538513 
	C286.002869,269.686188 289.775238,280.370483 295.344635,290.089020 
	C297.194214,293.316467 294.816467,297.114136 293.515472,300.505920 
	C292.439789,303.310242 291.436035,306.145996 290.512604,309.004059 
	C288.195801,316.174469 281.506165,318.509674 275.902435,321.835602 
	C274.189270,322.852386 271.286713,322.319397 269.000000,321.500000 
"/>
<path fill="none" opacity="1.000000" stroke="#000000" stroke-linecap="round" stroke-linejoin="round" stroke-width="5.000000"
	d="
M65.000000,143.000000 
	C58.128910,147.082275 59.584183,154.393234 63.157967,159.386948 
	C69.684639,168.506775 77.842697,176.151154 87.131180,182.669312 
	C90.216858,184.834656 92.537102,188.362976 95.475533,191.026978 
	C97.866486,193.194626 100.077682,195.512314 103.494995,196.032837 
	C104.196167,196.139633 105.149033,196.488617 105.452560,197.026764 
	C109.874916,204.867477 118.306290,208.172089 124.560951,213.933838 
	C128.287399,217.366608 129.392242,222.241211 132.433014,226.053421 
	C149.282150,247.177231 164.014725,269.962830 183.348602,289.152527 
	C189.125595,294.886444 195.614151,298.185425 203.002945,300.490570 
	C211.245941,303.062256 219.590073,300.172089 225.582291,293.574738 
	C229.132416,289.666138 233.436493,286.423248 237.529572,283.035736 
	C239.301331,281.569397 241.396133,280.493378 243.221680,279.318878 
	C245.362488,280.186462 245.879074,281.882355 246.500000,283.500000 
"/>
<path fill="none" opacity="1.000000" stroke="#000000" stroke-linecap="round" stroke-linejoin="round" stroke-width="6.000000"
	d="
M208.500000,303.000000 
	C209.205933,309.445526 215.267746,312.343628 218.119217,317.433197 
	C220.723511,322.081604 224.362442,326.145752 227.492126,330.505646 
	C230.877747,335.222046 231.687271,335.166077 237.525452,333.594543 
	C244.052322,331.837677 250.586533,330.140350 257.002075,328.006287 
	C257.152130,327.956360 257.342133,328.034668 257.498749,327.995026 
	C268.966858,325.091034 269.887482,322.894958 264.000000,312.500000 
"/>
<path fill="none" opacity="1.000000" stroke="#000000" stroke-linecap="round" stroke-linejoin="round" stroke-width="5.000000"
	d="
M171.500000,216.000000 
	C170.452957,211.885544 167.738815,208.468628 164.406097,206.674423 
	C156.273178,202.295975 149.530334,196.003326 141.594803,191.338730 
	C132.333191,185.894623 122.881454,180.558090 114.949898,173.052948 
	C112.858673,171.074158 110.171768,169.746231 107.631844,168.272736 
	C103.703003,165.993500 99.521591,164.175140 96.260849,160.195969 
	C90.754074,153.475922 84.615150,147.002609 76.525978,142.948166 
	C73.612320,141.487793 70.699646,140.768280 67.500000,141.000000 
"/>
<path fill="none" opacity="1.000000" stroke="#000000" stroke-linecap="round" stroke-linejoin="round" stroke-width="4.000000"
	d="
M158.000000,152.500000 
	C157.000000,152.500000 155.910522,152.762283 155.014771,152.456726 
	C149.837738,150.690598 145.795715,153.099243 142.029358,156.037643 
	C137.990067,159.188980 133.585571,162.267288 133.040115,168.003815 
	C132.648148,172.126312 133.413223,176.279053 135.146484,179.930466 
	C136.263046,182.282654 137.023224,184.469559 137.000000,187.000000 
"/>
<path fill="none" opacity="1.000000" stroke="#000000" stroke-linecap="round" stroke-linejoin="round" stroke-width="5.000000"
	d="
M180.000000,136.000000 
	C176.969345,141.282898 177.762222,147.353699 176.608322,153.022049 
	C175.876617,156.616486 179.196426,158.803162 181.592255,160.357819 
	C186.238708,163.372864 191.593491,165.053772 196.982071,166.563980 
	C202.924530,168.229477 209.324127,167.637131 215.012177,170.475586 
	C217.790878,171.862213 220.252945,169.932922 222.424637,168.848999 
	C224.758331,167.684250 226.500000,165.333344 228.500000,163.500000 
"/>
<path fill="none" opacity="1.000000" stroke="#000000" stroke-linecap="round" stroke-linejoin="round" stroke-width="3.000000"
	d="
M229.000000,132.000000 
	C227.829163,123.874695 221.021896,121.480003 214.926361,118.659142 
	C213.452774,117.977203 211.977966,117.179932 210.524261,116.451561 
	C203.542206,112.953201 197.712677,114.730537 192.487732,119.987816 
	C191.574158,120.907051 190.500000,121.666672 189.500000,122.500008 
"/>
<path fill="none" opacity="1.000000" stroke="#000000" stroke-linecap="round" stroke-linejoin="round" stroke-width="4.000000"
	d="
M198.000000,137.000000 
	C198.000000,138.333328 197.978104,139.667084 198.003525,140.999939 
	C198.184967,150.512741 196.125549,152.444244 186.503311,151.467361 
	C183.628845,151.175552 180.765060,150.570969 178.500000,148.500000 
"/>
<path fill="none" opacity="1.000000" stroke="#000000" stroke-linecap="round" stroke-linejoin="round" stroke-width="4.000000"
	d="
M196.500000,230.000000 
	C196.558823,239.835159 195.431091,249.690430 197.000000,259.500000 
"/>
<path fill="none" opacity="1.000000" stroke="#000000" stroke-linecap="round" stroke-linejoin="round" stroke-width="6.000000"
	d="
M277.500000,258.500000 
	C270.037933,261.594849 262.924927,265.487793 255.030090,267.611877 
	C251.865860,268.463196 250.453415,273.313568 252.036926,276.481537 
	C254.736267,281.881866 257.666656,287.166656 260.500000,292.500000 
"/>
<path fill="none" opacity="1.000000" stroke="#000000" stroke-linecap="round" stroke-linejoin="round" stroke-width="8.000000"
	d="
M227.000000,190.000000 
	C227.302338,194.877167 226.183945,199.826736 225.442459,204.409790 
	C224.803268,208.360626 222.031052,214.261185 215.502930,214.563431 
	C213.816727,214.641510 212.166672,215.500000 210.500000,216.000000 
"/>
<path fill="none" opacity="1.000000" stroke="#000000" stroke-linecap="round" stroke-linejoin="round" stroke-width="4.000000"
	d="
M140.000000,191.500000 
	C135.432510,196.999557 130.656372,202.302216 129.855133,209.984894 
	C129.670624,211.753998 127.666664,213.333328 126.500000,215.000000 
"/>
<path fill="none" opacity="1.000000" stroke="#000000" stroke-linecap="round" stroke-linejoin="round" stroke-width="7.000000"
	d="
M197.500000,205.000000 
	C195.563889,205.781738 194.237396,207.451111 192.593811,208.630707 
	C188.523300,211.552063 185.094070,215.134995 187.434555,221.026001 
	C187.971878,222.378479 187.802444,224.070648 187.000000,225.500000 
"/>
<path fill="none" opacity="1.000000" stroke="#000000" stroke-linecap="round" stroke-linejoin="round" stroke-width="5.000000"
	d="
M207.000000,225.500000 
	C203.872849,226.339706 200.783859,226.750336 197.826614,228.742630 
	C195.909424,230.034225 192.013992,229.881073 189.561935,228.397614 
	C185.500839,225.940750 181.729477,222.961914 178.024689,219.969437 
	C172.661224,215.637253 172.770767,215.684586 166.977203,218.959671 
	C161.450729,222.083786 155.333817,224.176285 150.500000,228.500000 
"/>
<path fill="none" opacity="1.000000" stroke="#000000" stroke-linecap="round" stroke-linejoin="round" stroke-width="8.000000"
	d="
M216.000000,171.500000 
	C214.792831,177.921249 219.518372,186.059845 225.473892,188.562149 
	C229.616959,190.302933 231.080414,186.519852 232.828827,184.823563 
	C236.193253,181.559509 239.520538,181.319611 243.500000,182.500000 
"/>
<path fill="none" opacity="1.000000" stroke="#000000" stroke-linecap="round" stroke-linejoin="round" stroke-width="3.000000"
	d="
M262.000000,292.750000 
	C259.227814,291.628448 259.785889,293.922485 260.068817,294.981628 
	C261.238037,299.358795 262.831909,303.627502 263.874878,308.029633 
	C264.112762,309.033722 265.411743,311.464691 262.500000,311.750000 
"/>
<path fill="none" opacity="1.000000" stroke="#000000" stroke-linecap="round" stroke-linejoin="round" stroke-width="5.000000"
	d="
M119.500000,178.000000 
	C113.649033,183.078873 109.490593,189.474167 105.500000,196.000000 
"/>
<path fill="none" opacity="1.000000" stroke="#000000" stroke-linecap="round" stroke-linejoin="round" stroke-width="3.000000"
	d="
M209.000000,239.500000 
	C204.561844,244.353439 209.520218,248.522217 210.132095,252.981873 
	C210.277390,254.040955 211.698120,255.034134 211.500000,256.500000 
"/>
<path fill="none" opacity="1.000000" stroke="#000000" stroke-linecap="round" stroke-linejoin="round" stroke-width="4.000000"
	d="
M214.500000,176.000000 
	C209.496979,176.895172 207.152466,181.917999 202.581726,183.708618 
	C201.235901,184.235855 199.571640,183.802155 198.500000,185.000000 
"/>
<path fill="none" opacity="1.000000" stroke="#000000" stroke-linecap="round" stroke-linejoin="round" stroke-width="5.000000"
	d="
M90.500000,281.500000 
	C92.166672,281.666656 93.838196,282.014862 95.499207,281.970367 
	C105.806885,281.694336 108.955536,286.206451 111.471870,295.507599 
	C111.998772,297.455231 112.166672,299.500000 112.500000,301.500000 
"/>
<path fill="none" opacity="1.000000" stroke="#000000" stroke-linecap="round" stroke-linejoin="round" stroke-width="5.000000"
	d="
M225.000000,197.000000 
	C221.465210,197.563950 218.064224,195.114105 214.501938,196.504974 
	C208.591507,198.812683 206.581055,203.694016 206.000000,209.500000 
"/>
<path fill="none" opacity="1.000000" stroke="#000000" stroke-linecap="round" stroke-linejoin="round" stroke-width="3.000000"
	d="
M237.000000,188.000000 
	C240.421875,192.734375 245.493042,192.520859 250.500000,192.500000 
"/>
<path fill="none" opacity="1.000000" stroke="#000000" stroke-linecap="round" stroke-linejoin="round" stroke-width="4.000000"
	d="
M224.500000,171.000000 
	C227.263702,175.328659 232.350372,177.637360 234.500000,182.500000 
"/>
<path fill="none" opacity="1.000000" stroke="#000000" stroke-linecap="round" stroke-linejoin="round" stroke-width="3.000000"
	d="
M271.000000,264.000000 
	C272.500000,267.833344 274.000000,271.666656 275.500000,275.500000 
"/>
<path fill="none" opacity="1.000000" stroke="#000000" stroke-linecap="round" stroke-linejoin="round" stroke-width="3.000000"
	d="
M98.000000,165.500000 
	C95.969536,168.921860 92.886795,171.659744 91.500000,175.500000 
"/>
<path fill="none" opacity="1.000000" stroke="#000000" stroke-linecap="round" stroke-linejoin="round" stroke-width="3.000000"
	d="
M275.000000,310.500000 
	C275.701233,313.770081 278.585205,315.675903 280.000000,318.500000 
"/>
<path fill="none" opacity="1.000000" stroke="#000000" stroke-linecap="round" stroke-linejoin="round" stroke-width="3.000000"
	d="
M177.000000,193.000000 
	C175.721390,194.721390 172.754303,194.754303 172.500000,197.500000 
"/>
<path fill="none" opacity="1.000000" stroke="#000000" stroke-linecap="round" stroke-linejoin="round" stroke-width="2.000000"
	d="
M224.500000,296.500000 
	C226.166672,296.833344 227.833328,297.166687 229.500000,297.500000 
"/>
<path fill="none" opacity="1.000000" stroke="#000000" stroke-linecap="round" stroke-linejoin="round" stroke-width="2.000000"
	d="
M263.500000,294.000000 
	C264.333344,295.166656 265.166656,296.333344 266.000000,297.500000 
"/>
</svg>