<svg version="1.1" id="Layer_1" xmlns="http://www.w3.org/2000/svg" xmlns:xlink="http://www.w3.org/1999/xlink" x="0px" y="0px"
	 width="100%" viewBox="0 0 336 384" enable-background="new 0 0 336 384" xml:space="preserve">
<path fill="none" opacity="1.000000" stroke="#000000" stroke-linecap="round" stroke-linejoin="round" stroke-width="6.000000"
	d="
M65.500000,200.000000 
	C64.155296,200.994324 63.342846,202.197830 63.482635,204.001343 
	C64.037239,211.156418 63.246235,218.292679 64.266785,225.532867 
	C65.430931,233.791840 65.704880,242.227203 67.049561,250.491943 
	C69.544426,265.826050 70.966949,281.351715 74.601173,296.475677 
	C76.151512,302.927490 77.566383,305.812500 86.498360,306.059326 
	C95.724632,306.314362 104.567711,304.188995 113.500000,302.500000 
"/>
<path fill="none" opacity="1.000000" stroke="#000000" stroke-linecap="round" stroke-linejoin="round" stroke-width="5.000000"
	d="
M250.000000,205.500000 
	C253.479172,198.721359 260.369690,196.214828 266.587006,193.716507 
	C276.208221,189.850388 286.528534,188.260559 296.992340,190.044983 
	C301.794678,190.863953 306.115387,192.655701 308.540405,197.479691 
	C310.261353,200.903137 309.589111,203.551300 305.997192,205.494827 
	C303.177704,207.020416 300.311188,208.459915 297.505035,210.009125 
	C292.982758,212.505783 289.027649,215.536850 285.324768,219.328903 
	C280.625580,224.141312 277.215088,231.233246 269.000000,231.500000 
	C266.195648,235.912262 261.787872,238.324249 257.533234,241.051865 
	C246.664536,248.019730 236.124588,255.477081 226.024445,263.530640 
	C224.844421,264.471558 223.802200,265.716095 223.030548,267.018097 
	C215.273361,280.106659 203.514725,288.237762 190.053207,294.612366 
	C183.474823,297.727539 176.686295,300.231201 169.962189,302.904877 
	C165.075775,304.847809 161.646713,309.164062 156.500000,310.500000 
"/>
<path fill="none" opacity="1.000000" stroke="#000000" stroke-linecap="round" stroke-linejoin="round" stroke-width="5.000000"
	d="
M205.000000,215.500000 
	C207.882874,210.497818 206.204025,205.120590 205.874527,200.008087 
	C205.099533,187.982849 203.720963,175.994339 202.470673,164.003052 
	C202.029892,159.775421 201.997879,155.527740 200.171295,151.423767 
	C199.332031,149.538147 200.722977,146.783112 200.429932,144.509033 
	C199.378250,136.347549 200.067001,128.015686 197.583252,119.974289 
	C196.121384,115.241364 198.364288,110.392876 198.105591,105.494423 
	C197.666946,97.189163 196.857208,88.986992 194.468521,81.009422 
	C193.568283,78.002846 194.754211,75.062759 194.123276,71.974808 
	C192.404190,63.561260 192.559143,54.743931 188.020218,46.988171 
	C183.482346,39.234226 176.927139,35.789116 169.500000,37.500000 
	C164.601761,38.628338 162.283249,42.411880 163.522324,47.494556 
	C164.211166,50.320168 164.203461,53.177502 163.956512,55.996189 
	C163.320145,63.259895 166.165512,69.981216 167.235733,76.963867 
	C167.649445,79.663277 166.365204,81.597885 166.397827,84.001389 
	C166.504013,91.831024 166.039780,99.666855 166.051376,107.499924 
	C166.057541,111.667015 167.549911,115.640915 166.193008,120.059273 
	C165.053619,123.769455 166.353455,128.008438 165.570801,132.013840 
	C165.294601,133.427307 165.833328,135.000000 166.000000,136.500000 
"/>
<path fill="none" opacity="1.000000" stroke="#000000" stroke-linecap="round" stroke-linejoin="round" stroke-width="6.000000"
	d="
M78.000000,305.500000 
	C71.142662,311.633972 70.630775,320.682068 67.602669,328.539581 
	C66.092018,332.459503 65.658310,336.794495 64.661903,341.282013 
	C75.144211,350.330963 86.727638,357.347595 100.044632,360.829285 
	C106.033485,362.395050 112.123756,362.252441 118.666801,359.980347 
	C123.630577,358.256592 129.205612,357.871399 134.011215,355.018890 
	C142.363586,350.061005 148.097260,343.411804 150.126770,333.526031 
	C151.455261,327.054810 153.933365,320.811157 156.031708,314.510559 
	C156.911789,311.867981 155.462372,310.487244 154.148392,308.406311 
	C148.807983,299.948578 139.040512,296.126221 133.499786,288.000153 
	C132.528961,286.576324 130.622086,285.391907 131.059784,283.513947 
	C133.325134,273.794434 132.196716,263.593475 135.138260,254.042587 
	C136.062683,251.041122 136.843994,248.040222 137.470551,244.993942 
	C138.401779,240.466492 143.624710,237.529724 148.009842,238.970016 
	C156.331787,241.703384 163.901291,239.097961 170.936111,234.893112 
	C173.545120,233.333664 173.394913,229.752060 173.672333,226.992188 
	C174.792236,215.850693 174.144882,204.660965 173.878204,193.502914 
	C173.778046,189.312195 175.898315,186.327652 177.562820,183.031723 
	C178.485764,181.204163 180.667923,180.481674 182.467560,181.095154 
	C185.349350,182.077499 187.849365,180.923126 190.500000,180.500000 
"/>
<path fill="none" opacity="1.000000" stroke="#000000" stroke-linecap="round" stroke-linejoin="round" stroke-width="3.000000"
	d="
M139.000000,149.000000 
	C134.864670,147.046310 130.577545,145.139267 126.023369,147.055542 
	C118.029709,150.419037 109.808762,153.754272 106.109489,162.546066 
	C105.403076,164.224945 105.255524,166.254166 105.843468,168.540253 
	C109.417770,182.438339 113.473358,196.229660 115.597115,210.485535 
	C116.245766,214.839722 116.915329,219.017761 116.762482,223.508926 
	C116.641922,227.051147 119.722015,230.479843 119.000000,234.500000 
"/>
<path fill="none" opacity="1.000000" stroke="#000000" stroke-linecap="round" stroke-linejoin="round" stroke-width="6.000000"
	d="
M178.500000,181.500000 
	C175.157791,177.333328 176.890686,173.268524 178.417801,168.970795 
	C179.886505,164.837448 181.171387,160.625839 180.570007,155.990921 
	C179.614227,148.624863 175.005020,143.730927 169.986908,139.013931 
	C169.110458,138.190063 168.062592,137.548538 166.874100,136.658142 
	C163.614700,138.268845 159.983978,138.268311 156.482895,138.906067 
	C149.852798,140.113846 145.129349,144.077469 140.426773,148.420715 
	C139.068680,149.675034 139.438812,150.903793 139.571732,151.991226 
	C140.547180,159.970673 139.689392,168.085297 141.443359,176.012527 
	C141.830078,177.760300 141.476578,179.667023 141.503860,181.499939 
	C141.662643,192.166733 141.762894,202.835129 142.035248,213.499100 
	C142.141739,217.669342 141.818405,221.691956 140.000000,225.500000 
"/>
<path fill="none" opacity="1.000000" stroke="#000000" stroke-linecap="round" stroke-linejoin="round" stroke-width="4.000000"
	d="
M132.000000,301.500000 
	C128.332489,306.223602 127.758385,312.203644 125.587936,317.535797 
	C122.730049,324.556763 119.558426,331.670746 118.284203,339.049072 
	C117.172867,345.484283 115.648872,352.484222 119.000000,359.000000 
"/>
<path fill="none" opacity="1.000000" stroke="#000000" stroke-linecap="round" stroke-linejoin="round" stroke-width="3.000000"
	d="
M131.000000,297.000000 
	C127.833527,299.166962 124.667038,301.333893 121.618408,303.420197 
	C119.014336,303.059113 116.899895,299.834137 113.446495,302.881439 
	C116.768860,307.983002 114.343826,313.283508 112.293709,317.908569 
	C108.805969,325.776794 106.412399,333.969574 103.568138,342.024048 
	C102.727119,344.405670 102.367691,347.097717 104.000000,349.500000 
"/>
<path fill="none" opacity="1.000000" stroke="#000000" stroke-linecap="round" stroke-linejoin="round" stroke-width="5.000000"
	d="
M257.500000,212.500000 
	C253.274796,206.267609 248.599319,205.399399 241.370804,208.718628 
	C233.115372,212.509384 224.754578,216.154480 216.500534,220.001129 
	C212.683899,221.779816 209.039810,224.564636 204.494949,222.008987 
	C204.368317,221.937775 204.156128,221.962250 204.001511,222.005417 
	C197.441605,223.836838 191.875504,221.336334 186.500000,218.000000 
"/>
<path fill="none" opacity="1.000000" stroke="#000000" stroke-linecap="round" stroke-linejoin="round" stroke-width="4.000000"
	d="
M83.000000,189.500000 
	C84.729370,196.071991 86.045975,202.594070 90.786415,208.181213 
	C93.469788,211.343842 94.297813,216.255875 95.407898,220.523956 
	C96.333611,224.083191 97.994736,227.283936 99.600418,230.449051 
	C102.368187,235.904892 107.556343,237.406113 112.945580,235.588638 
	C117.484451,234.057938 121.825226,235.147659 124.262543,237.724594 
	C128.160172,241.845520 132.894577,241.809784 137.500000,243.000000 
"/>
<path fill="none" opacity="1.000000" stroke="#000000" stroke-linecap="round" stroke-linejoin="round" stroke-width="5.000000"
	d="
M91.000000,169.500000 
	C87.380356,172.014297 83.649231,174.081802 78.999641,174.038300 
	C73.637001,173.988113 67.869072,179.417557 66.502472,185.500549 
	C66.316238,186.329529 66.246651,187.208694 66.115562,188.018707 
	C65.474884,191.977417 61.677319,196.952026 66.154327,199.753357 
	C71.469772,203.079361 77.527794,207.566055 84.521904,202.530426 
	C84.851204,202.293335 85.500000,202.500000 86.000000,202.500000 
"/>
<path fill="none" opacity="1.000000" stroke="#000000" stroke-linecap="round" stroke-linejoin="round" stroke-width="5.000000"
	d="
M196.000000,116.500000 
	C187.957306,112.760239 179.391571,114.238892 170.999359,114.025330 
	C170.171143,114.004257 169.180908,113.571190 168.500000,114.500000 
"/>
<path fill="none" opacity="1.000000" stroke="#000000" stroke-linecap="round" stroke-linejoin="round" stroke-width="8.000000"
	d="
M207.500000,224.000000 
	C209.420502,228.015289 209.698090,232.553864 211.854416,236.578003 
	C213.144882,238.986267 213.289185,242.395416 211.877167,244.931610 
	C210.622971,247.184357 211.334747,248.979233 211.750000,251.000000 
"/>
<path fill="none" opacity="1.000000" stroke="#000000" stroke-linecap="round" stroke-linejoin="round" stroke-width="5.000000"
	d="
M193.000000,79.500000 
	C191.833328,79.500000 190.539764,79.833809 189.520432,79.446266 
	C182.481613,76.770203 175.500000,78.990692 168.500000,79.500000 
"/>
<path fill="none" opacity="1.000000" stroke="#000000" stroke-linecap="round" stroke-linejoin="round" stroke-width="6.000000"
	d="
M152.000000,307.000000 
	C144.299042,308.678833 138.757416,303.240692 132.279068,300.918915 
	C131.645142,300.691711 131.416656,299.333344 131.000000,298.500000 
"/>
<path fill="none" opacity="1.000000" stroke="#000000" stroke-linecap="round" stroke-linejoin="round" stroke-width="4.000000"
	d="
M146.999985,226.999985 
	C147.833313,225.999985 148.703674,225.028290 149.493668,223.995163 
	C153.129501,219.240219 158.976517,219.708084 162.598557,224.424316 
	C165.446640,228.132782 164.910049,232.585541 166.500000,236.500000 
"/>
<path fill="none" opacity="1.000000" stroke="#000000" stroke-linecap="round" stroke-linejoin="round" stroke-width="5.000000"
	d="
M199.000000,151.000000 
	C192.682114,150.373199 186.421692,148.654648 180.000000,150.000000 
"/>
<path fill="none" opacity="1.000000" stroke="#000000" stroke-linecap="round" stroke-linejoin="round" stroke-width="8.000000"
	d="
M145.000000,237.750000 
	C145.000000,236.333328 145.004837,234.916656 144.999084,233.500000 
	C144.982300,229.368591 141.997986,225.959839 138.000000,225.500000 
	C131.924469,224.801193 128.450027,226.872635 127.566299,232.011398 
	C127.327141,233.402069 127.036247,234.563156 126.000000,235.500000 
"/>
<path fill="none" opacity="1.000000" stroke="#000000" stroke-linecap="round" stroke-linejoin="round" stroke-width="3.000000"
	d="
M191.500000,163.500000 
	C190.202850,167.680481 187.131668,170.812790 185.004120,174.502380 
	C183.847427,176.508347 181.959824,178.087677 181.500000,180.500000 
"/>
<path fill="none" opacity="1.000000" stroke="#000000" stroke-linecap="round" stroke-linejoin="round" stroke-width="3.000000"
	d="
M215.000000,246.000000 
	C216.813248,246.720886 217.206635,248.073746 217.628494,249.971436 
	C218.585617,254.276718 219.951385,258.557007 223.000000,262.000000 
"/>
<path fill="none" opacity="1.000000" stroke="#000000" stroke-linecap="round" stroke-linejoin="round" stroke-width="3.000000"
	d="
M110.500000,336.500000 
	C111.602562,340.888702 108.190628,343.946625 106.656715,347.345062 
	C105.918137,348.981445 104.403893,351.702118 102.000000,352.750000 
"/>
<path fill="none" opacity="1.000000" stroke="#000000" stroke-linecap="round" stroke-linejoin="round" stroke-width="4.000000"
	d="
M115.500000,224.500000 
	C110.690872,225.448212 109.008400,227.542160 109.505463,231.999390 
	C109.636009,233.170090 109.833328,234.333328 110.000000,235.500000 
"/>
<path fill="none" opacity="1.000000" stroke="#000000" stroke-linecap="round" stroke-linejoin="round" stroke-width="4.000000"
	d="
M140.500000,206.000000 
	C135.946198,206.044601 131.740814,207.599091 127.500000,209.000000 
"/>
<path fill="none" opacity="1.000000" stroke="#000000" stroke-linecap="round" stroke-linejoin="round" stroke-width="3.000000"
	d="
M194.500000,207.500000 
	C197.360901,210.166931 199.711182,213.336838 203.461746,215.082214 
	C206.236496,216.373489 206.026581,219.359558 206.000000,222.000000 
"/>
<path fill="none" opacity="1.000000" stroke="#000000" stroke-linecap="round" stroke-linejoin="round" stroke-width="2.000000"
	d="
M104.500000,166.500000 
	C101.093521,168.597717 97.376068,168.985016 93.500000,168.500000 
"/>
<path fill="none" opacity="1.000000" stroke="#000000" stroke-linecap="round" stroke-linejoin="round" stroke-width="4.000000"
	d="
M161.500000,204.500000 
	C158.146301,204.259338 154.883972,205.846085 151.500000,205.000000 
"/>
<path fill="none" opacity="1.000000" stroke="#000000" stroke-linecap="round" stroke-linejoin="round" stroke-width="3.000000"
	d="
M192.500000,223.000000 
	C189.548935,225.578003 185.944366,224.888504 182.500000,225.000000 
"/>
<path fill="none" opacity="1.000000" stroke="#000000" stroke-linecap="round" stroke-linejoin="round" stroke-width="6.000000"
	d="
M123.500000,293.500000 
	C119.438835,294.512543 117.212578,297.482300 115.500000,301.000000 
"/>
</svg>