<svg version="1.1" id="Layer_1" xmlns="http://www.w3.org/2000/svg" xmlns:xlink="http://www.w3.org/1999/xlink" x="0px" y="0px"
	 width="100%" viewBox="0 0 336 384" enable-background="new 0 0 336 384" xml:space="preserve">
<path fill="none" opacity="1.000000" stroke="#000000" stroke-linecap="round" stroke-linejoin="round" stroke-width="5.000000"
	d="
M180.500000,295.500000 
	C183.259949,287.975098 186.612030,285.585480 193.974930,287.120239 
	C198.404984,288.043640 201.225449,287.352417 203.049759,283.020966 
	C204.289291,280.077911 206.234100,277.429169 207.442490,274.476471 
	C209.061646,270.520081 210.960526,266.956848 209.864517,261.920685 
	C208.932526,257.638214 211.349075,252.690445 211.961090,247.994934 
	C213.146225,238.902283 209.569092,231.211609 204.527725,223.980667 
	C203.340515,222.277863 202.559982,220.297516 201.490051,218.505936 
	C195.510742,208.493591 189.047165,198.736206 183.663300,188.414825 
	C180.222321,181.818176 175.014328,179.955032 168.499115,179.513077 
	C166.259216,179.361115 164.258545,179.493637 162.441864,181.445908 
	C157.785904,186.449341 151.306061,187.505280 144.988693,188.422119 
	C139.932495,189.155930 135.740417,190.632965 132.433609,194.949127 
	C121.538177,209.170197 109.760437,222.761887 101.072151,238.539734 
	C98.292130,243.588242 97.283409,249.357376 95.778900,254.940414 
	C94.261520,260.571259 92.554955,266.328430 89.533089,271.519257 
	C86.682755,276.415436 83.982368,281.364380 80.023636,285.522491 
	C76.241936,289.494659 77.008789,294.365448 79.119888,298.437836 
	C85.259468,310.281342 91.442902,322.172241 103.439644,329.597504 
	C106.346931,331.396973 108.984581,333.193146 112.495064,333.548706 
	C115.979866,333.901672 118.447136,336.662292 121.390381,338.208649 
	C130.296143,342.887543 140.824417,338.628723 144.957367,333.465881 
	C149.642075,327.613739 154.122147,321.585419 158.418091,315.442719 
	C159.558380,313.812256 160.922180,313.050995 162.499634,313.060455 
	C176.837997,313.146423 189.254379,306.755646 201.970474,301.429504 
	C203.520523,300.780243 204.666656,299.166656 206.000000,298.000000 
"/>
<path fill="none" opacity="1.000000" stroke="#000000" stroke-linecap="round" stroke-linejoin="round" stroke-width="5.000000"
	d="
M182.500000,183.000000 
	C186.527832,180.116409 190.524460,177.188797 194.997528,174.994949 
	C200.814346,172.142029 206.255539,172.169098 211.532532,176.459991 
	C215.873077,179.989426 220.456268,183.228439 225.026031,186.463242 
	C226.439178,187.463562 227.809174,188.629608 230.031799,187.566467 
	C235.807861,184.803619 240.899948,186.926865 244.926575,191.071335 
	C249.832870,196.121201 253.782471,201.988525 257.602814,207.933929 
	C258.647888,209.560287 258.475586,210.986847 258.459839,212.499588 
	C258.379517,220.207993 262.021149,226.057693 267.506744,230.992508 
	C276.201752,238.814514 278.670715,242.227097 272.875671,255.947495 
	C268.679230,265.883148 263.895813,275.674713 258.307037,284.882904 
	C254.423706,291.281158 251.258087,298.708954 243.988235,302.477295 
	C239.886856,304.603271 235.788849,306.840576 231.461639,308.393097 
	C227.950714,309.652740 225.513550,306.953461 223.551590,304.459412 
	C222.142319,302.667969 222.206314,300.393463 223.536682,298.526123 
	C225.320557,296.022369 227.338852,293.532837 230.992813,294.526459 
	C233.799576,295.289673 235.296875,297.562439 236.479385,300.009949 
	C237.096298,301.286804 237.500000,302.666656 238.000000,304.000000 
"/>
<path fill="none" opacity="1.000000" stroke="#000000" stroke-linecap="round" stroke-linejoin="round" stroke-width="5.000000"
	d="
M211.000000,266.500000 
	C217.931580,265.431580 219.619202,259.088593 222.972504,254.479996 
	C227.507263,248.247681 231.451660,241.828430 230.555557,233.494034 
	C229.579163,224.412842 223.506866,218.946030 215.999969,221.000031 
	C213.783752,218.882904 213.187988,215.145340 209.500000,214.500000 
"/>
<path fill="none" opacity="1.000000" stroke="#000000" stroke-linecap="round" stroke-linejoin="round" stroke-width="5.000000"
	d="
M264.000000,231.500000 
	C260.652863,235.571960 260.271545,240.814880 258.546539,245.517075 
	C254.932785,255.367798 253.092209,265.794800 248.984756,275.493561 
	C248.277863,277.162720 247.479477,278.819641 246.000000,280.000000 
"/>
<path fill="none" opacity="1.000000" stroke="#000000" stroke-linecap="round" stroke-linejoin="round" stroke-width="5.000000"
	d="
M162.000000,202.500000 
	C161.742203,206.474823 164.074997,209.709015 165.653076,212.924881 
	C169.659271,221.088943 172.672729,229.725281 177.385498,237.568802 
	C178.194870,238.915817 177.779480,241.221451 177.433380,242.986938 
	C176.935364,245.527435 177.019760,247.845520 178.506958,249.995193 
	C180.344193,252.650833 178.018829,254.999466 177.827148,257.486664 
	C177.310455,264.190887 176.891098,271.070374 173.000000,277.000000 
"/>
<path fill="none" opacity="1.000000" stroke="#000000" stroke-linecap="round" stroke-linejoin="round" stroke-width="5.000000"
	d="
M120.500000,223.500000 
	C120.016571,225.745865 122.020584,227.369858 122.016182,229.585464 
	C124.975571,229.001450 126.906967,230.088470 129.143341,232.358810 
	C132.778412,236.049103 137.312561,238.861160 141.505707,241.992355 
	C145.908295,245.279953 147.119141,249.413300 145.000000,254.500000 
"/>
<path fill="none" opacity="1.000000" stroke="#000000" stroke-linecap="round" stroke-linejoin="round" stroke-width="5.000000"
	d="
M229.000000,188.500000 
	C230.347687,190.765823 231.825562,192.771149 233.904663,194.607910 
	C240.168945,200.142090 246.085388,206.082870 251.945007,212.053955 
	C253.581680,213.721786 255.725937,213.891342 257.500000,215.000000 
"/>
<path fill="none" opacity="1.000000" stroke="#000000" stroke-linecap="round" stroke-linejoin="round" stroke-width="7.000000"
	d="
M202.000000,288.000000 
	C202.666672,288.666656 203.632935,289.213867 203.953751,290.018433 
	C207.222183,298.215546 214.367523,300.221832 222.000000,301.500000 
"/>
<path fill="none" opacity="1.000000" stroke="#000000" stroke-linecap="round" stroke-linejoin="round" stroke-width="6.000000"
	d="
M259.500000,222.000000 
	C256.180847,223.766006 252.667877,224.729050 249.016022,223.454117 
	C245.467621,222.215317 242.607834,224.127426 239.500000,225.000000 
"/>
<path fill="none" opacity="1.000000" stroke="#000000" stroke-linecap="round" stroke-linejoin="round" stroke-width="4.000000"
	d="
M227.000000,294.500000 
	C222.712097,286.832550 214.462234,285.915894 209.000000,292.500000 
"/>
<path fill="none" opacity="1.000000" stroke="#000000" stroke-linecap="round" stroke-linejoin="round" stroke-width="3.000000"
	d="
M130.500000,318.500000 
	C131.199631,324.323639 125.822479,327.521393 124.416100,332.476196 
	C123.947525,334.127014 122.500000,335.500000 121.500000,337.000000 
"/>
<path fill="none" opacity="1.000000" stroke="#000000" stroke-linecap="round" stroke-linejoin="round" stroke-width="11.000000"
	d="
M103.500000,293.500000 
	C108.026787,294.441132 112.387489,295.138275 116.655289,297.745819 
	C121.342598,300.609680 127.213440,301.900238 132.989029,299.967255 
	C134.726639,299.385651 136.272842,299.566559 138.023407,299.860626 
	C139.022202,300.028381 139.649628,301.145050 141.026230,300.561920 
	C147.631653,297.764008 151.433640,301.942657 154.997162,306.502228 
	C156.680374,308.655945 158.333344,310.833344 160.000000,313.000000 
"/>
<path fill="none" opacity="1.000000" stroke="#000000" stroke-linecap="round" stroke-linejoin="round" stroke-width="6.000000"
	d="
M176.500000,246.500000 
	C170.833328,247.500000 165.166672,248.500000 159.500000,249.500000 
"/>
<path fill="none" opacity="1.000000" stroke="#000000" stroke-linecap="round" stroke-linejoin="round" stroke-width="8.000000"
	d="
M129.000000,301.500000 
	C128.946823,305.424896 127.559746,308.925049 126.444023,312.633575 
	C124.002296,320.749603 117.547127,326.069458 114.500000,333.500000 
"/>
<path fill="none" opacity="1.000000" stroke="#000000" stroke-linecap="round" stroke-linejoin="round" stroke-width="7.000000"
	d="
M140.500000,301.500000 
	C140.542343,307.605347 135.379898,310.619965 132.547623,315.030579 
	C130.809525,317.737274 128.695663,319.058014 125.500000,318.500000 
"/>
<path fill="none" opacity="1.000000" stroke="#000000" stroke-linecap="round" stroke-linejoin="round" stroke-width="5.000000"
	d="
M197.000000,288.500000 
	C193.835785,296.733490 190.941040,299.495056 185.540222,297.866577 
	C179.697189,296.104767 173.380081,294.387817 171.000000,287.500000 
"/>
<path fill="none" opacity="1.000000" stroke="#000000" stroke-linecap="round" stroke-linejoin="round" stroke-width="3.000000"
	d="
M144.000000,254.500000 
	C140.500000,253.182632 137.047409,252.593567 133.460403,254.422333 
	C132.734161,254.792618 131.500000,254.166672 130.500000,254.000000 
"/>
<path fill="none" opacity="1.000000" stroke="#000000" stroke-linecap="round" stroke-linejoin="round" stroke-width="5.000000"
	d="
M102.500000,283.500000 
	C105.876900,286.559967 110.167847,288.880005 111.000000,294.000000 
"/>
<path fill="none" opacity="1.000000" stroke="#000000" stroke-linecap="round" stroke-linejoin="round" stroke-width="5.000000"
	d="
M245.000000,281.000000 
	C241.000000,285.166656 237.000000,289.333344 233.000000,293.500000 
"/>
<path fill="none" opacity="1.000000" stroke="#000000" stroke-linecap="round" stroke-linejoin="round" stroke-width="3.000000"
	d="
M189.500000,244.500000 
	C193.506607,245.127045 197.200958,247.627609 201.500000,246.500000 
"/>
<path fill="none" opacity="1.000000" stroke="#000000" stroke-linecap="round" stroke-linejoin="round" stroke-width="5.000000"
	d="
M232.500000,276.000000 
	C236.338943,277.186249 239.864166,278.971436 243.000000,281.500000 
"/>
</svg>