<svg version="1.1" id="Layer_1" xmlns="http://www.w3.org/2000/svg" xmlns:xlink="http://www.w3.org/1999/xlink" x="0px" y="0px"
	 width="100%" viewBox="0 0 370 384" enable-background="new 0 0 370 384" xml:space="preserve">
<path fill="none" opacity="1.000000" stroke="#000000" stroke-linecap="round" stroke-linejoin="round" stroke-width="6.000000"
	d="
M303.000000,192.000000 
	C311.327545,188.163116 313.491486,180.142166 314.778046,172.462814 
	C316.371613,162.951447 316.523468,153.174820 316.938171,143.497345 
	C317.254608,136.113510 315.082611,133.058807 307.980743,131.593262 
	C298.645050,129.666763 290.139709,125.687950 281.511871,121.972397 
	C273.605988,118.567719 265.676300,115.502678 257.013580,114.393913 
	C251.671036,113.710098 246.760239,116.616966 241.500000,115.500000 
"/>
<path fill="none" opacity="1.000000" stroke="#000000" stroke-linecap="round" stroke-linejoin="round" stroke-width="4.000000"
	d="
M180.500000,132.500000 
	C176.278564,132.718597 173.820129,136.323227 170.674545,138.280518 
	C163.700104,142.620285 155.819244,144.939560 148.938522,149.405289 
	C140.867859,154.643311 131.417480,158.113586 124.279503,164.321381 
	C118.179390,169.626541 110.871178,173.304092 105.389900,179.401016 
	C102.490082,182.626556 101.044029,185.938812 101.545715,189.994339 
	C102.930527,201.188751 101.773613,212.073120 99.139381,223.033493 
	C96.959518,232.103348 93.728882,241.012436 93.500000,250.500000 
"/>
<path fill="none" opacity="1.000000" stroke="#000000" stroke-linecap="round" stroke-linejoin="round" stroke-width="5.000000"
	d="
M160.000000,232.000000 
	C162.460373,234.583099 161.661667,237.868958 160.866241,240.458923 
	C157.865967,250.227875 155.066040,260.171570 150.802124,269.408661 
	C146.169403,279.444672 145.661041,290.061493 144.767441,300.522858 
	C144.044342,308.988037 147.010483,317.029877 154.487595,322.516907 
	C158.074585,325.149200 167.397064,326.072296 170.946640,323.428375 
	C175.498138,320.038055 176.716156,314.681000 176.283478,309.518158 
	C175.999512,306.129852 171.584839,305.716339 168.986755,304.020294 
	C168.753036,303.867706 168.311035,304.077423 168.003220,303.988800 
	C157.876022,301.072266 157.016235,301.537842 153.476883,311.491791 
	C152.804626,313.382416 151.833328,315.166656 151.000000,317.000000 
"/>
<path fill="none" opacity="1.000000" stroke="#000000" stroke-linecap="round" stroke-linejoin="round" stroke-width="5.000000"
	d="
M97.500000,259.500000 
	C91.167915,260.747284 90.687584,266.475922 89.080116,271.028290 
	C85.141541,282.182281 84.854790,294.161407 81.750771,305.568237 
	C80.715233,309.373657 80.509743,313.804504 80.489174,317.999939 
	C80.467995,322.319519 80.030396,326.535553 78.053459,330.526489 
	C77.074905,332.501923 75.865089,335.166199 77.607460,336.891479 
	C79.894775,339.156281 82.804031,340.411407 86.519547,339.588226 
	C94.230148,337.879791 98.233902,332.319397 101.450500,325.974915 
	C104.716621,319.532745 107.407013,312.776245 107.816093,305.489685 
	C107.896492,304.057648 108.181824,302.480286 108.637848,301.568970 
	C113.135513,292.581146 115.635735,282.884247 119.052216,273.422272 
	C120.563583,272.444122 121.745819,273.869965 122.426735,274.571136 
	C126.991570,279.271942 132.516296,278.302673 137.994446,277.463715 
	C141.025452,276.999512 144.000000,276.166656 147.000000,275.500000 
"/>
<path fill="none" opacity="1.000000" stroke="#000000" stroke-linecap="round" stroke-linejoin="round" stroke-width="6.000000"
	d="
M257.500000,185.500000 
	C249.622772,186.361404 245.891144,191.728653 244.395615,197.975006 
	C241.870544,208.521469 238.168793,218.732559 229.448303,225.937424 
	C223.512268,230.841766 219.057724,237.316223 211.624222,240.767532 
	C207.576218,242.646988 205.786224,248.030273 202.597809,251.587662 
	C195.641739,259.348694 190.327118,268.583221 186.947983,278.158112 
	C184.619888,284.754822 182.144867,291.597870 180.683167,298.538574 
	C179.967377,301.937439 177.549759,304.033203 176.500000,307.000000 
"/>
<path fill="none" opacity="1.000000" stroke="#000000" stroke-linecap="round" stroke-linejoin="round" stroke-width="8.000000"
	d="
M289.000000,207.000000 
	C295.063477,206.345230 299.515778,203.140518 302.434814,197.963257 
	C303.727478,195.670624 304.042419,193.051315 301.505432,190.993301 
	C291.564880,182.929459 281.042725,175.893631 268.493744,172.523346 
	C264.434875,171.433258 259.588074,172.729553 258.449646,178.490051 
	C257.446350,183.566635 258.240051,187.518600 262.959137,190.563354 
	C269.952087,195.075195 275.952637,201.167145 284.009460,203.972855 
	C290.038055,206.072266 289.795868,211.102066 290.000000,216.000000 
"/>
<path fill="none" opacity="1.000000" stroke="#000000" stroke-linecap="round" stroke-linejoin="round" stroke-width="6.000000"
	d="
M128.000000,229.500000 
	C131.516220,234.898499 130.337143,240.406952 128.520828,246.006760 
	C125.609779,254.981552 122.833321,264.000000 119.999985,273.000000 
"/>
<path fill="none" opacity="1.000000" stroke="#000000" stroke-linecap="round" stroke-linejoin="round" stroke-width="5.000000"
	d="
M138.000000,208.500000 
	C137.598419,216.393753 142.533356,220.910965 148.555023,224.405182 
	C151.144623,225.907837 152.528793,227.728409 153.000000,230.500000 
"/>
<path fill="none" opacity="1.000000" stroke="#000000" stroke-linecap="round" stroke-linejoin="round" stroke-width="4.000000"
	d="
M151.000000,232.500000 
	C149.376968,239.607697 149.478210,247.212769 144.977448,253.483810 
	C144.649551,253.940674 144.000000,254.166672 143.500000,254.500000 
"/>
<path fill="none" opacity="1.000000" stroke="#000000" stroke-linecap="round" stroke-linejoin="round" stroke-width="6.000000"
	d="
M162.000000,214.500000 
	C165.376419,219.747314 164.748199,224.541977 161.163086,229.615250 
	C159.966980,231.307831 159.007126,231.626068 157.503052,231.470490 
	C151.659698,230.866119 146.650085,233.241547 141.454071,235.388855 
	C138.371658,236.662689 134.833328,236.833328 131.500000,237.500000 
"/>
<path fill="none" opacity="1.000000" stroke="#000000" stroke-linecap="round" stroke-linejoin="round" stroke-width="3.000000"
	d="
M273.500000,184.000000 
	C268.960724,181.578659 264.333344,179.583237 259.000000,181.000000 
"/>
<path fill="none" opacity="1.000000" stroke="#000000" stroke-linecap="round" stroke-linejoin="round" stroke-width="3.000000"
	d="
M245.500000,163.500000 
	C243.911346,168.654892 240.047440,172.590881 238.000000,177.500000 
"/>
<path fill="none" opacity="1.000000" stroke="#000000" stroke-linecap="round" stroke-linejoin="round" stroke-width="7.000000"
	d="
M165.500000,279.000000 
	C172.166672,275.382660 178.833328,277.830292 185.500000,279.000000 
"/>
<path fill="none" opacity="1.000000" stroke="#000000" stroke-linecap="round" stroke-linejoin="round" stroke-width="2.000000"
	d="
M282.000000,191.000000 
	C285.983673,194.536606 285.380280,198.990616 284.500000,203.500000 
"/>
<path fill="none" opacity="1.000000" stroke="#000000" stroke-linecap="round" stroke-linejoin="round" stroke-width="4.000000"
	d="
M200.500000,233.500000 
	C203.833328,235.666672 207.166672,237.833328 210.500000,240.000000 
"/>
<path fill="none" opacity="1.000000" stroke="#000000" stroke-linecap="round" stroke-linejoin="round" stroke-width="2.000000"
	d="
M91.500000,252.500000 
	C91.548630,255.412994 90.799416,258.466766 93.000000,261.000000 
"/>
</svg>