<svg version="1.1" id="Layer_1" xmlns="http://www.w3.org/2000/svg" xmlns:xlink="http://www.w3.org/1999/xlink" x="0px" y="0px"
	 width="100%" viewBox="0 0 370 384" enable-background="new 0 0 370 384" xml:space="preserve">
<path fill="none" opacity="1.000000" stroke="#000000" stroke-linecap="round" stroke-linejoin="round" stroke-width="6.000000"
	d="
M133.000000,195.500000 
	C127.356720,199.880798 128.321609,206.696594 127.138206,212.528046 
	C124.421852,225.913391 123.101768,239.417786 126.454750,253.011169 
	C129.291168,264.510345 131.236420,276.233673 135.016571,287.494446 
	C137.825607,295.862274 144.015808,301.947418 149.491196,308.507355 
	C151.041565,310.364838 152.894836,308.635712 154.488342,309.045380 
	C161.889618,310.948212 168.447678,308.032990 174.967789,305.419647 
	C178.683731,303.930206 182.844223,302.916321 185.469025,299.476379 
	C186.494888,298.131958 187.822342,298.351166 188.992691,298.544250 
	C198.812897,300.164764 208.658508,299.272675 218.500641,299.025726 
	C219.495834,299.000763 220.500000,299.333344 221.500000,299.500000 
"/>
<path fill="none" opacity="1.000000" stroke="#000000" stroke-linecap="round" stroke-linejoin="round" stroke-width="5.000000"
	d="
M247.000000,164.500000 
	C249.162628,159.122757 245.927444,154.394226 244.838409,149.536224 
	C242.522522,139.205200 238.080200,129.487961 235.747574,119.056450 
	C234.263885,112.421318 231.080261,105.838943 227.302139,100.130959 
	C223.026077,93.670662 220.475647,86.037720 221.595367,79.603607 
	C222.978180,71.657555 221.659119,64.161125 221.866135,56.496384 
	C221.969101,52.683834 221.022141,48.727482 219.919312,45.024029 
	C218.123215,38.992416 211.647369,36.610954 207.000504,37.005939 
	C200.794922,37.533413 196.557465,41.415855 195.504913,47.500851 
	C195.304123,48.661613 195.142654,49.830490 195.004059,51.000481 
	C194.295456,56.982075 194.245407,57.159096 200.015656,58.949558 
	C205.602188,60.683018 208.496689,65.116096 211.481308,69.512695 
	C213.973907,73.184509 216.310425,76.960297 220.500000,79.000000 
"/>
<path fill="none" opacity="1.000000" stroke="#000000" stroke-linecap="round" stroke-linejoin="round" stroke-width="8.000000"
	d="
M211.000000,174.500000 
	C217.666656,182.666672 224.412247,190.771301 230.927231,199.057220 
	C232.099686,200.548370 232.990311,202.374481 234.529053,203.458771 
	C241.224411,208.176666 241.295395,215.190094 240.354797,221.979889 
	C239.199936,230.316452 238.564499,238.453979 241.521622,246.492050 
	C242.710648,249.724106 240.882584,252.522476 240.430878,255.489471 
	C238.041016,271.186737 230.828461,284.980530 222.991119,298.494843 
	C221.356567,301.313385 222.435669,303.848694 223.480225,306.507751 
	C231.023834,325.711090 220.027863,348.151459 198.036667,350.364441 
	C189.870438,351.186218 181.992386,350.813782 174.003983,350.419342 
	C167.786621,350.112366 162.004868,347.478271 155.994003,346.024811 
	C152.262909,345.122620 152.661880,341.657166 152.680527,339.501556 
	C152.748123,331.683228 150.053543,324.273499 149.838333,316.504486 
	C149.771408,314.087677 149.729446,312.022491 151.000000,310.000000 
"/>
<path fill="none" opacity="1.000000" stroke="#000000" stroke-linecap="round" stroke-linejoin="round" stroke-width="6.000000"
	d="
M198.500000,186.500000 
	C203.073318,183.014114 205.888397,177.932678 209.860931,173.864212 
	C212.451675,171.210922 214.632004,167.902115 216.782089,164.846664 
	C220.259995,159.904358 224.583740,160.710663 228.988464,161.331757 
	C234.204193,162.067200 239.291779,163.858459 244.514145,164.349609 
	C248.190125,164.695328 249.164200,167.185669 250.447418,169.528793 
	C252.473129,173.227646 253.674637,177.182556 254.142883,181.484451 
	C254.439697,184.211258 253.498474,187.742538 256.963776,189.568771 
	C257.238739,189.713654 256.996185,190.833359 257.000549,191.500000 
	C257.078827,203.416061 255.131149,215.043518 251.996063,226.498917 
	C250.853882,230.672302 249.443420,234.786957 248.565567,239.013611 
	C247.759155,242.896255 245.408615,245.456390 242.500000,247.750000 
"/>
<path fill="none" opacity="1.000000" stroke="#000000" stroke-linecap="round" stroke-linejoin="round" stroke-width="4.000000"
	d="
M195.500000,300.000000 
	C191.742203,316.630768 193.044449,333.312103 195.000000,350.000000 
"/>
<path fill="none" opacity="1.000000" stroke="#000000" stroke-linecap="round" stroke-linejoin="round" stroke-width="3.000000"
	d="
M194.000000,58.500000 
	C190.122742,61.891891 186.000320,65.522873 186.198730,70.992790 
	C186.339127,74.863358 188.039383,78.787956 189.560791,82.474915 
	C192.790955,90.302879 194.959412,98.469696 197.338104,106.547676 
	C198.182877,109.416504 197.166672,112.833336 197.000000,116.000000 
"/>
<path fill="none" opacity="1.000000" stroke="#000000" stroke-linecap="round" stroke-linejoin="round" stroke-width="3.000000"
	d="
M187.000000,302.500000 
	C189.183029,318.618744 189.360168,334.653900 185.000000,350.500000 
"/>
<path fill="none" opacity="1.000000" stroke="#000000" stroke-linecap="round" stroke-linejoin="round" stroke-width="4.000000"
	d="
M179.500000,150.500000 
	C181.978012,143.067017 178.970657,138.045853 171.497375,137.538574 
	C165.619873,137.139618 160.159286,138.007660 155.951385,142.958679 
	C152.215729,147.354050 151.633652,149.592087 154.000015,154.999985 
	C156.551392,160.830658 153.925156,164.935776 148.052765,166.677887 
	C142.888931,168.209793 137.428207,170.038925 134.404175,175.446411 
	C133.822647,176.486282 134.693939,176.833328 134.500000,177.500000 
"/>
<path fill="none" opacity="1.000000" stroke="#000000" stroke-linecap="round" stroke-linejoin="round" stroke-width="4.000000"
	d="
M181.000000,304.000000 
	C183.795319,311.333344 180.665131,318.682953 181.077698,325.995605 
	C181.529099,333.996582 178.666489,342.208344 182.500000,350.000000 
"/>
<path fill="none" opacity="1.000000" stroke="#000000" stroke-linecap="round" stroke-linejoin="round" stroke-width="5.000000"
	d="
M171.000000,242.000000 
	C173.165894,245.616043 172.596649,249.634689 172.438965,253.497513 
	C172.185028,259.717468 172.371460,265.801544 173.007233,272.050140 
	C173.522049,277.110046 175.282486,281.646698 176.000000,286.500000 
"/>
<path fill="none" opacity="1.000000" stroke="#000000" stroke-linecap="round" stroke-linejoin="round" stroke-width="6.000000"
	d="
M136.000000,194.500000 
	C140.079468,198.735291 143.289597,203.432663 145.622818,208.948044 
	C148.256439,215.173538 151.677673,221.090149 155.075317,226.956375 
	C156.467072,229.359314 160.207413,230.507614 161.935669,230.170349 
	C165.820633,229.412201 168.593430,231.988297 172.000000,232.000000 
"/>
<path fill="none" opacity="1.000000" stroke="#000000" stroke-linecap="round" stroke-linejoin="round" stroke-width="4.000000"
	d="
M195.000000,118.500000 
	C192.755356,120.329292 192.650558,123.424721 192.722778,125.492218 
	C193.026810,134.196472 189.792999,142.776703 191.964432,151.508850 
	C192.385162,153.200745 190.575943,154.121307 190.000000,155.500000 
"/>
<path fill="none" opacity="1.000000" stroke="#000000" stroke-linecap="round" stroke-linejoin="round" stroke-width="8.000000"
	d="
M182.000000,154.500000 
	C179.345901,158.342087 176.964615,162.348465 174.102524,166.078659 
	C171.379852,169.627151 168.265182,170.198288 164.514481,168.956253 
	C161.112671,167.829742 157.833328,166.333344 154.500000,165.000000 
"/>
<path fill="none" opacity="1.000000" stroke="#000000" stroke-linecap="round" stroke-linejoin="round" stroke-width="5.000000"
	d="
M236.500000,127.500000 
	C232.363602,128.423325 228.357605,128.860703 223.961517,128.303619 
	C220.826385,127.906334 217.324722,130.309509 214.003586,131.509933 
	C212.316391,132.119781 210.666672,132.833344 209.000000,133.500000 
"/>
<path fill="none" opacity="1.000000" stroke="#000000" stroke-linecap="round" stroke-linejoin="round" stroke-width="6.000000"
	d="
M152.000000,167.000000 
	C153.622955,175.306915 159.774536,180.696106 165.135391,186.372131 
	C168.406342,189.835403 171.898285,193.601822 177.484818,194.153717 
	C180.083847,194.410477 182.067429,196.765915 183.000000,199.500000 
"/>
<path fill="none" opacity="1.000000" stroke="#000000" stroke-linecap="round" stroke-linejoin="round" stroke-width="3.000000"
	d="
M253.500000,185.500000 
	C244.677505,186.401489 236.180771,188.580963 228.000000,192.000000 
"/>
<path fill="none" opacity="1.000000" stroke="#000000" stroke-linecap="round" stroke-linejoin="round" stroke-width="7.000000"
	d="
M210.000000,170.500000 
	C207.965637,168.324615 205.436523,166.601547 204.451263,163.515564 
	C203.812637,161.515289 202.210388,160.949570 200.001816,160.906738 
	C196.442245,160.837723 192.797989,159.934235 190.623703,156.911026 
	C189.612793,155.505417 188.657852,155.778259 187.512650,155.455185 
	C185.119278,154.779968 182.930542,154.216476 180.865692,152.133118 
	C175.019791,146.234833 166.618896,146.690369 160.494019,152.493698 
	C158.866882,154.035416 157.166672,155.500000 155.500000,157.000000 
"/>
<path fill="none" opacity="1.000000" stroke="#000000" stroke-linecap="round" stroke-linejoin="round" stroke-width="11.000000"
	d="
M184.500000,199.500000 
	C176.372681,202.975815 173.422775,210.549789 176.979263,218.509262 
	C178.713348,222.390152 176.635193,225.726715 174.946762,228.972305 
	C174.084137,230.630463 172.450073,231.703827 172.411377,233.998505 
	C172.349014,237.695419 171.575668,240.899597 168.142075,243.675735 
	C164.099792,246.944031 164.668350,252.142166 165.424011,257.011780 
	C165.702225,258.804718 167.442963,260.520325 166.000000,262.500000 
"/>
<path fill="none" opacity="1.000000" stroke="#000000" stroke-linecap="round" stroke-linejoin="round" stroke-width="4.000000"
	d="
M174.000000,214.500000 
	C173.833328,214.500000 173.660553,214.470749 173.500870,214.504150 
	C162.840424,216.733719 162.532761,217.246613 165.477066,227.506577 
	C165.653824,228.122528 165.500000,228.833328 165.500000,229.500000 
"/>
<path fill="none" opacity="1.000000" stroke="#000000" stroke-linecap="round" stroke-linejoin="round" stroke-width="5.000000"
	d="
M199.500000,118.000000 
	C204.097504,125.433624 208.879059,132.519394 209.327271,141.984497 
	C209.557190,146.839661 209.233643,151.670105 209.500000,156.500000 
"/>
<path fill="none" opacity="1.000000" stroke="#000000" stroke-linecap="round" stroke-linejoin="round" stroke-width="6.000000"
	d="
M255.500000,196.000000 
	C249.894073,196.800430 246.946014,202.080246 242.005371,204.013718 
	C240.968475,204.419479 240.000000,205.000015 239.000000,205.500015 
"/>
<path fill="none" opacity="1.000000" stroke="#000000" stroke-linecap="round" stroke-linejoin="round" stroke-width="3.000000"
	d="
M209.000000,153.000000 
	C203.584030,150.060150 198.056519,150.801682 192.500000,152.500000 
"/>
<path fill="none" opacity="1.000000" stroke="#000000" stroke-linecap="round" stroke-linejoin="round" stroke-width="5.000000"
	d="
M192.500000,210.000000 
	C195.226746,216.126617 198.405838,221.951660 203.500000,226.500000 
"/>
<path fill="none" opacity="1.000000" stroke="#000000" stroke-linecap="round" stroke-linejoin="round" stroke-width="5.000000"
	d="
M171.000000,193.000000 
	C169.449463,198.452759 169.385849,203.713654 173.000000,208.500000 
"/>
<path fill="none" opacity="1.000000" stroke="#000000" stroke-linecap="round" stroke-linejoin="round" stroke-width="3.000000"
	d="
M155.000000,228.500000 
	C151.833328,232.833328 148.666672,237.166672 145.500000,241.500000 
"/>
<path fill="none" opacity="1.000000" stroke="#000000" stroke-linecap="round" stroke-linejoin="round" stroke-width="3.000000"
	d="
M212.500000,102.500000 
	C208.876236,101.087791 206.913559,105.304886 203.493362,105.128975 
	C201.865295,105.045242 200.166672,106.333336 198.500000,107.000000 
"/>
<path fill="none" opacity="1.000000" stroke="#000000" stroke-linecap="round" stroke-linejoin="round" stroke-width="3.000000"
	d="
M178.000000,287.500000 
	C177.850555,290.488525 180.235168,291.836182 182.032776,293.463806 
	C183.663162,294.940002 185.093124,296.492157 186.000000,298.500000 
"/>
<path fill="none" opacity="1.000000" stroke="#000000" stroke-linecap="round" stroke-linejoin="round" stroke-width="5.000000"
	d="
M189.500000,211.000000 
	C185.755890,214.274689 183.860992,219.787872 178.000000,220.500000 
"/>
<path fill="none" opacity="1.000000" stroke="#000000" stroke-linecap="round" stroke-linejoin="round" stroke-width="5.000000"
	d="
M137.500000,182.500000 
	C138.582092,189.071106 137.223175,192.770401 133.000000,194.750000 
"/>
<path fill="none" opacity="1.000000" stroke="#000000" stroke-linecap="round" stroke-linejoin="round" stroke-width="6.000000"
	d="
M203.500000,161.500000 
	C203.776001,160.136673 205.349777,160.408463 206.004196,159.503036 
	C208.955460,155.419785 212.151993,156.442551 215.519699,158.973801 
	C216.662109,159.832458 218.237274,160.101135 219.000000,161.500000 
"/>
<path fill="none" opacity="1.000000" stroke="#000000" stroke-linecap="round" stroke-linejoin="round" stroke-width="2.000000"
	d="
M217.000000,310.500000 
	C214.511108,313.168518 215.613098,316.435516 215.500000,319.500000 
"/>
<path fill="none" opacity="1.000000" stroke="#000000" stroke-linecap="round" stroke-linejoin="round" stroke-width="2.000000"
	d="
M224.500000,98.000000 
	C222.116348,100.009377 219.250854,99.449020 216.500000,99.500000 
"/>
</svg>