<svg version="1.1" id="Layer_1" xmlns="http://www.w3.org/2000/svg" xmlns:xlink="http://www.w3.org/1999/xlink" x="0px" y="0px"
	 width="100%" viewBox="0 0 370 384" enable-background="new 0 0 370 384" xml:space="preserve">
<path fill="none" opacity="1.000000" stroke="#000000" stroke-linecap="round" stroke-linejoin="round" stroke-width="6.000000"
	d="
M251.500000,164.000000 
	C249.904633,168.106644 252.272659,171.753937 253.126450,175.470963 
	C254.681259,182.239883 256.906433,188.863770 259.059387,195.480682 
	C259.672302,197.364441 260.095001,199.620331 259.370667,200.928375 
	C253.974716,210.672516 251.953568,221.751724 246.664673,231.588531 
	C242.288925,239.727020 239.401886,248.618546 233.552078,256.041046 
	C227.843735,263.284027 221.447968,269.558105 213.000000,273.500000 
"/>
<path fill="none" opacity="1.000000" stroke="#000000" stroke-linecap="round" stroke-linejoin="round" stroke-width="5.000000"
	d="
M196.499985,197.500000 
	C195.833328,199.166656 195.415070,200.997055 194.447327,202.465286 
	C192.540619,205.358047 189.950089,209.088165 186.579681,208.198227 
	C182.747879,207.186478 178.823944,204.742355 177.449432,200.014694 
	C176.147156,195.535522 175.795166,191.293945 176.270996,186.477371 
	C177.873932,170.252075 171.461105,156.437088 161.535294,143.971893 
	C159.173508,141.005875 156.007919,142.383514 154.077011,143.185425 
	C142.664459,147.924942 134.833374,156.494400 130.617920,168.043045 
	C129.256760,171.772095 125.426758,173.974319 125.287468,178.493454 
	C125.229774,180.365341 124.440575,182.456161 124.518089,184.499313 
	C124.873756,193.873184 125.920174,203.186249 126.776672,212.520493 
	C128.158035,227.574799 133.119278,241.489059 138.052063,255.481644 
	C140.483109,262.377686 146.861267,266.610229 150.607880,272.683441 
	C150.966705,273.265167 152.839172,273.036804 153.999054,272.980469 
	C161.331467,272.624176 168.739105,273.940308 176.000397,272.001465 
	C178.634979,271.298035 180.920471,273.263184 183.500000,273.000000 
"/>
<path fill="none" opacity="1.000000" stroke="#000000" stroke-linecap="round" stroke-linejoin="round" stroke-width="7.000000"
	d="
M151.000000,273.000000 
	C146.274277,281.561798 145.640488,291.130676 144.631042,300.514099 
	C144.128815,305.182526 146.641968,307.165466 151.495987,308.022736 
	C157.975845,309.167236 164.376724,310.730621 170.998001,311.042328 
	C174.387039,311.201904 175.725266,309.914978 176.075180,306.507721 
	C176.830872,299.149292 178.039047,291.838226 178.958694,284.494812 
	C179.099670,283.369110 179.212814,282.325043 180.007050,281.506836 
	C182.286880,279.158234 181.876404,276.330994 181.500000,273.500000 
"/>
<path fill="none" opacity="1.000000" stroke="#000000" stroke-linecap="round" stroke-linejoin="round" stroke-width="6.000000"
	d="
M192.500000,286.500000 
	C190.786911,279.840454 192.871597,274.157471 197.207565,269.033203 
	C201.109695,270.118195 205.535355,269.657684 209.499863,271.500305 
	C211.837921,272.586975 213.532913,273.862671 213.057404,277.008667 
	C211.988617,284.079987 215.153503,290.880798 214.603058,298.007965 
	C214.322098,301.645752 213.357574,304.185089 210.035995,306.063660 
	C204.486237,309.202423 199.257675,313.142914 192.501328,312.952698 
	C186.763138,312.791138 180.490341,315.932343 175.500000,310.500000 
"/>
<path fill="none" opacity="1.000000" stroke="#000000" stroke-linecap="round" stroke-linejoin="round" stroke-width="5.000000"
	d="
M245.500000,196.000000 
	C238.888107,189.547211 232.115067,183.281631 224.496338,178.005295 
	C223.585754,177.374664 223.579254,176.500305 223.462219,175.504440 
	C222.733368,169.302734 220.267349,163.052399 224.033676,157.021027 
	C224.572037,156.158859 224.891068,155.451096 224.501648,154.499329 
	C221.814026,147.930923 221.192795,140.953873 220.518478,133.998215 
	C220.163986,130.341660 220.141708,126.649445 219.699081,123.006187 
	C219.414612,120.664734 219.736816,118.370857 218.618393,115.945404 
	C214.799927,107.664421 207.867615,108.105888 201.032440,109.644173 
	C194.936127,111.016182 189.979797,114.012497 188.730438,121.454750 
	C188.212784,124.538498 188.407333,126.818031 189.461792,129.514938 
	C194.259293,141.785156 198.253937,154.315857 199.391327,167.509369 
	C199.735901,171.506424 198.245270,175.604156 200.436630,179.535324 
	C201.214218,180.930252 201.744995,182.430206 203.000000,183.500000 
"/>
<path fill="none" opacity="1.000000" stroke="#000000" stroke-linecap="round" stroke-linejoin="round" stroke-width="5.000000"
	d="
M242.000000,119.500000 
	C247.333328,119.333336 252.667297,119.184052 257.999695,118.991150 
	C260.035736,118.917496 261.143585,120.018295 262.587708,121.408920 
	C269.202728,127.778938 269.226135,137.365677 263.699280,147.112991 
	C262.270569,149.632690 260.093658,152.116882 259.924255,155.496201 
	C259.713654,159.698532 256.313751,161.377838 253.025009,163.049210 
	C252.191406,163.472885 251.803391,163.347336 250.976974,163.068192 
	C246.803696,161.658630 240.397324,158.093475 236.701187,154.727905 
	C238.879272,150.057083 237.443359,144.995499 237.671463,140.007843 
	C237.939774,134.141052 239.217728,128.265411 240.599213,122.523872 
	C241.519913,118.697395 240.323364,114.768745 242.720444,110.829865 
	C244.545471,107.830963 239.894073,103.758194 235.501678,104.027458 
	C230.499695,104.334099 226.826050,106.825348 223.911179,110.937035 
	C222.563477,112.838089 222.094894,115.562492 219.500000,116.500000 
"/>
<path fill="none" opacity="1.000000" stroke="#000000" stroke-linecap="round" stroke-linejoin="round" stroke-width="5.000000"
	d="
M183.000000,279.500000 
	C184.998535,281.000732 185.824478,283.389404 185.888107,285.503357 
	C186.153778,294.328705 186.000000,303.166656 186.000000,312.000000 
"/>
<path fill="none" opacity="1.000000" stroke="#000000" stroke-linecap="round" stroke-linejoin="round" stroke-width="4.000000"
	d="
M187.000000,126.000000 
	C180.831985,127.265579 175.338516,130.399124 169.584930,132.711319 
	C165.404770,134.391205 162.553757,138.464157 161.000000,143.000000 
"/>
<path fill="none" opacity="1.000000" stroke="#000000" stroke-linecap="round" stroke-linejoin="round" stroke-width="6.000000"
	d="
M186.500000,209.000000 
	C183.226364,217.210815 183.323853,225.907608 183.093582,234.502502 
	C182.986816,238.487823 181.675049,242.500000 183.000000,246.500000 
"/>
<path fill="none" opacity="1.000000" stroke="#000000" stroke-linecap="round" stroke-linejoin="round" stroke-width="5.000000"
	d="
M150.000000,185.500000 
	C147.024536,187.210968 143.641403,186.590256 140.488419,186.869019 
	C135.545303,187.306091 130.774384,188.324799 126.000000,189.500000 
"/>
<path fill="none" opacity="1.000000" stroke="#000000" stroke-linecap="round" stroke-linejoin="round" stroke-width="7.000000"
	d="
M262.000000,146.000000 
	C259.092224,144.303833 258.268433,140.519836 254.533722,139.388641 
	C248.567307,137.581512 246.694168,137.835785 243.560272,143.036316 
	C242.927811,144.085831 242.406631,145.159973 241.500000,146.000000 
"/>
<path fill="none" opacity="1.000000" stroke="#000000" stroke-linecap="round" stroke-linejoin="round" stroke-width="5.000000"
	d="
M141.000000,163.500000 
	C141.808136,168.976746 143.479996,173.949921 146.865738,178.597809 
	C150.306854,183.321732 152.760422,188.784546 155.479340,194.010757 
	C160.271439,203.221954 167.602646,206.102692 177.500000,202.500000 
"/>
<path fill="none" opacity="1.000000" stroke="#000000" stroke-linecap="round" stroke-linejoin="round" stroke-width="6.000000"
	d="
M259.500000,118.500000 
	C259.574829,112.818924 257.184631,110.708344 249.998779,110.558487 
	C247.839996,110.513474 245.666672,111.166672 243.500000,111.500008 
"/>
<path fill="none" opacity="1.000000" stroke="#000000" stroke-linecap="round" stroke-linejoin="round" stroke-width="9.000000"
	d="
M210.500000,182.000000 
	C206.882065,184.775223 204.097687,188.023453 202.375931,192.451752 
	C200.705399,196.748230 197.476440,197.555695 194.000000,195.500000 
	C188.399673,192.188339 185.084503,193.121445 181.487747,198.992493 
	C181.248306,199.383362 180.833344,199.666672 180.500015,200.000015 
"/>
<path fill="none" opacity="1.000000" stroke="#000000" stroke-linecap="round" stroke-linejoin="round" stroke-width="5.000000"
	d="
M241.500000,148.000000 
	C246.289886,153.630356 253.282715,152.651855 259.500000,154.000000 
"/>
<path fill="none" opacity="1.000000" stroke="#000000" stroke-linecap="round" stroke-linejoin="round" stroke-width="3.000000"
	d="
M182.500000,220.500000 
	C176.398254,223.699127 174.609299,229.054657 175.000000,235.500000 
"/>
<path fill="none" opacity="1.000000" stroke="#000000" stroke-linecap="round" stroke-linejoin="round" stroke-width="5.000000"
	d="
M175.000000,177.000000 
	C169.946472,178.667725 164.944290,180.562775 159.500000,180.500000 
"/>
<path fill="none" opacity="1.000000" stroke="#000000" stroke-linecap="round" stroke-linejoin="round" stroke-width="7.000000"
	d="
M174.500000,192.000000 
	C167.379883,192.000000 165.998901,193.534424 165.500000,202.000000 
"/>
<path fill="none" opacity="1.000000" stroke="#000000" stroke-linecap="round" stroke-linejoin="round" stroke-width="3.000000"
	d="
M206.000000,289.500000 
	C204.911102,294.166656 203.006332,298.833344 206.000000,303.500000 
"/>
<path fill="none" opacity="1.000000" stroke="#000000" stroke-linecap="round" stroke-linejoin="round" stroke-width="4.000000"
	d="
M221.000000,162.000000 
	C216.514221,162.627991 212.104935,163.944473 207.500000,163.500000 
"/>
<path fill="none" opacity="1.000000" stroke="#000000" stroke-linecap="round" stroke-linejoin="round" stroke-width="4.000000"
	d="
M198.000000,174.000000 
	C193.833328,175.166672 189.666672,176.333344 185.500000,177.500000 
"/>
<path fill="none" opacity="1.000000" stroke="#000000" stroke-linecap="round" stroke-linejoin="round" stroke-width="5.000000"
	d="
M130.500000,171.000000 
	C134.443848,172.224594 137.866119,175.535553 142.500000,174.000000 
"/>
<path fill="none" opacity="1.000000" stroke="#000000" stroke-linecap="round" stroke-linejoin="round" stroke-width="3.000000"
	d="
M236.500000,155.000000 
	C232.935013,157.403458 229.143463,154.822891 225.500000,155.500000 
"/>
<path fill="none" opacity="1.000000" stroke="#000000" stroke-linecap="round" stroke-linejoin="round" stroke-width="3.000000"
	d="
M190.500000,262.000000 
	C193.818756,262.347931 193.854645,265.978699 196.000000,267.500000 
"/>
</svg>