<svg version="1.1" id="Layer_1" xmlns="http://www.w3.org/2000/svg" xmlns:xlink="http://www.w3.org/1999/xlink" x="0px" y="0px"
	 width="100%" viewBox="0 0 370 384" enable-background="new 0 0 370 384" xml:space="preserve">
<path fill="none" opacity="1.000000" stroke="#000000" stroke-linecap="round" stroke-linejoin="round" stroke-width="6.000000"
	d="
M233.500000,192.000000 
	C239.916641,198.129639 241.758484,206.246262 243.569916,214.484634 
	C244.850754,220.309875 244.834747,226.123611 244.770798,232.000229 
	C244.677505,240.574463 240.705261,247.936203 237.447571,255.477356 
	C233.127594,265.477631 228.928711,275.559601 222.537445,284.526703 
	C220.477371,287.417053 218.001526,289.892914 214.941269,291.379059 
	C212.357773,292.633606 210.030823,294.095886 208.033905,296.034912 
	C205.831741,298.173218 203.996384,298.927734 200.935242,297.109009 
	C196.431610,294.433197 191.015488,294.275269 186.000000,293.000000 
"/>
<path fill="none" opacity="1.000000" stroke="#000000" stroke-linecap="round" stroke-linejoin="round" stroke-width="8.000000"
	d="
M129.500000,302.000000 
	C124.470718,309.330933 123.558754,318.429779 119.138489,326.080017 
	C117.727791,328.521576 119.833084,331.580231 121.586014,333.417969 
	C128.454102,340.618286 136.762878,345.864532 146.038849,349.398010 
	C148.277496,350.250763 150.997742,349.907990 153.500488,349.983734 
	C158.017578,350.120422 162.756119,350.824829 166.973312,350.565674 
	C174.466934,350.105164 182.699234,351.515564 189.507263,346.509888 
	C190.286819,345.936737 191.134308,345.135284 192.005127,345.058014 
	C198.624710,344.470886 199.273743,339.633514 200.069183,334.510742 
	C200.930542,328.963348 203.588715,323.404266 203.178497,318.024506 
	C202.678940,311.473053 204.401428,305.345703 204.500000,299.000000 
"/>
<path fill="none" opacity="1.000000" stroke="#000000" stroke-linecap="round" stroke-linejoin="round" stroke-width="6.000000"
	d="
M178.500000,271.000000 
	C176.010529,263.151886 176.159088,255.024567 176.629761,247.007614 
	C177.020004,240.360641 178.238846,233.699005 181.022552,227.510147 
	C182.123138,225.063339 183.476364,222.730179 184.933731,219.923080 
	C179.785873,208.768372 177.407837,196.143158 173.497681,184.000748 
	C171.576111,178.033661 168.803970,172.430771 164.936600,167.550232 
	C160.138046,161.494553 156.947601,154.735733 154.478653,147.507294 
	C150.857315,136.904831 155.410034,127.397163 166.032562,124.624771 
	C169.069061,123.832275 172.082092,122.363663 175.508255,122.951950 
	C181.537109,123.987129 185.160629,128.409119 187.254898,133.109207 
	C189.911301,139.070831 194.340561,138.961502 198.972412,138.305252 
	C201.114029,138.001831 202.940079,138.186478 204.457718,139.072418 
	C212.777893,143.929428 221.551468,147.900482 229.670547,153.240723 
	C235.447662,157.040558 233.640289,161.518661 233.374603,165.992554 
	C233.144852,169.861740 231.833359,173.666672 231.000015,177.500000 
"/>
<path fill="none" opacity="1.000000" stroke="#000000" stroke-linecap="round" stroke-linejoin="round" stroke-width="6.000000"
	d="
M232.500000,154.500000 
	C235.022949,152.225143 235.553268,149.093903 235.975449,145.996658 
	C237.221069,136.858643 239.692657,127.677696 238.718414,118.529991 
	C238.063034,112.376335 241.441620,107.366844 241.117798,101.493507 
	C240.816254,96.023911 242.096329,90.445961 241.604050,85.013229 
	C240.939178,77.675949 244.533813,71.079529 244.415878,64.001404 
	C244.293610,56.661777 243.765640,49.301426 242.890289,42.013176 
	C242.438538,38.252026 237.137802,34.292885 232.996002,34.076340 
	C230.864120,33.964870 228.591751,33.359398 226.500000,34.500000 
"/>
<path fill="none" opacity="1.000000" stroke="#000000" stroke-linecap="round" stroke-linejoin="round" stroke-width="6.000000"
	d="
M202.000000,137.500000 
	C203.923218,127.569351 206.219879,117.711159 208.454468,107.876053 
	C210.026459,100.957199 212.025375,93.779678 212.503448,86.500229 
	C212.584457,85.266891 212.741531,84.188423 213.350876,82.927910 
	C214.664658,80.210136 215.853119,77.373367 215.333862,73.987144 
	C214.189255,66.523033 218.186050,60.129139 220.647812,53.555351 
	C222.922653,47.480717 224.686203,40.846115 224.857651,34.981220 
	C225.029449,29.104736 224.585175,21.219505 217.543488,16.928642 
	C210.631485,12.716822 202.196564,16.108076 199.926315,23.978745 
	C196.729034,35.063179 194.630600,46.413631 191.855057,57.588192 
	C190.289169,63.892620 185.886032,68.392174 184.413437,74.479057 
	C183.005051,80.300591 180.325363,85.815025 180.480759,92.000481 
	C180.519730,93.551392 180.445023,94.977768 179.583679,96.545959 
	C175.845764,103.351364 175.556519,111.182129 173.562363,118.516953 
	C173.278488,119.561134 173.833313,120.833336 173.999985,122.000000 
"/>
<path fill="none" opacity="1.000000" stroke="#000000" stroke-linecap="round" stroke-linejoin="round" stroke-width="12.000000"
	d="
M181.000000,181.000000 
	C183.752884,179.562042 184.347794,182.488388 184.860413,183.566376 
	C187.143860,188.368408 190.871429,192.345428 192.524628,197.492096 
	C194.630234,204.047165 199.262741,208.533554 205.004654,211.992279 
	C210.515167,215.311630 211.769821,221.428040 214.390076,226.556168 
	C216.286819,230.268295 217.166672,234.500000 218.500000,238.500000 
"/>
<path fill="none" opacity="1.000000" stroke="#000000" stroke-linecap="round" stroke-linejoin="round" stroke-width="6.000000"
	d="
M176.500000,283.500000 
	C182.263763,283.736237 182.612442,289.387573 186.004242,292.470337 
	C182.111862,296.106995 179.726868,300.424591 177.011490,304.514832 
	C179.600769,308.590942 179.921356,312.773224 178.595520,317.526642 
	C176.224197,326.028412 176.150620,335.010895 173.594421,343.528351 
	C173.103439,345.164307 173.833328,347.166656 174.000000,349.000000 
"/>
<path fill="none" opacity="1.000000" stroke="#000000" stroke-linecap="round" stroke-linejoin="round" stroke-width="8.000000"
	d="
M172.500000,305.000000 
	C168.570526,313.654907 166.695557,322.963959 164.098480,332.028229 
	C162.573547,337.350586 161.169571,342.823669 161.500000,348.500000 
"/>
<path fill="none" opacity="1.000000" stroke="#000000" stroke-linecap="round" stroke-linejoin="round" stroke-width="6.000000"
	d="
M140.500000,182.500000 
	C140.930878,191.842743 142.106598,200.835129 150.987564,206.519424 
	C153.893616,208.379456 155.352829,211.182922 156.635712,214.446655 
	C158.808395,219.974152 161.433426,225.432114 164.706451,230.362961 
	C165.931824,232.209030 169.473206,232.575592 172.009109,233.474304 
	C173.795288,234.107315 175.666672,234.500000 177.500000,235.000000 
"/>
<path fill="none" opacity="1.000000" stroke="#000000" stroke-linecap="round" stroke-linejoin="round" stroke-width="4.000000"
	d="
M202.000000,311.000000 
	C197.372787,312.305786 194.484665,315.239685 193.494919,319.998932 
	C192.350174,325.503510 191.008942,330.973114 190.064819,336.511047 
	C189.573761,339.391571 190.133728,342.319550 191.500000,345.000000 
"/>
<path fill="none" opacity="1.000000" stroke="#000000" stroke-linecap="round" stroke-linejoin="round" stroke-width="6.000000"
	d="
M190.999985,161.500000 
	C191.499985,162.500000 192.569031,163.603592 192.408844,164.483414 
	C191.255829,170.816635 195.837219,173.940155 199.534439,177.463852 
	C202.693130,180.474258 205.466751,180.271500 208.469849,176.972549 
	C210.462173,174.783951 212.166656,172.333328 214.000000,170.000000 
"/>
<path fill="none" opacity="1.000000" stroke="#000000" stroke-linecap="round" stroke-linejoin="round" stroke-width="4.000000"
	d="
M163.000000,233.500000 
	C164.677002,238.399918 162.610687,242.866562 161.569290,247.515518 
	C160.249619,253.406891 158.518799,259.334900 160.000000,265.500000 
"/>
<path fill="none" opacity="1.000000" stroke="#000000" stroke-linecap="round" stroke-linejoin="round" stroke-width="9.000000"
	d="
M210.000000,107.500000 
	C218.175980,109.874153 226.619888,110.759209 234.999161,112.005592 
	C235.838715,112.130478 236.666672,112.333328 237.500000,112.500000 
"/>
<path fill="none" opacity="1.000000" stroke="#000000" stroke-linecap="round" stroke-linejoin="round" stroke-width="8.000000"
	d="
M181.000000,95.000000 
	C188.290451,96.349472 195.562775,97.748039 202.511124,100.471611 
	C204.270172,101.161110 206.166672,101.500000 208.000000,102.000000 
"/>
<path fill="none" opacity="1.000000" stroke="#000000" stroke-linecap="round" stroke-linejoin="round" stroke-width="5.000000"
	d="
M153.000000,144.500000 
	C149.414963,144.604218 148.149582,147.189209 146.978149,149.990860 
	C145.914780,152.534058 144.748947,155.042694 143.479218,157.489212 
	C141.886047,160.558990 141.255035,163.667191 142.500000,167.000000 
"/>
<path fill="none" opacity="1.000000" stroke="#000000" stroke-linecap="round" stroke-linejoin="round" stroke-width="4.000000"
	d="
M164.500000,231.500000 
	C154.661179,236.996277 152.334808,247.600998 147.500000,256.500000 
"/>
<path fill="none" opacity="1.000000" stroke="#000000" stroke-linecap="round" stroke-linejoin="round" stroke-width="5.000000"
	d="
M240.500000,79.500000 
	C232.559677,78.117264 224.677979,76.030846 216.500000,77.500000 
"/>
<path fill="none" opacity="1.000000" stroke="#000000" stroke-linecap="round" stroke-linejoin="round" stroke-width="5.000000"
	d="
M192.000000,61.500000 
	C194.855606,63.132900 198.060730,62.125793 201.011566,62.283192 
	C206.057129,62.552322 210.583618,63.832180 215.000000,66.000000 
"/>
<path fill="none" opacity="1.000000" stroke="#000000" stroke-linecap="round" stroke-linejoin="round" stroke-width="8.000000"
	d="
M220.500000,204.500000 
	C225.286819,202.465851 226.311874,196.959488 230.049103,194.063354 
	C233.938904,191.049011 233.547348,187.028809 233.468033,183.000626 
	C233.431686,181.153244 232.810013,178.627502 231.444275,178.164322 
	C226.765015,176.577408 223.570877,172.466125 218.970184,171.100418 
	C215.451660,170.055954 213.481735,167.899612 211.388901,165.082550 
	C207.849548,160.318405 204.421555,155.117447 197.518936,154.333328 
	C196.548645,154.223114 195.833328,155.035889 195.000000,154.500000 
"/>
<path fill="none" opacity="1.000000" stroke="#000000" stroke-linecap="round" stroke-linejoin="round" stroke-width="5.000000"
	d="
M141.000000,195.500000 
	C134.592804,195.628784 128.448685,194.622040 123.025467,190.962265 
	C121.814880,190.145309 120.652451,190.766190 119.500000,190.500000 
"/>
<path fill="none" opacity="1.000000" stroke="#000000" stroke-linecap="round" stroke-linejoin="round" stroke-width="6.000000"
	d="
M192.000000,139.500000 
	C189.930771,144.983765 192.685913,149.663452 194.431717,154.499634 
	C192.689804,157.624405 190.993652,160.534241 187.644318,162.721054 
	C184.715530,164.633301 184.651932,169.117950 183.589218,172.527802 
	C182.802185,175.053070 182.833344,177.833328 182.500015,180.500000 
"/>
<path fill="none" opacity="1.000000" stroke="#000000" stroke-linecap="round" stroke-linejoin="round" stroke-width="3.000000"
	d="
M145.000000,204.000000 
	C144.166672,204.666672 143.428955,205.687057 142.484421,205.942383 
	C136.515121,207.555954 130.500000,209.000000 124.500000,210.500000 
"/>
<path fill="none" opacity="1.000000" stroke="#000000" stroke-linecap="round" stroke-linejoin="round" stroke-width="4.000000"
	d="
M233.500000,242.500000 
	C228.510788,238.753754 224.062836,234.095932 217.500000,233.000000 
"/>
<path fill="none" opacity="1.000000" stroke="#000000" stroke-linecap="round" stroke-linejoin="round" stroke-width="6.000000"
	d="
M159.500000,161.000000 
	C153.592239,161.878647 148.596191,165.264511 143.000000,167.000000 
"/>
<path fill="none" opacity="1.000000" stroke="#000000" stroke-linecap="round" stroke-linejoin="round" stroke-width="6.000000"
	d="
M199.000000,215.500000 
	C195.212784,219.091187 190.470749,220.104340 185.500000,220.500000 
"/>
<path fill="none" opacity="1.000000" stroke="#000000" stroke-linecap="round" stroke-linejoin="round" stroke-width="3.000000"
	d="
M223.500000,225.000000 
	C220.700912,225.748749 217.768723,224.234924 215.000000,225.500000 
"/>
<path fill="none" opacity="1.000000" stroke="#000000" stroke-linecap="round" stroke-linejoin="round" stroke-width="3.000000"
	d="
M179.500000,271.250000 
	C177.000000,273.001343 177.000000,273.001343 177.000000,277.500000 
"/>
<path fill="none" opacity="1.000000" stroke="#000000" stroke-linecap="round" stroke-linejoin="round" stroke-width="3.000000"
	d="
M172.500000,203.000000 
	C169.652679,203.255249 167.125015,204.533371 164.500000,205.500000 
"/>
</svg>