<svg version="1.1" id="Layer_1" xmlns="http://www.w3.org/2000/svg" xmlns:xlink="http://www.w3.org/1999/xlink" x="0px" y="0px"
	 width="100%" viewBox="0 0 370 384" enable-background="new 0 0 370 384" xml:space="preserve">
<path fill="none" opacity="1.000000" stroke="#000000" stroke-linecap="round" stroke-linejoin="round" stroke-width="7.000000"
	d="
M190.500000,310.000000 
	C188.539261,314.906677 189.901245,319.695526 190.995056,324.501129 
	C192.018143,328.995880 192.985580,333.503265 194.003693,337.999176 
	C195.244324,343.477722 199.535461,347.288239 204.982697,346.394562 
	C223.605072,343.339386 241.553452,338.389069 255.449722,324.449860 
	C257.946411,321.945465 260.665405,319.665924 263.164551,317.164398 
	C265.390930,314.935944 265.497314,313.206421 265.083557,310.487274 
	C264.263702,305.098907 263.739288,299.966339 258.089478,296.838379 
	C255.852509,295.599945 255.079926,292.609009 254.873825,289.508392 
	C254.022247,276.697174 256.725220,264.389832 259.202637,251.990540 
	C261.991699,238.031647 264.741241,224.049530 266.887512,209.982834 
	C268.353546,200.374786 267.661926,190.886917 264.149384,181.444427 
	C259.098114,167.865555 254.828674,153.990005 249.488098,140.504715 
	C245.716187,130.980392 241.605057,121.583870 238.073990,111.972816 
	C235.368713,104.609467 233.293640,97.012047 231.012115,89.496323 
	C229.061203,83.069756 226.535416,76.932976 222.500717,71.499466 
	C219.084732,66.899193 214.327515,66.670464 209.014359,66.296188 
	C200.010773,65.661942 190.972061,66.869415 181.971375,65.149849 
	C177.469040,64.289680 172.560181,64.374260 168.024857,65.146072 
	C161.151917,66.315681 159.264694,72.757401 156.570480,78.035973 
	C155.928650,79.293442 156.166672,81.000000 156.000015,82.500000 
"/>
<path fill="none" opacity="1.000000" stroke="#000000" stroke-linecap="round" stroke-linejoin="round" stroke-width="6.000000"
	d="
M154.500000,151.500000 
	C147.441559,146.166397 135.941391,144.728912 128.534698,149.059357 
	C127.056702,149.923492 125.928932,151.244034 125.925644,153.499893 
	C125.904510,168.000107 125.296936,182.508652 125.636200,196.996811 
	C125.845665,205.941681 127.497536,214.850235 130.039658,223.488327 
	C131.597549,228.782059 133.544281,229.297424 139.516144,228.648560 
	C142.982117,228.271957 146.326080,227.963760 149.500000,226.500000 
"/>
<path fill="none" opacity="1.000000" stroke="#000000" stroke-linecap="round" stroke-linejoin="round" stroke-width="4.000000"
	d="
M125.500000,151.500000 
	C123.666664,151.108932 121.939476,150.889679 119.980774,151.430344 
	C113.187775,153.305328 106.593742,155.498291 100.995918,159.994919 
	C94.718422,165.037506 94.654922,167.432266 96.332718,175.534637 
	C98.665909,186.802032 101.192642,197.980347 104.451103,209.014435 
	C105.884026,213.866745 107.763344,218.550690 110.152336,222.916641 
	C111.452263,225.292297 112.029716,227.467697 112.000000,230.000000 
"/>
<path fill="none" opacity="1.000000" stroke="#000000" stroke-linecap="round" stroke-linejoin="round" stroke-width="4.000000"
	d="
M193.500000,128.500000 
	C185.575165,127.875816 178.435120,131.294922 171.032471,133.130920 
	C162.559006,135.232544 154.353943,138.400681 145.987900,140.960480 
	C143.354660,141.766174 140.904953,142.539932 140.000000,145.500000 
"/>
<path fill="none" opacity="1.000000" stroke="#000000" stroke-linecap="round" stroke-linejoin="round" stroke-width="4.000000"
	d="
M94.000000,171.000000 
	C91.191277,172.049225 88.434563,173.084320 85.962479,174.950287 
	C81.249695,178.507553 79.626930,182.334305 81.296761,188.554565 
	C84.049042,198.807068 86.763939,208.997650 92.571419,217.953690 
	C96.845924,224.545639 102.089111,229.627930 110.974747,230.322876 
	C114.755638,230.618561 119.282745,232.169708 122.135010,236.409164 
	C125.900009,242.005264 132.293350,244.062653 138.500763,245.997559 
	C140.541885,246.633789 141.694183,247.666504 142.681625,249.920425 
	C144.526016,254.130402 146.336746,258.695343 153.037537,257.772522 
	C156.151138,257.343750 159.827515,259.519196 162.941788,261.113708 
	C164.919891,262.126526 166.456436,262.196838 167.974258,260.968201 
	C171.092224,258.444244 176.117996,259.016510 178.036163,254.515411 
	C179.365021,251.397186 180.794250,248.268829 183.500000,246.000000 
"/>
<path fill="none" opacity="1.000000" stroke="#000000" stroke-linecap="round" stroke-linejoin="round" stroke-width="12.000000"
	d="
M226.500000,313.000000 
	C225.000000,313.166656 223.239487,313.921417 222.047272,313.393280 
	C217.948776,311.577667 213.686279,312.367523 209.508728,311.918762 
	C205.136337,311.449097 200.863113,310.068207 196.491318,309.577271 
	C192.415375,309.119568 189.013214,308.418671 185.201508,305.963409 
	C181.984985,303.891541 176.123474,304.931274 171.505829,306.024658 
	C169.417618,306.519073 169.561508,308.290497 169.472092,309.998535 
	C169.039505,318.263214 170.177765,326.389740 171.547150,334.492035 
	C171.697968,335.384399 172.408691,336.240631 173.014420,336.988312 
	C177.951096,343.081970 185.981598,345.173218 194.000000,342.500000 
"/>
<path fill="none" opacity="1.000000" stroke="#000000" stroke-linecap="round" stroke-linejoin="round" stroke-width="5.000000"
	d="
M129.500000,244.000000 
	C127.927559,247.258194 128.357559,250.217377 129.917953,253.538544 
	C135.989944,266.462280 142.649323,278.951752 152.412964,289.579956 
	C153.448792,290.707489 154.260422,290.979156 155.500000,291.000000 
"/>
<path fill="none" opacity="1.000000" stroke="#000000" stroke-linecap="round" stroke-linejoin="round" stroke-width="4.000000"
	d="
M245.500000,167.500000 
	C241.174088,170.200714 236.033981,170.791962 231.482788,172.963943 
	C222.165833,177.410339 212.638321,181.430252 204.436844,187.920197 
	C203.745972,188.466858 203.501129,188.778534 203.500000,189.500000 
"/>
<path fill="none" opacity="1.000000" stroke="#000000" stroke-linecap="round" stroke-linejoin="round" stroke-width="4.000000"
	d="
M194.000000,136.500000 
	C190.649139,140.021057 191.132126,144.939667 190.290924,149.059402 
	C188.206070,159.269897 184.880005,169.056885 182.000000,179.000000 
"/>
<path fill="none" opacity="1.000000" stroke="#000000" stroke-linecap="round" stroke-linejoin="round" stroke-width="3.000000"
	d="
M219.500000,104.500000 
	C217.910309,111.908783 215.025040,118.892479 212.630264,126.043625 
	C211.166931,130.413376 208.929337,134.679214 209.000000,139.500000 
"/>
<path fill="none" opacity="1.000000" stroke="#000000" stroke-linecap="round" stroke-linejoin="round" stroke-width="6.000000"
	d="
M173.500000,181.500000 
	C181.757385,178.482391 188.441986,181.289001 195.648331,185.760971 
	C204.091187,191.000259 211.756897,197.533997 220.975021,201.557236 
	C223.143814,202.503815 225.076950,204.065735 226.984711,205.520050 
	C231.615555,209.050201 236.184799,212.445374 242.539566,209.588013 
	C243.246735,209.270065 244.500000,210.166672 245.500000,210.500000 
"/>
<path fill="none" opacity="1.000000" stroke="#000000" stroke-linecap="round" stroke-linejoin="round" stroke-width="5.000000"
	d="
M167.500000,165.500000 
	C166.900986,170.104080 169.004318,174.239395 170.961182,177.886703 
	C173.483612,182.588120 172.378784,186.358551 170.509094,190.504105 
	C169.343140,193.089340 168.768616,195.873459 170.093857,198.451752 
	C170.750580,199.729401 170.453018,200.726318 169.943558,201.460861 
	C167.726212,204.657959 167.416229,208.416519 166.534866,212.154465 
	C171.825821,219.615494 177.903748,226.789780 180.528183,235.991959 
	C180.641174,236.388123 181.475830,236.687881 181.454636,236.996887 
	C180.971115,244.044769 186.167206,247.371338 191.108231,249.777786 
	C195.644440,251.987091 197.653397,255.221695 199.000000,259.500000 
"/>
<path fill="none" opacity="1.000000" stroke="#000000" stroke-linecap="round" stroke-linejoin="round" stroke-width="4.000000"
	d="
M219.000000,89.500000 
	C214.871384,96.682991 208.382126,100.104912 200.535797,102.138138 
	C194.336548,103.744553 187.866776,101.500008 182.064224,103.671608 
	C176.301498,105.828316 170.527039,108.354774 164.502747,108.279564 
	C158.090820,108.199516 150.644608,109.263161 146.524063,101.986374 
	C146.014359,101.086250 145.234222,99.547989 145.594116,99.071007 
	C148.667709,94.997231 147.587219,89.204079 151.468399,85.467171 
	C154.117783,82.916260 161.605148,82.484344 164.500000,84.999992 
	C167.024857,87.194122 165.355743,91.703117 161.492752,92.978035 
	C160.541367,93.292007 159.500000,93.333336 158.500000,93.500000 
"/>
<path fill="none" opacity="1.000000" stroke="#000000" stroke-linecap="round" stroke-linejoin="round" stroke-width="3.000000"
	d="
M235.500000,134.499985 
	C229.833328,135.999985 224.142715,137.416168 218.507492,139.026199 
	C213.905136,140.341110 209.153809,140.662842 204.507736,140.375183 
	C198.622726,140.010773 194.192200,134.664337 194.171570,127.499504 
	C194.159439,123.286049 192.893616,119.506882 191.296677,116.095177 
	C189.225677,111.670677 188.551620,107.082237 187.504929,102.498871 
	C186.381363,97.578880 190.785339,95.144852 192.500000,91.500000 
"/>
<path fill="none" opacity="1.000000" stroke="#000000" stroke-linecap="round" stroke-linejoin="round" stroke-width="5.000000"
	d="
M166.000000,262.500000 
	C166.986801,264.945312 166.364380,267.499084 166.487808,270.000610 
	C166.863571,277.616028 173.546173,281.945374 176.098755,288.461304 
	C176.977570,290.704651 178.696548,292.864380 180.565735,294.421082 
	C184.023041,297.300323 184.984406,300.807526 184.500000,305.000000 
"/>
<path fill="none" opacity="1.000000" stroke="#000000" stroke-linecap="round" stroke-linejoin="round" stroke-width="5.000000"
	d="
M235.500000,211.500000 
	C235.095963,215.460861 237.956665,217.296310 240.458649,219.545990 
	C244.102753,222.822601 247.368988,226.476227 248.500000,231.500000 
"/>
<path fill="none" opacity="1.000000" stroke="#000000" stroke-linecap="round" stroke-linejoin="round" stroke-width="8.000000"
	d="
M167.500000,251.500000 
	C163.997955,244.375961 158.309540,242.907990 152.098709,247.428162 
	C142.675598,245.624222 140.957565,236.813202 136.500000,230.500000 
"/>
<path fill="none" opacity="1.000000" stroke="#000000" stroke-linecap="round" stroke-linejoin="round" stroke-width="3.000000"
	d="
M157.500000,293.500000 
	C162.174210,297.312164 167.250168,300.706482 170.500000,306.000000 
"/>
<path fill="none" opacity="1.000000" stroke="#000000" stroke-linecap="round" stroke-linejoin="round" stroke-width="6.000000"
	d="
M234.500000,303.500000 
	C228.934998,306.230438 222.198959,306.306519 217.500000,311.000000 
"/>
<path fill="none" opacity="1.000000" stroke="#000000" stroke-linecap="round" stroke-linejoin="round" stroke-width="4.000000"
	d="
M204.500000,168.500000 
	C202.641968,171.975296 198.854691,173.493835 196.448166,176.457916 
	C194.862656,178.410751 193.184570,180.263428 192.000000,182.500000 
"/>
<path fill="none" opacity="1.000000" stroke="#000000" stroke-linecap="round" stroke-linejoin="round" stroke-width="4.000000"
	d="
M238.500000,238.500000 
	C237.692062,244.350906 233.396362,247.787231 229.500000,251.500000 
"/>
<path fill="none" opacity="1.000000" stroke="#000000" stroke-linecap="round" stroke-linejoin="round" stroke-width="6.000000"
	d="
M257.500000,297.500000 
	C255.454315,301.592194 256.410950,305.559265 258.000000,309.500000 
"/>
<path fill="none" opacity="1.000000" stroke="#000000" stroke-linecap="round" stroke-linejoin="round" stroke-width="4.000000"
	d="
M209.500000,256.500000 
	C206.978348,257.538300 205.351227,255.015411 203.011673,254.842209 
	C201.361755,254.720078 199.777527,253.558075 198.000000,254.500000 
"/>
<path fill="none" opacity="1.000000" stroke="#000000" stroke-linecap="round" stroke-linejoin="round" stroke-width="4.000000"
	d="
M156.500000,95.500000 
	C153.714264,94.524284 150.764420,96.338211 148.000000,95.000000 
"/>
<path fill="none" opacity="1.000000" stroke="#000000" stroke-linecap="round" stroke-linejoin="round" stroke-width="2.000000"
	d="
M168.000000,278.500000 
	C165.725586,281.034943 167.840561,283.844208 167.500000,286.500000 
"/>
<path fill="none" opacity="1.000000" stroke="#000000" stroke-linecap="round" stroke-linejoin="round" stroke-width="3.000000"
	d="
M177.500000,194.500000 
	C175.966476,197.185913 174.248032,199.671494 171.000000,200.500000 
"/>
<path fill="none" opacity="1.000000" stroke="#000000" stroke-linecap="round" stroke-linejoin="round" stroke-width="2.000000"
	d="
M169.500000,253.500000 
	C170.301270,255.103210 169.910400,256.825623 170.000000,258.500000 
"/>
</svg>