<svg version="1.1" id="Layer_1" xmlns="http://www.w3.org/2000/svg" xmlns:xlink="http://www.w3.org/1999/xlink" x="0px" y="0px"
	 width="100%" viewBox="0 0 370 496" enable-background="new 0 0 370 496" xml:space="preserve">
<path fill="none" opacity="1.000000" stroke="#000000" stroke-linecap="round" stroke-linejoin="round" stroke-width="6.000000"
	d="
M296.500000,247.500000 
	C296.437195,256.791779 302.128998,263.986115 305.569458,271.970062 
	C309.377472,280.806915 310.753754,290.085541 311.426331,299.505249 
	C311.765015,304.248962 313.662994,308.677673 313.551270,313.501190 
	C313.373779,321.163391 316.221313,328.534607 313.880127,336.610199 
	C312.437561,341.586029 313.040771,347.760345 316.380219,353.075256 
	C319.601959,358.202881 317.796844,364.321777 317.948242,370.001373 
	C318.223541,380.327759 313.811951,389.699493 311.454742,399.489105 
	C311.114746,400.901093 310.507599,402.865417 309.443665,403.384552 
	C303.357178,406.354248 303.717834,412.275574 302.500000,417.500000 
"/>
<path fill="none" opacity="1.000000" stroke="#000000" stroke-linecap="round" stroke-linejoin="round" stroke-width="11.000000"
	d="
M70.500000,47.000000 
	C83.166664,48.000000 95.821083,49.215858 108.503647,49.935726 
	C119.855995,50.580093 131.099930,52.476891 142.499680,52.550411 
	C147.334946,52.581596 152.168610,53.141006 156.999466,53.507046 
	C162.079147,53.891933 166.793488,55.219002 170.500000,59.000000 
"/>
<path fill="none" opacity="1.000000" stroke="#000000" stroke-linecap="round" stroke-linejoin="round" stroke-width="10.000000"
	d="
M189.500000,53.500004 
	C186.500000,54.333336 183.506516,55.191093 180.498505,55.994404 
	C175.731873,57.267365 171.719940,59.093025 167.759720,62.739006 
	C160.432846,69.484512 151.720749,74.744255 143.487457,80.482002 
	C130.811935,89.315559 116.504440,95.613434 104.491638,105.489838 
	C104.392197,105.571594 104.058495,105.436043 104.015320,105.509056 
	C98.124016,115.472488 87.355743,115.343758 77.983116,117.939041 
	C71.210968,119.814240 64.174904,120.683784 57.500000,123.000000 
"/>
<path fill="none" opacity="1.000000" stroke="#000000" stroke-linecap="round" stroke-linejoin="round" stroke-width="4.000000"
	d="
M208.500000,119.500000 
	C212.717804,119.725197 215.719467,122.453621 218.434479,125.068039 
	C229.567627,135.788681 239.524445,147.568024 247.852188,160.594498 
	C249.289200,162.842316 251.333908,163.500336 253.011017,164.987579 
	C258.166199,169.559097 262.248749,175.194336 265.306763,181.100067 
	C271.538971,193.135895 277.573486,205.306320 282.713043,217.913147 
	C284.505646,222.310150 285.853943,227.096237 288.883911,231.088120 
	C290.068390,232.648590 290.152832,234.979706 287.545135,236.573853 
	C283.176453,239.244583 278.528351,241.003967 273.501221,240.923676 
	C263.532898,240.764435 253.659302,240.730286 244.500000,245.500000 
"/>
<path fill="none" opacity="1.000000" stroke="#000000" stroke-linecap="round" stroke-linejoin="round" stroke-width="6.000000"
	d="
M177.500000,359.500000 
	C176.323898,363.837097 179.592743,366.517151 181.581802,369.444427 
	C187.350861,377.934692 193.729904,386.012848 199.436188,394.542694 
	C205.302750,403.312073 212.643387,410.436554 221.555222,415.910095 
	C223.610168,417.172211 225.049515,418.759796 226.846390,420.306000 
	C233.467560,420.337311 240.020935,418.798431 246.573502,416.184204 
	C252.130615,413.967133 258.496124,418.060944 259.870697,424.527496 
	C261.724854,433.250122 262.688507,442.163513 263.962646,451.005371 
	C264.076904,451.798248 263.666656,452.666656 263.499969,453.500000 
"/>
<path fill="none" opacity="1.000000" stroke="#000000" stroke-linecap="round" stroke-linejoin="round" stroke-width="8.000000"
	d="
M236.000000,352.500000 
	C231.928436,371.870361 232.715866,381.957336 250.009125,396.489136 
	C255.808487,401.362488 261.180847,406.737610 267.468170,411.046448 
	C269.779083,412.630127 272.490875,412.067596 274.462891,411.761200 
	C280.482178,410.825867 286.632172,410.723755 292.564362,408.687531 
	C296.044861,407.492828 300.166656,408.166656 304.000000,408.000000 
"/>
<path fill="none" opacity="1.000000" stroke="#000000" stroke-linecap="round" stroke-linejoin="round" stroke-width="6.000000"
	d="
M227.000000,421.000000 
	C224.274933,424.182129 224.985626,427.993774 225.600571,431.482269 
	C226.552612,436.882843 228.011017,442.211914 229.544342,447.487122 
	C231.037689,452.624817 236.042328,452.890045 240.033707,453.861511 
	C244.554260,454.961823 249.380310,455.680969 253.990540,455.362885 
	C264.671173,454.625977 275.575104,456.133270 286.004181,452.512024 
	C289.209534,451.399017 292.232971,450.178375 295.062805,448.084900 
	C302.842957,442.329254 309.943695,436.037933 315.610687,428.078827 
	C317.528320,425.385590 316.651184,422.981201 316.423431,420.507050 
	C315.939880,415.254272 316.321716,409.653473 312.000000,405.500000 
"/>
<path fill="none" opacity="1.000000" stroke="#000000" stroke-linecap="round" stroke-linejoin="round" stroke-width="4.000000"
	d="
M202.500000,120.000000 
	C198.522232,119.787682 195.637115,122.002113 193.023895,124.524750 
	C188.016953,129.358139 190.341019,135.293625 191.692368,140.449585 
	C193.561417,147.580826 198.122406,153.585098 202.516418,159.487778 
	C204.924591,162.722809 207.748322,165.672882 209.928009,169.046524 
	C211.982300,172.226089 214.406708,174.995789 215.763123,178.908783 
	C218.831284,187.759766 223.189423,196.129974 229.879562,203.115341 
	C231.693909,205.009750 233.016769,205.153961 234.997269,204.491852 
	C243.310654,201.712692 251.825989,199.331314 258.957581,193.943863 
	C260.688782,192.636047 262.937531,192.929260 264.500000,191.500000 
"/>
<path fill="none" opacity="1.000000" stroke="#000000" stroke-linecap="round" stroke-linejoin="round" stroke-width="9.000000"
	d="
M98.500000,113.000000 
	C102.734344,117.871872 108.506187,119.020279 114.501251,119.483833 
	C125.996956,120.372734 137.498978,121.181313 149.001129,121.983788 
	C150.676041,122.100639 152.366119,122.000000 154.233444,122.000000 
	C153.427383,118.661308 151.686523,116.406738 150.250000,114.000000 
"/>
<path fill="none" opacity="1.000000" stroke="#000000" stroke-linecap="round" stroke-linejoin="round" stroke-width="5.000000"
	d="
M277.500000,365.500000 
	C271.989441,360.729858 265.081940,358.306641 258.909119,354.653564 
	C252.935760,351.118530 245.903885,350.425262 239.020782,351.619720 
	C236.492264,352.058533 234.285248,351.864777 232.553421,350.435272 
	C228.085968,346.747742 223.139130,347.175598 217.993469,347.957031 
	C216.694092,348.154327 215.595062,348.838928 213.914352,347.617889 
	C206.767548,342.425842 199.233490,337.775360 192.478317,332.025482 
	C190.344269,330.208984 188.119293,328.656494 185.007126,328.410065 
	C180.399063,328.045227 177.335800,324.692566 174.555801,321.452118 
	C171.321564,317.682220 168.570724,313.509277 165.067032,309.934296 
	C164.530396,309.386749 164.151733,308.384827 164.328629,306.978455 
	C165.250214,299.651581 165.281281,292.188354 170.224701,285.979858 
	C171.925858,283.843353 170.880219,282.951447 168.546875,281.896332 
	C163.503036,279.615570 153.081314,285.469543 152.833908,291.493164 
	C152.552048,298.356018 150.897446,305.153900 150.045883,312.005707 
	C149.655441,315.147217 149.740692,318.353912 152.000000,321.000000 
"/>
<path fill="none" opacity="1.000000" stroke="#000000" stroke-linecap="round" stroke-linejoin="round" stroke-width="6.000000"
	d="
M292.000000,288.500000 
	C288.166656,294.666656 284.262543,300.791168 280.546967,307.027985 
	C279.547089,308.706268 278.442810,309.726257 276.501526,309.487549 
	C268.812561,308.542206 260.085510,308.861633 254.732391,302.794952 
	C248.522308,295.757019 240.128754,297.688416 232.920990,295.231812 
	C223.018326,291.856689 212.534561,290.802612 201.984848,292.924622 
	C200.607025,293.201782 198.894562,293.615570 197.500000,292.500000 
"/>
<path fill="none" opacity="1.000000" stroke="#000000" stroke-linecap="round" stroke-linejoin="round" stroke-width="5.000000"
	d="
M297.500000,258.000000 
	C287.781708,262.274109 279.090515,267.924744 271.956177,275.961090 
	C265.463165,283.275055 259.609070,291.245361 251.500000,297.000000 
"/>
<path fill="none" opacity="1.000000" stroke="#000000" stroke-linecap="round" stroke-linejoin="round" stroke-width="5.000000"
	d="
M204.500000,335.000000 
	C205.568375,333.803436 206.903961,333.210358 208.497147,332.980255 
	C212.058777,332.465820 214.303757,329.925446 215.384857,326.958038 
	C217.080200,322.304718 218.458603,317.533417 220.483902,312.992828 
	C220.607910,312.714783 220.451843,312.325134 220.507126,312.001221 
	C221.594223,305.632294 215.601700,304.460785 212.318268,301.717529 
	C210.393219,300.109161 206.867188,299.633331 203.917816,302.412781 
	C198.466919,307.549713 195.994064,313.846680 195.602859,321.005615 
	C195.437042,324.039856 194.777084,326.628265 193.000000,329.000000 
"/>
<path fill="none" opacity="1.000000" stroke="#000000" stroke-linecap="round" stroke-linejoin="round" stroke-width="8.000000"
	d="
M156.500000,317.500000 
	C154.722305,320.490265 150.715256,321.538849 150.355759,325.988342 
	C149.871292,331.984772 153.460312,335.622498 157.097794,338.891174 
	C163.342453,344.502655 169.387070,350.268097 175.004868,356.495605 
	C175.635544,357.194733 176.345566,358.421051 176.998077,358.407471 
	C182.452682,358.293976 187.312622,362.154266 193.039017,360.648346 
	C194.099304,360.369507 195.422287,359.888855 197.039993,360.363739 
	C206.891083,363.255768 213.759247,358.874603 215.500000,349.000000 
"/>
<path fill="none" opacity="1.000000" stroke="#000000" stroke-linecap="round" stroke-linejoin="round" stroke-width="5.000000"
	d="
M269.000000,412.500000 
	C268.604248,423.108521 272.396057,433.106384 273.546143,443.494904 
	C273.918762,446.860779 274.833313,450.166656 275.500000,453.500000 
"/>
<path fill="none" opacity="1.000000" stroke="#000000" stroke-linecap="round" stroke-linejoin="round" stroke-width="6.000000"
	d="
M247.500000,297.000000 
	C246.679276,292.535645 245.828751,288.074707 245.998383,283.499939 
	C246.010727,283.167053 246.125565,282.761505 245.981888,282.510345 
	C240.352936,272.671051 244.946381,261.742096 242.767914,251.443329 
	C241.906387,247.370468 242.784653,242.882263 241.655304,238.460342 
	C239.816147,231.259247 236.020859,228.581131 229.005859,231.016876 
	C223.536057,232.916107 219.946167,237.070740 216.451706,241.461563 
	C212.547394,246.367401 209.453506,251.955780 204.500000,256.000000 
"/>
<path fill="none" opacity="1.000000" stroke="#000000" stroke-linecap="round" stroke-linejoin="round" stroke-width="4.000000"
	d="
M201.500000,257.000000 
	C199.131073,254.284744 196.708344,254.185898 193.449478,255.904175 
	C188.249130,258.646149 184.573959,262.644440 181.459625,267.473969 
	C178.480026,272.094604 175.166656,276.500000 172.000000,281.000000 
"/>
<path fill="none" opacity="1.000000" stroke="#000000" stroke-linecap="round" stroke-linejoin="round" stroke-width="6.000000"
	d="
M223.500000,256.500000 
	C219.271118,254.859604 216.247086,258.479309 212.524857,259.140015 
	C211.657379,259.293976 210.425385,260.590454 209.516052,260.416229 
	C201.537323,258.887573 199.205841,265.488007 195.531250,270.025299 
	C192.157013,274.191803 193.742966,279.264160 194.750198,283.439636 
	C196.358307,290.106079 196.678345,295.521820 191.637390,301.123627 
	C186.447525,306.890900 186.222519,314.592133 186.896210,321.986664 
	C187.076248,323.962677 187.403793,325.980774 187.500000,328.000000 
"/>
<path fill="none" opacity="1.000000" stroke="#000000" stroke-linecap="round" stroke-linejoin="round" stroke-width="3.000000"
	d="
M242.500000,166.500000 
	C232.977570,167.673859 224.138626,171.018784 215.500000,175.000000 
"/>
<path fill="none" opacity="1.000000" stroke="#000000" stroke-linecap="round" stroke-linejoin="round" stroke-width="5.000000"
	d="
M232.500000,205.500000 
	C231.600525,210.389603 234.605270,214.241150 236.053024,218.481903 
	C237.395020,222.412811 239.933151,226.066696 238.000000,230.500000 
"/>
<path fill="none" opacity="1.000000" stroke="#000000" stroke-linecap="round" stroke-linejoin="round" stroke-width="3.000000"
	d="
M154.500000,121.500000 
	C162.500000,122.000000 170.500000,122.500000 178.500000,123.000000 
"/>
<path fill="none" opacity="1.000000" stroke="#000000" stroke-linecap="round" stroke-linejoin="round" stroke-width="6.000000"
	d="
M313.000000,350.500000 
	C312.166687,351.666687 310.928436,352.720398 310.566345,354.018524 
	C308.378540,361.861786 302.359406,365.590210 295.500000,368.500000 
"/>
<path fill="none" opacity="1.000000" stroke="#000000" stroke-linecap="round" stroke-linejoin="round" stroke-width="3.000000"
	d="
M298.000000,316.500000 
	C304.151123,321.187164 308.253998,327.353607 311.000000,334.500000 
"/>
<path fill="none" opacity="1.000000" stroke="#000000" stroke-linecap="round" stroke-linejoin="round" stroke-width="8.000000"
	d="
M280.500000,309.000000 
	C284.136658,312.997711 288.938782,313.865356 294.000336,313.986206 
	C295.131500,314.013184 296.283997,313.814697 297.000000,315.000000 
"/>
<path fill="none" opacity="1.000000" stroke="#000000" stroke-linecap="round" stroke-linejoin="round" stroke-width="4.000000"
	d="
M307.000000,412.000000 
	C308.715881,415.112701 309.749512,418.374390 309.527863,422.001709 
	C309.408722,423.951538 309.081299,426.053589 311.000000,427.500000 
"/>
<path fill="none" opacity="1.000000" stroke="#000000" stroke-linecap="round" stroke-linejoin="round" stroke-width="4.000000"
	d="
M255.500000,270.000000 
	C253.896240,270.083649 253.760437,271.085815 253.411728,272.477875 
	C252.410355,276.475311 250.141754,279.615265 246.000000,281.000000 
"/>
<path fill="none" opacity="1.000000" stroke="#000000" stroke-linecap="round" stroke-linejoin="round" stroke-width="3.000000"
	d="
M264.000000,359.000000 
	C264.460693,362.721527 265.771240,365.893127 269.500000,367.500000 
"/>
<path fill="none" opacity="1.000000" stroke="#000000" stroke-linecap="round" stroke-linejoin="round" stroke-width="3.000000"
	d="
M302.000000,306.500000 
	C301.902924,309.954468 298.916809,311.345337 297.000000,313.500000 
"/>
<path fill="none" opacity="1.000000" stroke="#000000" stroke-linecap="round" stroke-linejoin="round" stroke-width="2.000000"
	d="
M263.000000,416.500000 
	C262.084137,418.416931 262.800293,420.877869 261.000000,422.500000 
"/>
<path fill="none" opacity="1.000000" stroke="#000000" stroke-linecap="round" stroke-linejoin="round" stroke-width="3.000000"
	d="
M249.000000,163.000000 
	C247.220612,163.697815 245.746964,165.516663 243.500000,164.500000 
"/>
<path fill="none" opacity="1.000000" stroke="#000000" stroke-linecap="round" stroke-linejoin="round" stroke-width="2.000000"
	d="
M207.500000,119.000000 
	C206.000000,118.249298 204.500000,118.249298 203.000000,119.000000 
"/>
</svg>